; NON-PLATED HOLES START AT T1
; THROUGH (PLATED) HOLES START AT T100
M48
INCH
T1C0.064972
T100C0.098425
T101C0.039370
T102C0.040278
T103C0.051056
T104C0.051083
T105C0.038000
T106C0.040255
%
T1
X008280Y001230
T100
X021122Y012128
X013122Y012128
T101
X018122Y017129
X014122Y017129
X015122Y017129
X020122Y017129
X017122Y017129
X019122Y017129
X016122Y017129
T102
X023147Y002129
X014147Y002129
X010547Y021128
X013547Y021128
X015547Y021128
X017547Y021128
X009409Y018705
X009409Y019697
X024147Y021128
X012547Y021128
X029134Y013155
X017147Y002129
X021147Y002129
X028147Y002129
X024147Y002129
X029134Y012163
X011547Y021128
X010448Y019697
X015147Y002129
X019547Y021128
X027147Y002129
X016147Y002129
X020147Y002129
X011488Y018705
X025147Y021128
X028134Y012163
X023147Y021128
X016547Y021128
X014547Y021128
X028134Y011171
X026147Y021128
X018547Y021128
X029134Y011171
X028134Y013155
X018147Y002129
X022147Y021128
X027147Y021128
X021147Y021128
X019147Y002129
X010448Y018705
X026147Y002129
X011488Y019697
X028147Y021128
X025147Y002129
T103
X007123Y015128
X008123Y015128
X005123Y015128
X006122Y015128
T104
X008280Y001230
X005280Y001230
X007280Y001230
X006280Y001230
X009280Y001230
X004280Y001230
T105
X023122Y028129
X018122Y027129
X022122Y028129
X033122Y015128
X032122Y013128
X016122Y027129
X032122Y015128
X032122Y011128
X018122Y028129
X019122Y028129
X022122Y027129
X016122Y028129
X017122Y028129
X033122Y013128
X033122Y011128
X019122Y027129
X017122Y027129
X023122Y027129
T106
X019122Y005116
X018122Y008135
X019122Y008135
X018122Y007129
X018122Y005116
X019122Y007129
X018122Y006122
X019122Y006122
T00
M30
