G04 MADE WITH FRITZING*
G04 WWW.FRITZING.ORG*
G04 DOUBLE SIDED*
G04 HOLES PLATED*
G04 CONTOUR ON CENTER OF CONTOUR VECTOR*
%ASAXBY*%
%FSLAX23Y23*%
%MOIN*%
%OFA0B0*%
%SFA1.0B1.0*%
%ADD10C,0.075000*%
%ADD11C,0.078000*%
%ADD12C,0.065278*%
%ADD13C,0.078861*%
%ADD14C,0.078833*%
%ADD15C,0.074472*%
%ADD16C,0.070000*%
%ADD17C,0.138425*%
%ADD18R,0.074108X0.074472*%
%ADD19R,0.061024X0.023622*%
%ADD20R,0.074803X0.062992*%
%ADD21R,0.062992X0.074803*%
%ADD22C,0.024000*%
%LNCOPPER1*%
G90*
G70*
G54D10*
X1420Y1993D03*
X2378Y2887D03*
G54D11*
X1612Y2813D03*
X1612Y2713D03*
X1812Y2813D03*
X1812Y2713D03*
X1712Y2813D03*
X1712Y2713D03*
X3212Y1113D03*
X3312Y1113D03*
X3212Y1313D03*
X3312Y1313D03*
X2312Y2813D03*
X2312Y2713D03*
X2212Y2813D03*
X2212Y2713D03*
X1912Y2813D03*
X1912Y2713D03*
X3312Y1513D03*
X3212Y1513D03*
G54D12*
X2415Y213D03*
X2515Y213D03*
X2615Y213D03*
X2715Y213D03*
X2815Y213D03*
X1955Y2113D03*
X1855Y2113D03*
X1755Y2113D03*
X1655Y2113D03*
X1555Y2113D03*
X1455Y2113D03*
X1355Y2113D03*
X1255Y2113D03*
X1155Y2113D03*
X1055Y2113D03*
X2815Y2113D03*
X2715Y2113D03*
X2615Y2113D03*
X2515Y2113D03*
X2415Y2113D03*
X2315Y2113D03*
X2215Y2113D03*
X2115Y2113D03*
X1515Y213D03*
X1415Y213D03*
X1615Y213D03*
X1715Y213D03*
X1815Y213D03*
X1915Y213D03*
X2015Y213D03*
X2115Y213D03*
X2315Y213D03*
X2913Y1316D03*
X2813Y1316D03*
X2913Y1216D03*
X2813Y1216D03*
X2913Y1117D03*
X2813Y1117D03*
X1045Y1970D03*
X1045Y1871D03*
X1149Y1970D03*
X1149Y1871D03*
X941Y1970D03*
X941Y1871D03*
G54D13*
X928Y123D03*
X828Y123D03*
X728Y123D03*
X628Y123D03*
X528Y123D03*
X428Y123D03*
G54D14*
X812Y1513D03*
X712Y1513D03*
X612Y1513D03*
X512Y1513D03*
G54D15*
X1912Y814D03*
X1812Y814D03*
X1912Y713D03*
X1812Y713D03*
X1912Y612D03*
X1812Y612D03*
X1912Y512D03*
X1812Y512D03*
X1912Y814D03*
X1812Y814D03*
X1912Y713D03*
X1812Y713D03*
X1912Y612D03*
X1812Y612D03*
X1912Y512D03*
X1812Y512D03*
G54D16*
X1512Y1713D03*
X1712Y1713D03*
G54D17*
X2112Y1213D03*
G54D16*
X1812Y1713D03*
X1612Y1713D03*
X1412Y1713D03*
G54D17*
X1312Y1213D03*
G54D16*
X2012Y1713D03*
X1912Y1713D03*
G54D18*
X1912Y814D03*
X1912Y814D03*
X1912Y512D03*
G54D19*
X1411Y1522D03*
X1411Y1483D03*
X1411Y1443D03*
X1411Y1404D03*
X2013Y1404D03*
X2013Y1443D03*
X2013Y1483D03*
X2013Y1522D03*
G54D20*
X2151Y574D03*
X2151Y452D03*
X2412Y713D03*
X2412Y835D03*
X1612Y613D03*
X1612Y735D03*
G54D21*
X2512Y513D03*
X2390Y513D03*
G54D20*
X1912Y2313D03*
X1912Y2435D03*
X1812Y2313D03*
X1812Y2435D03*
X1712Y2313D03*
X1712Y2435D03*
X1612Y2313D03*
X1612Y2435D03*
G54D22*
X1912Y2683D02*
X1912Y2461D01*
D02*
X1812Y2683D02*
X1812Y2461D01*
D02*
X1712Y2683D02*
X1712Y2461D01*
D02*
X1612Y2683D02*
X1612Y2461D01*
D02*
X3182Y1313D02*
X2945Y1315D01*
D02*
X3182Y1113D02*
X2945Y1117D01*
D02*
X2015Y2313D02*
X2015Y1913D01*
D02*
X2015Y1913D02*
X2013Y1744D01*
D02*
X3217Y2318D02*
X3212Y1543D01*
D02*
X2414Y2313D02*
X3217Y2318D01*
D02*
X2329Y2141D02*
X2414Y2313D01*
D02*
X2199Y2686D02*
X2015Y2313D01*
D02*
X2515Y2082D02*
X2512Y545D01*
D02*
X2364Y520D02*
X2183Y566D01*
D02*
X1940Y527D02*
X2019Y571D01*
D02*
X1944Y815D02*
X2380Y834D01*
D02*
X2419Y687D02*
X2451Y571D01*
D02*
X2211Y571D02*
X2183Y572D01*
D02*
X2019Y571D02*
X2211Y571D01*
D02*
X1644Y731D02*
X1781Y716D01*
D02*
X2115Y451D02*
X2119Y451D01*
D02*
X2451Y451D02*
X2115Y451D01*
D02*
X2451Y571D02*
X2451Y451D01*
D02*
X1805Y2287D02*
X1763Y2143D01*
D02*
X1905Y2287D02*
X1863Y2143D01*
D02*
X1644Y597D02*
X1784Y526D01*
D02*
X1724Y243D02*
X1803Y482D01*
D02*
X1705Y2287D02*
X1663Y2143D01*
D02*
X1592Y2287D02*
X1474Y2137D01*
D02*
X1707Y1747D02*
X1083Y2083D01*
D02*
X1707Y1743D02*
X1707Y1747D01*
D02*
X1083Y2083D02*
X1076Y2090D01*
D02*
X741Y1536D02*
X1125Y1851D01*
G36*
X1652Y2685D02*
X1652Y2683D01*
X1650Y2683D01*
X1650Y2681D01*
X1648Y2681D01*
X1648Y2679D01*
X1646Y2679D01*
X1646Y2677D01*
X1644Y2677D01*
X1644Y2675D01*
X1642Y2675D01*
X1642Y2673D01*
X1640Y2673D01*
X1640Y2671D01*
X1636Y2671D01*
X1636Y2669D01*
X1634Y2669D01*
X1634Y2477D01*
X1690Y2477D01*
X1690Y2669D01*
X1688Y2669D01*
X1688Y2671D01*
X1684Y2671D01*
X1684Y2673D01*
X1682Y2673D01*
X1682Y2675D01*
X1680Y2675D01*
X1680Y2677D01*
X1678Y2677D01*
X1678Y2679D01*
X1676Y2679D01*
X1676Y2681D01*
X1674Y2681D01*
X1674Y2683D01*
X1672Y2683D01*
X1672Y2685D01*
X1652Y2685D01*
G37*
D02*
G36*
X1752Y2685D02*
X1752Y2683D01*
X1750Y2683D01*
X1750Y2681D01*
X1748Y2681D01*
X1748Y2679D01*
X1746Y2679D01*
X1746Y2677D01*
X1744Y2677D01*
X1744Y2675D01*
X1742Y2675D01*
X1742Y2673D01*
X1740Y2673D01*
X1740Y2671D01*
X1736Y2671D01*
X1736Y2669D01*
X1734Y2669D01*
X1734Y2477D01*
X1790Y2477D01*
X1790Y2669D01*
X1788Y2669D01*
X1788Y2671D01*
X1784Y2671D01*
X1784Y2673D01*
X1782Y2673D01*
X1782Y2675D01*
X1780Y2675D01*
X1780Y2677D01*
X1778Y2677D01*
X1778Y2679D01*
X1776Y2679D01*
X1776Y2681D01*
X1774Y2681D01*
X1774Y2683D01*
X1772Y2683D01*
X1772Y2685D01*
X1752Y2685D01*
G37*
D02*
G36*
X1852Y2685D02*
X1852Y2683D01*
X1850Y2683D01*
X1850Y2681D01*
X1848Y2681D01*
X1848Y2679D01*
X1846Y2679D01*
X1846Y2677D01*
X1844Y2677D01*
X1844Y2675D01*
X1842Y2675D01*
X1842Y2673D01*
X1840Y2673D01*
X1840Y2671D01*
X1836Y2671D01*
X1836Y2669D01*
X1834Y2669D01*
X1834Y2477D01*
X1890Y2477D01*
X1890Y2669D01*
X1888Y2669D01*
X1888Y2671D01*
X1884Y2671D01*
X1884Y2673D01*
X1882Y2673D01*
X1882Y2675D01*
X1880Y2675D01*
X1880Y2677D01*
X1878Y2677D01*
X1878Y2679D01*
X1876Y2679D01*
X1876Y2681D01*
X1874Y2681D01*
X1874Y2683D01*
X1872Y2683D01*
X1872Y2685D01*
X1852Y2685D01*
G37*
D02*
G36*
X1606Y2271D02*
X1606Y2267D01*
X1604Y2267D01*
X1604Y2265D01*
X1602Y2265D01*
X1602Y2263D01*
X1600Y2263D01*
X1600Y2261D01*
X1598Y2261D01*
X1598Y2257D01*
X1596Y2257D01*
X1596Y2255D01*
X1594Y2255D01*
X1594Y2253D01*
X1592Y2253D01*
X1592Y2249D01*
X1590Y2249D01*
X1590Y2247D01*
X1588Y2247D01*
X1588Y2245D01*
X1586Y2245D01*
X1586Y2243D01*
X1584Y2243D01*
X1584Y2239D01*
X1582Y2239D01*
X1582Y2237D01*
X1580Y2237D01*
X1580Y2235D01*
X1578Y2235D01*
X1578Y2233D01*
X1576Y2233D01*
X1576Y2229D01*
X1574Y2229D01*
X1574Y2227D01*
X1572Y2227D01*
X1572Y2225D01*
X1570Y2225D01*
X1570Y2221D01*
X1568Y2221D01*
X1568Y2219D01*
X1566Y2219D01*
X1566Y2217D01*
X1564Y2217D01*
X1564Y2215D01*
X1562Y2215D01*
X1562Y2211D01*
X1560Y2211D01*
X1560Y2209D01*
X1558Y2209D01*
X1558Y2207D01*
X1556Y2207D01*
X1556Y2205D01*
X1554Y2205D01*
X1554Y2201D01*
X1552Y2201D01*
X1552Y2199D01*
X1550Y2199D01*
X1550Y2197D01*
X1548Y2197D01*
X1548Y2195D01*
X1546Y2195D01*
X1546Y2191D01*
X1544Y2191D01*
X1544Y2189D01*
X1542Y2189D01*
X1542Y2187D01*
X1540Y2187D01*
X1540Y2183D01*
X1538Y2183D01*
X1538Y2181D01*
X1536Y2181D01*
X1536Y2179D01*
X1534Y2179D01*
X1534Y2177D01*
X1532Y2177D01*
X1532Y2173D01*
X1530Y2173D01*
X1530Y2171D01*
X1528Y2171D01*
X1528Y2169D01*
X1526Y2169D01*
X1526Y2167D01*
X1524Y2167D01*
X1524Y2163D01*
X1522Y2163D01*
X1522Y2161D01*
X1520Y2161D01*
X1520Y2159D01*
X1518Y2159D01*
X1518Y2155D01*
X1564Y2155D01*
X1564Y2153D01*
X1570Y2153D01*
X1570Y2151D01*
X1574Y2151D01*
X1574Y2149D01*
X1578Y2149D01*
X1578Y2147D01*
X1580Y2147D01*
X1580Y2145D01*
X1584Y2145D01*
X1584Y2143D01*
X1586Y2143D01*
X1586Y2141D01*
X1588Y2141D01*
X1588Y2137D01*
X1590Y2137D01*
X1590Y2135D01*
X1592Y2135D01*
X1592Y2131D01*
X1594Y2131D01*
X1594Y2125D01*
X1614Y2125D01*
X1614Y2127D01*
X1616Y2127D01*
X1616Y2131D01*
X1618Y2131D01*
X1618Y2135D01*
X1620Y2135D01*
X1620Y2139D01*
X1622Y2139D01*
X1622Y2141D01*
X1624Y2141D01*
X1624Y2143D01*
X1626Y2143D01*
X1626Y2145D01*
X1628Y2145D01*
X1628Y2147D01*
X1632Y2147D01*
X1632Y2149D01*
X1634Y2149D01*
X1634Y2151D01*
X1638Y2151D01*
X1638Y2153D01*
X1644Y2153D01*
X1644Y2159D01*
X1646Y2159D01*
X1646Y2165D01*
X1648Y2165D01*
X1648Y2173D01*
X1650Y2173D01*
X1650Y2179D01*
X1652Y2179D01*
X1652Y2187D01*
X1654Y2187D01*
X1654Y2193D01*
X1656Y2193D01*
X1656Y2199D01*
X1658Y2199D01*
X1658Y2207D01*
X1660Y2207D01*
X1660Y2213D01*
X1662Y2213D01*
X1662Y2221D01*
X1664Y2221D01*
X1664Y2227D01*
X1666Y2227D01*
X1666Y2235D01*
X1668Y2235D01*
X1668Y2241D01*
X1670Y2241D01*
X1670Y2249D01*
X1672Y2249D01*
X1672Y2271D01*
X1606Y2271D01*
G37*
D02*
G36*
X1516Y2155D02*
X1516Y2153D01*
X1514Y2153D01*
X1514Y2151D01*
X1512Y2151D01*
X1512Y2149D01*
X1510Y2149D01*
X1510Y2147D01*
X1532Y2147D01*
X1532Y2149D01*
X1534Y2149D01*
X1534Y2151D01*
X1538Y2151D01*
X1538Y2153D01*
X1546Y2153D01*
X1546Y2155D01*
X1516Y2155D01*
G37*
D02*
G36*
X1722Y2271D02*
X1722Y2263D01*
X1720Y2263D01*
X1720Y2257D01*
X1718Y2257D01*
X1718Y2249D01*
X1716Y2249D01*
X1716Y2243D01*
X1714Y2243D01*
X1714Y2235D01*
X1712Y2235D01*
X1712Y2229D01*
X1710Y2229D01*
X1710Y2221D01*
X1708Y2221D01*
X1708Y2215D01*
X1706Y2215D01*
X1706Y2207D01*
X1704Y2207D01*
X1704Y2201D01*
X1702Y2201D01*
X1702Y2193D01*
X1700Y2193D01*
X1700Y2187D01*
X1698Y2187D01*
X1698Y2179D01*
X1696Y2179D01*
X1696Y2173D01*
X1694Y2173D01*
X1694Y2165D01*
X1692Y2165D01*
X1692Y2159D01*
X1690Y2159D01*
X1690Y2135D01*
X1692Y2135D01*
X1692Y2131D01*
X1694Y2131D01*
X1694Y2125D01*
X1714Y2125D01*
X1714Y2127D01*
X1716Y2127D01*
X1716Y2131D01*
X1718Y2131D01*
X1718Y2135D01*
X1720Y2135D01*
X1720Y2139D01*
X1722Y2139D01*
X1722Y2141D01*
X1724Y2141D01*
X1724Y2143D01*
X1726Y2143D01*
X1726Y2145D01*
X1728Y2145D01*
X1728Y2147D01*
X1732Y2147D01*
X1732Y2149D01*
X1734Y2149D01*
X1734Y2151D01*
X1738Y2151D01*
X1738Y2153D01*
X1744Y2153D01*
X1744Y2159D01*
X1746Y2159D01*
X1746Y2165D01*
X1748Y2165D01*
X1748Y2173D01*
X1750Y2173D01*
X1750Y2179D01*
X1752Y2179D01*
X1752Y2187D01*
X1754Y2187D01*
X1754Y2193D01*
X1756Y2193D01*
X1756Y2199D01*
X1758Y2199D01*
X1758Y2207D01*
X1760Y2207D01*
X1760Y2213D01*
X1762Y2213D01*
X1762Y2221D01*
X1764Y2221D01*
X1764Y2227D01*
X1766Y2227D01*
X1766Y2235D01*
X1768Y2235D01*
X1768Y2241D01*
X1770Y2241D01*
X1770Y2249D01*
X1772Y2249D01*
X1772Y2271D01*
X1722Y2271D01*
G37*
D02*
G36*
X1822Y2271D02*
X1822Y2263D01*
X1820Y2263D01*
X1820Y2257D01*
X1818Y2257D01*
X1818Y2249D01*
X1816Y2249D01*
X1816Y2243D01*
X1814Y2243D01*
X1814Y2235D01*
X1812Y2235D01*
X1812Y2229D01*
X1810Y2229D01*
X1810Y2221D01*
X1808Y2221D01*
X1808Y2215D01*
X1806Y2215D01*
X1806Y2207D01*
X1804Y2207D01*
X1804Y2201D01*
X1802Y2201D01*
X1802Y2193D01*
X1800Y2193D01*
X1800Y2187D01*
X1798Y2187D01*
X1798Y2179D01*
X1796Y2179D01*
X1796Y2173D01*
X1794Y2173D01*
X1794Y2165D01*
X1792Y2165D01*
X1792Y2159D01*
X1790Y2159D01*
X1790Y2135D01*
X1792Y2135D01*
X1792Y2131D01*
X1794Y2131D01*
X1794Y2125D01*
X1814Y2125D01*
X1814Y2127D01*
X1816Y2127D01*
X1816Y2131D01*
X1818Y2131D01*
X1818Y2135D01*
X1820Y2135D01*
X1820Y2139D01*
X1822Y2139D01*
X1822Y2141D01*
X1824Y2141D01*
X1824Y2143D01*
X1826Y2143D01*
X1826Y2145D01*
X1828Y2145D01*
X1828Y2147D01*
X1832Y2147D01*
X1832Y2149D01*
X1834Y2149D01*
X1834Y2151D01*
X1838Y2151D01*
X1838Y2153D01*
X1844Y2153D01*
X1844Y2159D01*
X1846Y2159D01*
X1846Y2165D01*
X1848Y2165D01*
X1848Y2173D01*
X1850Y2173D01*
X1850Y2179D01*
X1852Y2179D01*
X1852Y2187D01*
X1854Y2187D01*
X1854Y2193D01*
X1856Y2193D01*
X1856Y2199D01*
X1858Y2199D01*
X1858Y2207D01*
X1860Y2207D01*
X1860Y2213D01*
X1862Y2213D01*
X1862Y2221D01*
X1864Y2221D01*
X1864Y2227D01*
X1866Y2227D01*
X1866Y2235D01*
X1868Y2235D01*
X1868Y2241D01*
X1870Y2241D01*
X1870Y2249D01*
X1872Y2249D01*
X1872Y2271D01*
X1822Y2271D01*
G37*
D02*
G36*
X1194Y2099D02*
X1194Y2095D01*
X1192Y2095D01*
X1192Y2091D01*
X1190Y2091D01*
X1190Y2087D01*
X1188Y2087D01*
X1188Y2085D01*
X1186Y2085D01*
X1186Y2083D01*
X1184Y2083D01*
X1184Y2081D01*
X1182Y2081D01*
X1182Y2079D01*
X1180Y2079D01*
X1180Y2077D01*
X1176Y2077D01*
X1176Y2069D01*
X1252Y2069D01*
X1252Y2071D01*
X1242Y2071D01*
X1242Y2073D01*
X1236Y2073D01*
X1236Y2075D01*
X1234Y2075D01*
X1234Y2077D01*
X1230Y2077D01*
X1230Y2079D01*
X1228Y2079D01*
X1228Y2081D01*
X1226Y2081D01*
X1226Y2083D01*
X1224Y2083D01*
X1224Y2085D01*
X1222Y2085D01*
X1222Y2087D01*
X1220Y2087D01*
X1220Y2089D01*
X1218Y2089D01*
X1218Y2093D01*
X1216Y2093D01*
X1216Y2097D01*
X1214Y2097D01*
X1214Y2099D01*
X1194Y2099D01*
G37*
D02*
G36*
X1294Y2099D02*
X1294Y2095D01*
X1292Y2095D01*
X1292Y2091D01*
X1290Y2091D01*
X1290Y2087D01*
X1288Y2087D01*
X1288Y2085D01*
X1286Y2085D01*
X1286Y2083D01*
X1284Y2083D01*
X1284Y2081D01*
X1282Y2081D01*
X1282Y2079D01*
X1280Y2079D01*
X1280Y2077D01*
X1276Y2077D01*
X1276Y2075D01*
X1272Y2075D01*
X1272Y2073D01*
X1268Y2073D01*
X1268Y2071D01*
X1256Y2071D01*
X1256Y2069D01*
X1352Y2069D01*
X1352Y2071D01*
X1342Y2071D01*
X1342Y2073D01*
X1336Y2073D01*
X1336Y2075D01*
X1334Y2075D01*
X1334Y2077D01*
X1330Y2077D01*
X1330Y2079D01*
X1328Y2079D01*
X1328Y2081D01*
X1326Y2081D01*
X1326Y2083D01*
X1324Y2083D01*
X1324Y2085D01*
X1322Y2085D01*
X1322Y2087D01*
X1320Y2087D01*
X1320Y2089D01*
X1318Y2089D01*
X1318Y2093D01*
X1316Y2093D01*
X1316Y2097D01*
X1314Y2097D01*
X1314Y2099D01*
X1294Y2099D01*
G37*
D02*
G36*
X1394Y2099D02*
X1394Y2095D01*
X1392Y2095D01*
X1392Y2091D01*
X1390Y2091D01*
X1390Y2087D01*
X1388Y2087D01*
X1388Y2085D01*
X1386Y2085D01*
X1386Y2083D01*
X1384Y2083D01*
X1384Y2081D01*
X1382Y2081D01*
X1382Y2079D01*
X1380Y2079D01*
X1380Y2077D01*
X1376Y2077D01*
X1376Y2075D01*
X1372Y2075D01*
X1372Y2073D01*
X1368Y2073D01*
X1368Y2071D01*
X1356Y2071D01*
X1356Y2069D01*
X1452Y2069D01*
X1452Y2071D01*
X1442Y2071D01*
X1442Y2073D01*
X1436Y2073D01*
X1436Y2075D01*
X1434Y2075D01*
X1434Y2077D01*
X1430Y2077D01*
X1430Y2079D01*
X1428Y2079D01*
X1428Y2081D01*
X1426Y2081D01*
X1426Y2083D01*
X1424Y2083D01*
X1424Y2085D01*
X1422Y2085D01*
X1422Y2087D01*
X1420Y2087D01*
X1420Y2089D01*
X1418Y2089D01*
X1418Y2093D01*
X1416Y2093D01*
X1416Y2097D01*
X1414Y2097D01*
X1414Y2099D01*
X1394Y2099D01*
G37*
D02*
G36*
X1494Y2099D02*
X1494Y2095D01*
X1492Y2095D01*
X1492Y2091D01*
X1490Y2091D01*
X1490Y2087D01*
X1488Y2087D01*
X1488Y2085D01*
X1486Y2085D01*
X1486Y2083D01*
X1484Y2083D01*
X1484Y2081D01*
X1482Y2081D01*
X1482Y2079D01*
X1480Y2079D01*
X1480Y2077D01*
X1476Y2077D01*
X1476Y2075D01*
X1472Y2075D01*
X1472Y2073D01*
X1468Y2073D01*
X1468Y2071D01*
X1456Y2071D01*
X1456Y2069D01*
X1552Y2069D01*
X1552Y2071D01*
X1542Y2071D01*
X1542Y2073D01*
X1536Y2073D01*
X1536Y2075D01*
X1534Y2075D01*
X1534Y2077D01*
X1530Y2077D01*
X1530Y2079D01*
X1528Y2079D01*
X1528Y2081D01*
X1526Y2081D01*
X1526Y2083D01*
X1524Y2083D01*
X1524Y2085D01*
X1522Y2085D01*
X1522Y2087D01*
X1520Y2087D01*
X1520Y2089D01*
X1518Y2089D01*
X1518Y2093D01*
X1516Y2093D01*
X1516Y2097D01*
X1514Y2097D01*
X1514Y2099D01*
X1494Y2099D01*
G37*
D02*
G36*
X1594Y2099D02*
X1594Y2095D01*
X1592Y2095D01*
X1592Y2091D01*
X1590Y2091D01*
X1590Y2087D01*
X1588Y2087D01*
X1588Y2085D01*
X1586Y2085D01*
X1586Y2083D01*
X1584Y2083D01*
X1584Y2081D01*
X1582Y2081D01*
X1582Y2079D01*
X1580Y2079D01*
X1580Y2077D01*
X1576Y2077D01*
X1576Y2075D01*
X1572Y2075D01*
X1572Y2073D01*
X1568Y2073D01*
X1568Y2071D01*
X1556Y2071D01*
X1556Y2069D01*
X1652Y2069D01*
X1652Y2071D01*
X1642Y2071D01*
X1642Y2073D01*
X1636Y2073D01*
X1636Y2075D01*
X1634Y2075D01*
X1634Y2077D01*
X1630Y2077D01*
X1630Y2079D01*
X1628Y2079D01*
X1628Y2081D01*
X1626Y2081D01*
X1626Y2083D01*
X1624Y2083D01*
X1624Y2085D01*
X1622Y2085D01*
X1622Y2087D01*
X1620Y2087D01*
X1620Y2089D01*
X1618Y2089D01*
X1618Y2093D01*
X1616Y2093D01*
X1616Y2097D01*
X1614Y2097D01*
X1614Y2099D01*
X1594Y2099D01*
G37*
D02*
G36*
X1694Y2099D02*
X1694Y2095D01*
X1692Y2095D01*
X1692Y2091D01*
X1690Y2091D01*
X1690Y2087D01*
X1688Y2087D01*
X1688Y2085D01*
X1686Y2085D01*
X1686Y2083D01*
X1684Y2083D01*
X1684Y2081D01*
X1682Y2081D01*
X1682Y2079D01*
X1680Y2079D01*
X1680Y2077D01*
X1676Y2077D01*
X1676Y2075D01*
X1672Y2075D01*
X1672Y2073D01*
X1668Y2073D01*
X1668Y2071D01*
X1656Y2071D01*
X1656Y2069D01*
X1752Y2069D01*
X1752Y2071D01*
X1742Y2071D01*
X1742Y2073D01*
X1736Y2073D01*
X1736Y2075D01*
X1734Y2075D01*
X1734Y2077D01*
X1730Y2077D01*
X1730Y2079D01*
X1728Y2079D01*
X1728Y2081D01*
X1726Y2081D01*
X1726Y2083D01*
X1724Y2083D01*
X1724Y2085D01*
X1722Y2085D01*
X1722Y2087D01*
X1720Y2087D01*
X1720Y2089D01*
X1718Y2089D01*
X1718Y2093D01*
X1716Y2093D01*
X1716Y2097D01*
X1714Y2097D01*
X1714Y2099D01*
X1694Y2099D01*
G37*
D02*
G36*
X1794Y2099D02*
X1794Y2095D01*
X1792Y2095D01*
X1792Y2091D01*
X1790Y2091D01*
X1790Y2087D01*
X1788Y2087D01*
X1788Y2085D01*
X1786Y2085D01*
X1786Y2083D01*
X1784Y2083D01*
X1784Y2081D01*
X1782Y2081D01*
X1782Y2079D01*
X1780Y2079D01*
X1780Y2077D01*
X1776Y2077D01*
X1776Y2075D01*
X1772Y2075D01*
X1772Y2073D01*
X1768Y2073D01*
X1768Y2071D01*
X1756Y2071D01*
X1756Y2069D01*
X1852Y2069D01*
X1852Y2071D01*
X1842Y2071D01*
X1842Y2073D01*
X1836Y2073D01*
X1836Y2075D01*
X1834Y2075D01*
X1834Y2077D01*
X1830Y2077D01*
X1830Y2079D01*
X1828Y2079D01*
X1828Y2081D01*
X1826Y2081D01*
X1826Y2083D01*
X1824Y2083D01*
X1824Y2085D01*
X1822Y2085D01*
X1822Y2087D01*
X1820Y2087D01*
X1820Y2089D01*
X1818Y2089D01*
X1818Y2093D01*
X1816Y2093D01*
X1816Y2097D01*
X1814Y2097D01*
X1814Y2099D01*
X1794Y2099D01*
G37*
D02*
G36*
X1894Y2099D02*
X1894Y2095D01*
X1892Y2095D01*
X1892Y2091D01*
X1890Y2091D01*
X1890Y2087D01*
X1888Y2087D01*
X1888Y2085D01*
X1886Y2085D01*
X1886Y2083D01*
X1884Y2083D01*
X1884Y2081D01*
X1882Y2081D01*
X1882Y2079D01*
X1880Y2079D01*
X1880Y2077D01*
X1876Y2077D01*
X1876Y2075D01*
X1872Y2075D01*
X1872Y2073D01*
X1868Y2073D01*
X1868Y2071D01*
X1856Y2071D01*
X1856Y2069D01*
X1952Y2069D01*
X1952Y2071D01*
X1942Y2071D01*
X1942Y2073D01*
X1936Y2073D01*
X1936Y2075D01*
X1934Y2075D01*
X1934Y2077D01*
X1930Y2077D01*
X1930Y2079D01*
X1928Y2079D01*
X1928Y2081D01*
X1926Y2081D01*
X1926Y2083D01*
X1924Y2083D01*
X1924Y2085D01*
X1922Y2085D01*
X1922Y2087D01*
X1920Y2087D01*
X1920Y2089D01*
X1918Y2089D01*
X1918Y2093D01*
X1916Y2093D01*
X1916Y2097D01*
X1914Y2097D01*
X1914Y2099D01*
X1894Y2099D01*
G37*
D02*
G36*
X1972Y2075D02*
X1972Y2073D01*
X1968Y2073D01*
X1968Y2071D01*
X1956Y2071D01*
X1956Y2069D01*
X1992Y2069D01*
X1992Y2075D01*
X1972Y2075D01*
G37*
D02*
G36*
X1176Y2069D02*
X1176Y2067D01*
X1992Y2067D01*
X1992Y2069D01*
X1176Y2069D01*
G37*
D02*
G36*
X1176Y2069D02*
X1176Y2067D01*
X1992Y2067D01*
X1992Y2069D01*
X1176Y2069D01*
G37*
D02*
G36*
X1176Y2069D02*
X1176Y2067D01*
X1992Y2067D01*
X1992Y2069D01*
X1176Y2069D01*
G37*
D02*
G36*
X1176Y2069D02*
X1176Y2067D01*
X1992Y2067D01*
X1992Y2069D01*
X1176Y2069D01*
G37*
D02*
G36*
X1176Y2069D02*
X1176Y2067D01*
X1992Y2067D01*
X1992Y2069D01*
X1176Y2069D01*
G37*
D02*
G36*
X1176Y2069D02*
X1176Y2067D01*
X1992Y2067D01*
X1992Y2069D01*
X1176Y2069D01*
G37*
D02*
G36*
X1176Y2069D02*
X1176Y2067D01*
X1992Y2067D01*
X1992Y2069D01*
X1176Y2069D01*
G37*
D02*
G36*
X1176Y2069D02*
X1176Y2067D01*
X1992Y2067D01*
X1992Y2069D01*
X1176Y2069D01*
G37*
D02*
G36*
X1176Y2069D02*
X1176Y2067D01*
X1992Y2067D01*
X1992Y2069D01*
X1176Y2069D01*
G37*
D02*
G36*
X1176Y2067D02*
X1176Y2057D01*
X1178Y2057D01*
X1178Y2055D01*
X1182Y2055D01*
X1182Y2053D01*
X1186Y2053D01*
X1186Y2051D01*
X1190Y2051D01*
X1190Y2049D01*
X1194Y2049D01*
X1194Y2047D01*
X1198Y2047D01*
X1198Y2045D01*
X1200Y2045D01*
X1200Y2043D01*
X1204Y2043D01*
X1204Y2041D01*
X1208Y2041D01*
X1208Y2039D01*
X1212Y2039D01*
X1212Y2037D01*
X1216Y2037D01*
X1216Y2035D01*
X1220Y2035D01*
X1220Y2033D01*
X1224Y2033D01*
X1224Y2031D01*
X1226Y2031D01*
X1226Y2029D01*
X1230Y2029D01*
X1230Y2027D01*
X1234Y2027D01*
X1234Y2025D01*
X1238Y2025D01*
X1238Y2023D01*
X1242Y2023D01*
X1242Y2021D01*
X1246Y2021D01*
X1246Y2019D01*
X1250Y2019D01*
X1250Y2017D01*
X1252Y2017D01*
X1252Y2015D01*
X1256Y2015D01*
X1256Y2013D01*
X1260Y2013D01*
X1260Y2011D01*
X1264Y2011D01*
X1264Y2009D01*
X1268Y2009D01*
X1268Y2007D01*
X1272Y2007D01*
X1272Y2005D01*
X1276Y2005D01*
X1276Y2003D01*
X1278Y2003D01*
X1278Y2001D01*
X1282Y2001D01*
X1282Y1999D01*
X1286Y1999D01*
X1286Y1997D01*
X1290Y1997D01*
X1290Y1995D01*
X1294Y1995D01*
X1294Y1993D01*
X1298Y1993D01*
X1298Y1991D01*
X1302Y1991D01*
X1302Y1989D01*
X1304Y1989D01*
X1304Y1987D01*
X1308Y1987D01*
X1308Y1985D01*
X1312Y1985D01*
X1312Y1983D01*
X1316Y1983D01*
X1316Y1981D01*
X1320Y1981D01*
X1320Y1979D01*
X1324Y1979D01*
X1324Y1977D01*
X1328Y1977D01*
X1328Y1975D01*
X1330Y1975D01*
X1330Y1973D01*
X1334Y1973D01*
X1334Y1971D01*
X1338Y1971D01*
X1338Y1969D01*
X1342Y1969D01*
X1342Y1967D01*
X1346Y1967D01*
X1346Y1965D01*
X1350Y1965D01*
X1350Y1963D01*
X1354Y1963D01*
X1354Y1961D01*
X1356Y1961D01*
X1356Y1959D01*
X1360Y1959D01*
X1360Y1957D01*
X1364Y1957D01*
X1364Y1955D01*
X1368Y1955D01*
X1368Y1953D01*
X1372Y1953D01*
X1372Y1951D01*
X1376Y1951D01*
X1376Y1949D01*
X1380Y1949D01*
X1380Y1947D01*
X1382Y1947D01*
X1382Y1945D01*
X1386Y1945D01*
X1386Y1943D01*
X1390Y1943D01*
X1390Y1941D01*
X1394Y1941D01*
X1394Y1939D01*
X1398Y1939D01*
X1398Y1937D01*
X1402Y1937D01*
X1402Y1935D01*
X1406Y1935D01*
X1406Y1933D01*
X1408Y1933D01*
X1408Y1931D01*
X1412Y1931D01*
X1412Y1929D01*
X1416Y1929D01*
X1416Y1927D01*
X1420Y1927D01*
X1420Y1925D01*
X1424Y1925D01*
X1424Y1923D01*
X1428Y1923D01*
X1428Y1921D01*
X1432Y1921D01*
X1432Y1919D01*
X1434Y1919D01*
X1434Y1917D01*
X1438Y1917D01*
X1438Y1915D01*
X1442Y1915D01*
X1442Y1913D01*
X1446Y1913D01*
X1446Y1911D01*
X1450Y1911D01*
X1450Y1909D01*
X1454Y1909D01*
X1454Y1907D01*
X1458Y1907D01*
X1458Y1905D01*
X1460Y1905D01*
X1460Y1903D01*
X1464Y1903D01*
X1464Y1901D01*
X1468Y1901D01*
X1468Y1899D01*
X1472Y1899D01*
X1472Y1897D01*
X1476Y1897D01*
X1476Y1895D01*
X1480Y1895D01*
X1480Y1893D01*
X1484Y1893D01*
X1484Y1891D01*
X1486Y1891D01*
X1486Y1889D01*
X1490Y1889D01*
X1490Y1887D01*
X1494Y1887D01*
X1494Y1885D01*
X1498Y1885D01*
X1498Y1883D01*
X1502Y1883D01*
X1502Y1881D01*
X1506Y1881D01*
X1506Y1879D01*
X1510Y1879D01*
X1510Y1877D01*
X1512Y1877D01*
X1512Y1875D01*
X1516Y1875D01*
X1516Y1873D01*
X1520Y1873D01*
X1520Y1871D01*
X1524Y1871D01*
X1524Y1869D01*
X1528Y1869D01*
X1528Y1867D01*
X1532Y1867D01*
X1532Y1865D01*
X1536Y1865D01*
X1536Y1863D01*
X1538Y1863D01*
X1538Y1861D01*
X1542Y1861D01*
X1542Y1859D01*
X1546Y1859D01*
X1546Y1857D01*
X1550Y1857D01*
X1550Y1855D01*
X1554Y1855D01*
X1554Y1853D01*
X1558Y1853D01*
X1558Y1851D01*
X1562Y1851D01*
X1562Y1849D01*
X1564Y1849D01*
X1564Y1847D01*
X1568Y1847D01*
X1568Y1845D01*
X1572Y1845D01*
X1572Y1843D01*
X1576Y1843D01*
X1576Y1841D01*
X1580Y1841D01*
X1580Y1839D01*
X1584Y1839D01*
X1584Y1837D01*
X1588Y1837D01*
X1588Y1835D01*
X1590Y1835D01*
X1590Y1833D01*
X1594Y1833D01*
X1594Y1831D01*
X1598Y1831D01*
X1598Y1829D01*
X1602Y1829D01*
X1602Y1827D01*
X1606Y1827D01*
X1606Y1825D01*
X1610Y1825D01*
X1610Y1823D01*
X1614Y1823D01*
X1614Y1821D01*
X1616Y1821D01*
X1616Y1819D01*
X1620Y1819D01*
X1620Y1817D01*
X1624Y1817D01*
X1624Y1815D01*
X1628Y1815D01*
X1628Y1813D01*
X1632Y1813D01*
X1632Y1811D01*
X1636Y1811D01*
X1636Y1809D01*
X1640Y1809D01*
X1640Y1807D01*
X1642Y1807D01*
X1642Y1805D01*
X1646Y1805D01*
X1646Y1803D01*
X1650Y1803D01*
X1650Y1801D01*
X1654Y1801D01*
X1654Y1799D01*
X1658Y1799D01*
X1658Y1797D01*
X1662Y1797D01*
X1662Y1795D01*
X1666Y1795D01*
X1666Y1793D01*
X1668Y1793D01*
X1668Y1791D01*
X1672Y1791D01*
X1672Y1789D01*
X1676Y1789D01*
X1676Y1787D01*
X1680Y1787D01*
X1680Y1785D01*
X1684Y1785D01*
X1684Y1783D01*
X1688Y1783D01*
X1688Y1781D01*
X1692Y1781D01*
X1692Y1779D01*
X1694Y1779D01*
X1694Y1777D01*
X1698Y1777D01*
X1698Y1775D01*
X1702Y1775D01*
X1702Y1773D01*
X1706Y1773D01*
X1706Y1771D01*
X1710Y1771D01*
X1710Y1769D01*
X1714Y1769D01*
X1714Y1767D01*
X1718Y1767D01*
X1718Y1765D01*
X1720Y1765D01*
X1720Y1763D01*
X1722Y1763D01*
X1722Y1761D01*
X1724Y1761D01*
X1724Y1759D01*
X1726Y1759D01*
X1726Y1757D01*
X1924Y1757D01*
X1924Y1755D01*
X1930Y1755D01*
X1930Y1753D01*
X1934Y1753D01*
X1934Y1751D01*
X1936Y1751D01*
X1936Y1749D01*
X1940Y1749D01*
X1940Y1747D01*
X1942Y1747D01*
X1942Y1745D01*
X1944Y1745D01*
X1944Y1743D01*
X1946Y1743D01*
X1946Y1741D01*
X1948Y1741D01*
X1948Y1739D01*
X1950Y1739D01*
X1950Y1735D01*
X1952Y1735D01*
X1952Y1731D01*
X1972Y1731D01*
X1972Y1733D01*
X1974Y1733D01*
X1974Y1737D01*
X1976Y1737D01*
X1976Y1741D01*
X1978Y1741D01*
X1978Y1743D01*
X1980Y1743D01*
X1980Y1745D01*
X1982Y1745D01*
X1982Y1747D01*
X1984Y1747D01*
X1984Y1749D01*
X1988Y1749D01*
X1988Y1751D01*
X1990Y1751D01*
X1990Y1779D01*
X1992Y1779D01*
X1992Y2067D01*
X1176Y2067D01*
G37*
D02*
G36*
X1726Y1757D02*
X1726Y1755D01*
X1730Y1755D01*
X1730Y1753D01*
X1734Y1753D01*
X1734Y1751D01*
X1736Y1751D01*
X1736Y1749D01*
X1740Y1749D01*
X1740Y1747D01*
X1742Y1747D01*
X1742Y1745D01*
X1744Y1745D01*
X1744Y1743D01*
X1746Y1743D01*
X1746Y1741D01*
X1748Y1741D01*
X1748Y1739D01*
X1750Y1739D01*
X1750Y1735D01*
X1752Y1735D01*
X1752Y1731D01*
X1772Y1731D01*
X1772Y1733D01*
X1774Y1733D01*
X1774Y1737D01*
X1776Y1737D01*
X1776Y1741D01*
X1778Y1741D01*
X1778Y1743D01*
X1780Y1743D01*
X1780Y1745D01*
X1782Y1745D01*
X1782Y1747D01*
X1784Y1747D01*
X1784Y1749D01*
X1788Y1749D01*
X1788Y1751D01*
X1792Y1751D01*
X1792Y1753D01*
X1794Y1753D01*
X1794Y1755D01*
X1802Y1755D01*
X1802Y1757D01*
X1726Y1757D01*
G37*
D02*
G36*
X1824Y1757D02*
X1824Y1755D01*
X1830Y1755D01*
X1830Y1753D01*
X1834Y1753D01*
X1834Y1751D01*
X1836Y1751D01*
X1836Y1749D01*
X1840Y1749D01*
X1840Y1747D01*
X1842Y1747D01*
X1842Y1745D01*
X1844Y1745D01*
X1844Y1743D01*
X1846Y1743D01*
X1846Y1741D01*
X1848Y1741D01*
X1848Y1739D01*
X1850Y1739D01*
X1850Y1735D01*
X1852Y1735D01*
X1852Y1731D01*
X1872Y1731D01*
X1872Y1733D01*
X1874Y1733D01*
X1874Y1737D01*
X1876Y1737D01*
X1876Y1741D01*
X1878Y1741D01*
X1878Y1743D01*
X1880Y1743D01*
X1880Y1745D01*
X1882Y1745D01*
X1882Y1747D01*
X1884Y1747D01*
X1884Y1749D01*
X1888Y1749D01*
X1888Y1751D01*
X1892Y1751D01*
X1892Y1753D01*
X1894Y1753D01*
X1894Y1755D01*
X1902Y1755D01*
X1902Y1757D01*
X1824Y1757D01*
G37*
D02*
G36*
X982Y1963D02*
X982Y1955D01*
X980Y1955D01*
X980Y1951D01*
X978Y1951D01*
X978Y1947D01*
X976Y1947D01*
X976Y1945D01*
X974Y1945D01*
X974Y1941D01*
X972Y1941D01*
X972Y1939D01*
X970Y1939D01*
X970Y1937D01*
X968Y1937D01*
X968Y1935D01*
X964Y1935D01*
X964Y1933D01*
X960Y1933D01*
X960Y1931D01*
X958Y1931D01*
X958Y1929D01*
X956Y1929D01*
X956Y1909D01*
X960Y1909D01*
X960Y1907D01*
X964Y1907D01*
X964Y1905D01*
X966Y1905D01*
X966Y1903D01*
X970Y1903D01*
X970Y1901D01*
X972Y1901D01*
X972Y1897D01*
X974Y1897D01*
X974Y1895D01*
X976Y1895D01*
X976Y1893D01*
X978Y1893D01*
X978Y1889D01*
X980Y1889D01*
X980Y1885D01*
X982Y1885D01*
X982Y1877D01*
X1004Y1877D01*
X1004Y1885D01*
X1006Y1885D01*
X1006Y1889D01*
X1008Y1889D01*
X1008Y1893D01*
X1010Y1893D01*
X1010Y1895D01*
X1012Y1895D01*
X1012Y1899D01*
X1014Y1899D01*
X1014Y1901D01*
X1016Y1901D01*
X1016Y1903D01*
X1020Y1903D01*
X1020Y1905D01*
X1022Y1905D01*
X1022Y1907D01*
X1026Y1907D01*
X1026Y1909D01*
X1030Y1909D01*
X1030Y1929D01*
X1028Y1929D01*
X1028Y1931D01*
X1024Y1931D01*
X1024Y1933D01*
X1022Y1933D01*
X1022Y1935D01*
X1018Y1935D01*
X1018Y1937D01*
X1016Y1937D01*
X1016Y1939D01*
X1014Y1939D01*
X1014Y1941D01*
X1012Y1941D01*
X1012Y1943D01*
X1010Y1943D01*
X1010Y1947D01*
X1008Y1947D01*
X1008Y1951D01*
X1006Y1951D01*
X1006Y1955D01*
X1004Y1955D01*
X1004Y1961D01*
X1002Y1961D01*
X1002Y1963D01*
X982Y1963D01*
G37*
D02*
G36*
X1086Y1963D02*
X1086Y1955D01*
X1084Y1955D01*
X1084Y1951D01*
X1082Y1951D01*
X1082Y1947D01*
X1080Y1947D01*
X1080Y1945D01*
X1078Y1945D01*
X1078Y1941D01*
X1076Y1941D01*
X1076Y1939D01*
X1074Y1939D01*
X1074Y1937D01*
X1072Y1937D01*
X1072Y1935D01*
X1068Y1935D01*
X1068Y1933D01*
X1064Y1933D01*
X1064Y1931D01*
X1062Y1931D01*
X1062Y1929D01*
X1060Y1929D01*
X1060Y1909D01*
X1064Y1909D01*
X1064Y1907D01*
X1068Y1907D01*
X1068Y1905D01*
X1070Y1905D01*
X1070Y1903D01*
X1072Y1903D01*
X1072Y1901D01*
X1076Y1901D01*
X1076Y1897D01*
X1078Y1897D01*
X1078Y1895D01*
X1080Y1895D01*
X1080Y1893D01*
X1082Y1893D01*
X1082Y1889D01*
X1084Y1889D01*
X1084Y1883D01*
X1086Y1883D01*
X1086Y1877D01*
X1108Y1877D01*
X1108Y1885D01*
X1110Y1885D01*
X1110Y1889D01*
X1112Y1889D01*
X1112Y1893D01*
X1114Y1893D01*
X1114Y1895D01*
X1116Y1895D01*
X1116Y1899D01*
X1118Y1899D01*
X1118Y1901D01*
X1120Y1901D01*
X1120Y1903D01*
X1124Y1903D01*
X1124Y1905D01*
X1126Y1905D01*
X1126Y1907D01*
X1130Y1907D01*
X1130Y1909D01*
X1134Y1909D01*
X1134Y1929D01*
X1132Y1929D01*
X1132Y1931D01*
X1128Y1931D01*
X1128Y1933D01*
X1126Y1933D01*
X1126Y1935D01*
X1122Y1935D01*
X1122Y1937D01*
X1120Y1937D01*
X1120Y1939D01*
X1118Y1939D01*
X1118Y1941D01*
X1116Y1941D01*
X1116Y1943D01*
X1114Y1943D01*
X1114Y1947D01*
X1112Y1947D01*
X1112Y1951D01*
X1110Y1951D01*
X1110Y1955D01*
X1108Y1955D01*
X1108Y1961D01*
X1106Y1961D01*
X1106Y1963D01*
X1086Y1963D01*
G37*
D02*
G36*
X2854Y1303D02*
X2854Y1299D01*
X2852Y1299D01*
X2852Y1295D01*
X2850Y1295D01*
X2850Y1291D01*
X2848Y1291D01*
X2848Y1289D01*
X2846Y1289D01*
X2846Y1287D01*
X2844Y1287D01*
X2844Y1285D01*
X2842Y1285D01*
X2842Y1283D01*
X2840Y1283D01*
X2840Y1281D01*
X2838Y1281D01*
X2838Y1279D01*
X2834Y1279D01*
X2834Y1277D01*
X2830Y1277D01*
X2830Y1275D01*
X2828Y1275D01*
X2828Y1255D01*
X2832Y1255D01*
X2832Y1253D01*
X2836Y1253D01*
X2836Y1251D01*
X2838Y1251D01*
X2838Y1249D01*
X2842Y1249D01*
X2842Y1247D01*
X2844Y1247D01*
X2844Y1245D01*
X2846Y1245D01*
X2846Y1241D01*
X2848Y1241D01*
X2848Y1239D01*
X2850Y1239D01*
X2850Y1235D01*
X2852Y1235D01*
X2852Y1231D01*
X2854Y1231D01*
X2854Y1229D01*
X2874Y1229D01*
X2874Y1235D01*
X2876Y1235D01*
X2876Y1237D01*
X2878Y1237D01*
X2878Y1241D01*
X2880Y1241D01*
X2880Y1243D01*
X2882Y1243D01*
X2882Y1245D01*
X2884Y1245D01*
X2884Y1247D01*
X2886Y1247D01*
X2886Y1249D01*
X2888Y1249D01*
X2888Y1251D01*
X2892Y1251D01*
X2892Y1253D01*
X2894Y1253D01*
X2894Y1255D01*
X2900Y1255D01*
X2900Y1275D01*
X2896Y1275D01*
X2896Y1277D01*
X2894Y1277D01*
X2894Y1279D01*
X2890Y1279D01*
X2890Y1281D01*
X2888Y1281D01*
X2888Y1283D01*
X2884Y1283D01*
X2884Y1285D01*
X2882Y1285D01*
X2882Y1287D01*
X2880Y1287D01*
X2880Y1291D01*
X2878Y1291D01*
X2878Y1293D01*
X2876Y1293D01*
X2876Y1297D01*
X2874Y1297D01*
X2874Y1303D01*
X2854Y1303D01*
G37*
D02*
G36*
X2854Y1203D02*
X2854Y1201D01*
X2852Y1201D01*
X2852Y1197D01*
X2850Y1197D01*
X2850Y1193D01*
X2848Y1193D01*
X2848Y1189D01*
X2846Y1189D01*
X2846Y1187D01*
X2844Y1187D01*
X2844Y1185D01*
X2842Y1185D01*
X2842Y1183D01*
X2838Y1183D01*
X2838Y1181D01*
X2836Y1181D01*
X2836Y1179D01*
X2832Y1179D01*
X2832Y1177D01*
X2828Y1177D01*
X2828Y1157D01*
X2830Y1157D01*
X2830Y1155D01*
X2834Y1155D01*
X2834Y1153D01*
X2838Y1153D01*
X2838Y1151D01*
X2840Y1151D01*
X2840Y1149D01*
X2842Y1149D01*
X2842Y1147D01*
X2844Y1147D01*
X2844Y1145D01*
X2846Y1145D01*
X2846Y1143D01*
X2848Y1143D01*
X2848Y1141D01*
X2850Y1141D01*
X2850Y1137D01*
X2852Y1137D01*
X2852Y1133D01*
X2854Y1133D01*
X2854Y1129D01*
X2874Y1129D01*
X2874Y1135D01*
X2876Y1135D01*
X2876Y1139D01*
X2878Y1139D01*
X2878Y1141D01*
X2880Y1141D01*
X2880Y1145D01*
X2882Y1145D01*
X2882Y1147D01*
X2884Y1147D01*
X2884Y1149D01*
X2888Y1149D01*
X2888Y1151D01*
X2890Y1151D01*
X2890Y1153D01*
X2894Y1153D01*
X2894Y1155D01*
X2898Y1155D01*
X2898Y1157D01*
X2900Y1157D01*
X2900Y1177D01*
X2894Y1177D01*
X2894Y1179D01*
X2890Y1179D01*
X2890Y1181D01*
X2888Y1181D01*
X2888Y1183D01*
X2886Y1183D01*
X2886Y1185D01*
X2884Y1185D01*
X2884Y1187D01*
X2882Y1187D01*
X2882Y1189D01*
X2880Y1189D01*
X2880Y1191D01*
X2878Y1191D01*
X2878Y1195D01*
X2876Y1195D01*
X2876Y1197D01*
X2874Y1197D01*
X2874Y1203D01*
X2854Y1203D01*
G37*
D02*
G36*
X1852Y689D02*
X1852Y685D01*
X1850Y685D01*
X1850Y683D01*
X1848Y683D01*
X1848Y681D01*
X1846Y681D01*
X1846Y679D01*
X1844Y679D01*
X1844Y677D01*
X1842Y677D01*
X1842Y675D01*
X1840Y675D01*
X1840Y673D01*
X1836Y673D01*
X1836Y651D01*
X1840Y651D01*
X1840Y649D01*
X1842Y649D01*
X1842Y647D01*
X1844Y647D01*
X1844Y645D01*
X1846Y645D01*
X1846Y643D01*
X1848Y643D01*
X1848Y641D01*
X1850Y641D01*
X1850Y639D01*
X1852Y639D01*
X1852Y635D01*
X1872Y635D01*
X1872Y637D01*
X1874Y637D01*
X1874Y641D01*
X1876Y641D01*
X1876Y643D01*
X1878Y643D01*
X1878Y645D01*
X1880Y645D01*
X1880Y647D01*
X1882Y647D01*
X1882Y649D01*
X1884Y649D01*
X1884Y651D01*
X1888Y651D01*
X1888Y673D01*
X1886Y673D01*
X1886Y675D01*
X1882Y675D01*
X1882Y677D01*
X1880Y677D01*
X1880Y679D01*
X1878Y679D01*
X1878Y681D01*
X1876Y681D01*
X1876Y683D01*
X1874Y683D01*
X1874Y687D01*
X1872Y687D01*
X1872Y689D01*
X1852Y689D01*
G37*
D02*
G36*
X40Y2959D02*
X40Y2861D01*
X2324Y2861D01*
X2324Y2859D01*
X2330Y2859D01*
X2330Y2857D01*
X2334Y2857D01*
X2334Y2855D01*
X2338Y2855D01*
X2338Y2853D01*
X2340Y2853D01*
X2340Y2851D01*
X2344Y2851D01*
X2344Y2849D01*
X2346Y2849D01*
X2346Y2847D01*
X2348Y2847D01*
X2348Y2845D01*
X2350Y2845D01*
X2350Y2843D01*
X2352Y2843D01*
X2352Y2839D01*
X2354Y2839D01*
X2354Y2835D01*
X2356Y2835D01*
X2356Y2833D01*
X2358Y2833D01*
X2358Y2827D01*
X2360Y2827D01*
X2360Y2817D01*
X2362Y2817D01*
X2362Y2807D01*
X2360Y2807D01*
X2360Y2799D01*
X2358Y2799D01*
X2358Y2793D01*
X2356Y2793D01*
X2356Y2789D01*
X2354Y2789D01*
X2354Y2785D01*
X2352Y2785D01*
X2352Y2783D01*
X2350Y2783D01*
X2350Y2781D01*
X2348Y2781D01*
X2348Y2779D01*
X2346Y2779D01*
X2346Y2777D01*
X2344Y2777D01*
X2344Y2775D01*
X2342Y2775D01*
X2342Y2773D01*
X2340Y2773D01*
X2340Y2751D01*
X2344Y2751D01*
X2344Y2749D01*
X2346Y2749D01*
X2346Y2747D01*
X2348Y2747D01*
X2348Y2745D01*
X2350Y2745D01*
X2350Y2743D01*
X2352Y2743D01*
X2352Y2739D01*
X2354Y2739D01*
X2354Y2735D01*
X2356Y2735D01*
X2356Y2733D01*
X2358Y2733D01*
X2358Y2727D01*
X2360Y2727D01*
X2360Y2717D01*
X2362Y2717D01*
X2362Y2707D01*
X2360Y2707D01*
X2360Y2699D01*
X2358Y2699D01*
X2358Y2693D01*
X2356Y2693D01*
X2356Y2689D01*
X2354Y2689D01*
X2354Y2685D01*
X2352Y2685D01*
X2352Y2683D01*
X2350Y2683D01*
X2350Y2681D01*
X2348Y2681D01*
X2348Y2679D01*
X2346Y2679D01*
X2346Y2677D01*
X2344Y2677D01*
X2344Y2675D01*
X2342Y2675D01*
X2342Y2673D01*
X2340Y2673D01*
X2340Y2671D01*
X2336Y2671D01*
X2336Y2669D01*
X2332Y2669D01*
X2332Y2667D01*
X2326Y2667D01*
X2326Y2665D01*
X2318Y2665D01*
X2318Y2663D01*
X3442Y2663D01*
X3442Y2959D01*
X40Y2959D01*
G37*
D02*
G36*
X40Y2861D02*
X40Y2393D01*
X1564Y2393D01*
X1564Y2475D01*
X1566Y2475D01*
X1566Y2477D01*
X1590Y2477D01*
X1590Y2669D01*
X1588Y2669D01*
X1588Y2671D01*
X1584Y2671D01*
X1584Y2673D01*
X1582Y2673D01*
X1582Y2675D01*
X1580Y2675D01*
X1580Y2677D01*
X1578Y2677D01*
X1578Y2679D01*
X1576Y2679D01*
X1576Y2681D01*
X1574Y2681D01*
X1574Y2683D01*
X1572Y2683D01*
X1572Y2687D01*
X1570Y2687D01*
X1570Y2691D01*
X1568Y2691D01*
X1568Y2693D01*
X1566Y2693D01*
X1566Y2701D01*
X1564Y2701D01*
X1564Y2725D01*
X1566Y2725D01*
X1566Y2731D01*
X1568Y2731D01*
X1568Y2735D01*
X1570Y2735D01*
X1570Y2739D01*
X1572Y2739D01*
X1572Y2741D01*
X1574Y2741D01*
X1574Y2743D01*
X1576Y2743D01*
X1576Y2747D01*
X1578Y2747D01*
X1578Y2749D01*
X1582Y2749D01*
X1582Y2751D01*
X1584Y2751D01*
X1584Y2773D01*
X1582Y2773D01*
X1582Y2775D01*
X1580Y2775D01*
X1580Y2777D01*
X1578Y2777D01*
X1578Y2779D01*
X1576Y2779D01*
X1576Y2781D01*
X1574Y2781D01*
X1574Y2783D01*
X1572Y2783D01*
X1572Y2787D01*
X1570Y2787D01*
X1570Y2791D01*
X1568Y2791D01*
X1568Y2793D01*
X1566Y2793D01*
X1566Y2801D01*
X1564Y2801D01*
X1564Y2825D01*
X1566Y2825D01*
X1566Y2831D01*
X1568Y2831D01*
X1568Y2835D01*
X1570Y2835D01*
X1570Y2839D01*
X1572Y2839D01*
X1572Y2841D01*
X1574Y2841D01*
X1574Y2843D01*
X1576Y2843D01*
X1576Y2847D01*
X1578Y2847D01*
X1578Y2849D01*
X1582Y2849D01*
X1582Y2851D01*
X1584Y2851D01*
X1584Y2853D01*
X1586Y2853D01*
X1586Y2855D01*
X1590Y2855D01*
X1590Y2857D01*
X1594Y2857D01*
X1594Y2859D01*
X1602Y2859D01*
X1602Y2861D01*
X40Y2861D01*
G37*
D02*
G36*
X1624Y2861D02*
X1624Y2859D01*
X1630Y2859D01*
X1630Y2857D01*
X1634Y2857D01*
X1634Y2855D01*
X1638Y2855D01*
X1638Y2853D01*
X1640Y2853D01*
X1640Y2851D01*
X1644Y2851D01*
X1644Y2849D01*
X1646Y2849D01*
X1646Y2847D01*
X1648Y2847D01*
X1648Y2845D01*
X1650Y2845D01*
X1650Y2843D01*
X1652Y2843D01*
X1652Y2839D01*
X1672Y2839D01*
X1672Y2841D01*
X1674Y2841D01*
X1674Y2843D01*
X1676Y2843D01*
X1676Y2847D01*
X1678Y2847D01*
X1678Y2849D01*
X1682Y2849D01*
X1682Y2851D01*
X1684Y2851D01*
X1684Y2853D01*
X1686Y2853D01*
X1686Y2855D01*
X1690Y2855D01*
X1690Y2857D01*
X1694Y2857D01*
X1694Y2859D01*
X1702Y2859D01*
X1702Y2861D01*
X1624Y2861D01*
G37*
D02*
G36*
X1724Y2861D02*
X1724Y2859D01*
X1730Y2859D01*
X1730Y2857D01*
X1734Y2857D01*
X1734Y2855D01*
X1738Y2855D01*
X1738Y2853D01*
X1740Y2853D01*
X1740Y2851D01*
X1744Y2851D01*
X1744Y2849D01*
X1746Y2849D01*
X1746Y2847D01*
X1748Y2847D01*
X1748Y2845D01*
X1750Y2845D01*
X1750Y2843D01*
X1752Y2843D01*
X1752Y2839D01*
X1772Y2839D01*
X1772Y2841D01*
X1774Y2841D01*
X1774Y2843D01*
X1776Y2843D01*
X1776Y2847D01*
X1778Y2847D01*
X1778Y2849D01*
X1782Y2849D01*
X1782Y2851D01*
X1784Y2851D01*
X1784Y2853D01*
X1786Y2853D01*
X1786Y2855D01*
X1790Y2855D01*
X1790Y2857D01*
X1794Y2857D01*
X1794Y2859D01*
X1802Y2859D01*
X1802Y2861D01*
X1724Y2861D01*
G37*
D02*
G36*
X1824Y2861D02*
X1824Y2859D01*
X1830Y2859D01*
X1830Y2857D01*
X1834Y2857D01*
X1834Y2855D01*
X1838Y2855D01*
X1838Y2853D01*
X1840Y2853D01*
X1840Y2851D01*
X1844Y2851D01*
X1844Y2849D01*
X1846Y2849D01*
X1846Y2847D01*
X1848Y2847D01*
X1848Y2845D01*
X1850Y2845D01*
X1850Y2843D01*
X1852Y2843D01*
X1852Y2839D01*
X1872Y2839D01*
X1872Y2841D01*
X1874Y2841D01*
X1874Y2843D01*
X1876Y2843D01*
X1876Y2847D01*
X1878Y2847D01*
X1878Y2849D01*
X1882Y2849D01*
X1882Y2851D01*
X1884Y2851D01*
X1884Y2853D01*
X1886Y2853D01*
X1886Y2855D01*
X1890Y2855D01*
X1890Y2857D01*
X1894Y2857D01*
X1894Y2859D01*
X1902Y2859D01*
X1902Y2861D01*
X1824Y2861D01*
G37*
D02*
G36*
X1924Y2861D02*
X1924Y2859D01*
X1930Y2859D01*
X1930Y2857D01*
X1934Y2857D01*
X1934Y2855D01*
X1938Y2855D01*
X1938Y2853D01*
X1940Y2853D01*
X1940Y2851D01*
X1944Y2851D01*
X1944Y2849D01*
X1946Y2849D01*
X1946Y2847D01*
X1948Y2847D01*
X1948Y2845D01*
X1950Y2845D01*
X1950Y2843D01*
X1952Y2843D01*
X1952Y2839D01*
X1954Y2839D01*
X1954Y2835D01*
X1956Y2835D01*
X1956Y2833D01*
X1958Y2833D01*
X1958Y2827D01*
X1960Y2827D01*
X1960Y2817D01*
X1962Y2817D01*
X1962Y2807D01*
X1960Y2807D01*
X1960Y2799D01*
X1958Y2799D01*
X1958Y2793D01*
X1956Y2793D01*
X1956Y2789D01*
X1954Y2789D01*
X1954Y2785D01*
X1952Y2785D01*
X1952Y2783D01*
X1950Y2783D01*
X1950Y2781D01*
X1948Y2781D01*
X1948Y2779D01*
X1946Y2779D01*
X1946Y2777D01*
X1944Y2777D01*
X1944Y2775D01*
X1942Y2775D01*
X1942Y2773D01*
X1940Y2773D01*
X1940Y2751D01*
X1944Y2751D01*
X1944Y2749D01*
X1946Y2749D01*
X1946Y2747D01*
X1948Y2747D01*
X1948Y2745D01*
X1950Y2745D01*
X1950Y2743D01*
X1952Y2743D01*
X1952Y2739D01*
X1954Y2739D01*
X1954Y2735D01*
X1956Y2735D01*
X1956Y2733D01*
X1958Y2733D01*
X1958Y2727D01*
X1960Y2727D01*
X1960Y2717D01*
X1962Y2717D01*
X1962Y2707D01*
X1960Y2707D01*
X1960Y2699D01*
X1958Y2699D01*
X1958Y2693D01*
X1956Y2693D01*
X1956Y2689D01*
X1954Y2689D01*
X1954Y2685D01*
X1952Y2685D01*
X1952Y2683D01*
X1950Y2683D01*
X1950Y2681D01*
X1948Y2681D01*
X1948Y2679D01*
X1946Y2679D01*
X1946Y2677D01*
X1944Y2677D01*
X1944Y2675D01*
X1942Y2675D01*
X1942Y2673D01*
X1940Y2673D01*
X1940Y2671D01*
X1936Y2671D01*
X1936Y2669D01*
X1934Y2669D01*
X1934Y2477D01*
X1958Y2477D01*
X1958Y2475D01*
X1960Y2475D01*
X1960Y2393D01*
X2030Y2393D01*
X2030Y2395D01*
X2032Y2395D01*
X2032Y2399D01*
X2034Y2399D01*
X2034Y2403D01*
X2036Y2403D01*
X2036Y2407D01*
X2038Y2407D01*
X2038Y2411D01*
X2040Y2411D01*
X2040Y2415D01*
X2042Y2415D01*
X2042Y2419D01*
X2044Y2419D01*
X2044Y2423D01*
X2046Y2423D01*
X2046Y2427D01*
X2048Y2427D01*
X2048Y2431D01*
X2050Y2431D01*
X2050Y2435D01*
X2052Y2435D01*
X2052Y2441D01*
X2054Y2441D01*
X2054Y2445D01*
X2056Y2445D01*
X2056Y2449D01*
X2058Y2449D01*
X2058Y2453D01*
X2060Y2453D01*
X2060Y2457D01*
X2062Y2457D01*
X2062Y2461D01*
X2064Y2461D01*
X2064Y2465D01*
X2066Y2465D01*
X2066Y2469D01*
X2068Y2469D01*
X2068Y2473D01*
X2070Y2473D01*
X2070Y2477D01*
X2072Y2477D01*
X2072Y2481D01*
X2074Y2481D01*
X2074Y2485D01*
X2076Y2485D01*
X2076Y2489D01*
X2078Y2489D01*
X2078Y2493D01*
X2080Y2493D01*
X2080Y2497D01*
X2082Y2497D01*
X2082Y2501D01*
X2084Y2501D01*
X2084Y2505D01*
X2086Y2505D01*
X2086Y2509D01*
X2088Y2509D01*
X2088Y2513D01*
X2090Y2513D01*
X2090Y2517D01*
X2092Y2517D01*
X2092Y2521D01*
X2094Y2521D01*
X2094Y2525D01*
X2096Y2525D01*
X2096Y2529D01*
X2098Y2529D01*
X2098Y2533D01*
X2100Y2533D01*
X2100Y2537D01*
X2102Y2537D01*
X2102Y2541D01*
X2104Y2541D01*
X2104Y2545D01*
X2106Y2545D01*
X2106Y2549D01*
X2108Y2549D01*
X2108Y2553D01*
X2110Y2553D01*
X2110Y2557D01*
X2112Y2557D01*
X2112Y2561D01*
X2114Y2561D01*
X2114Y2565D01*
X2116Y2565D01*
X2116Y2569D01*
X2118Y2569D01*
X2118Y2573D01*
X2120Y2573D01*
X2120Y2577D01*
X2122Y2577D01*
X2122Y2581D01*
X2124Y2581D01*
X2124Y2585D01*
X2126Y2585D01*
X2126Y2589D01*
X2128Y2589D01*
X2128Y2593D01*
X2130Y2593D01*
X2130Y2597D01*
X2132Y2597D01*
X2132Y2601D01*
X2134Y2601D01*
X2134Y2605D01*
X2136Y2605D01*
X2136Y2609D01*
X2138Y2609D01*
X2138Y2613D01*
X2140Y2613D01*
X2140Y2617D01*
X2142Y2617D01*
X2142Y2623D01*
X2144Y2623D01*
X2144Y2627D01*
X2146Y2627D01*
X2146Y2631D01*
X2148Y2631D01*
X2148Y2635D01*
X2150Y2635D01*
X2150Y2639D01*
X2152Y2639D01*
X2152Y2643D01*
X2154Y2643D01*
X2154Y2647D01*
X2156Y2647D01*
X2156Y2651D01*
X2158Y2651D01*
X2158Y2655D01*
X2160Y2655D01*
X2160Y2659D01*
X2162Y2659D01*
X2162Y2663D01*
X2164Y2663D01*
X2164Y2667D01*
X2166Y2667D01*
X2166Y2671D01*
X2168Y2671D01*
X2168Y2693D01*
X2166Y2693D01*
X2166Y2701D01*
X2164Y2701D01*
X2164Y2725D01*
X2166Y2725D01*
X2166Y2731D01*
X2168Y2731D01*
X2168Y2735D01*
X2170Y2735D01*
X2170Y2739D01*
X2172Y2739D01*
X2172Y2741D01*
X2174Y2741D01*
X2174Y2743D01*
X2176Y2743D01*
X2176Y2747D01*
X2178Y2747D01*
X2178Y2749D01*
X2182Y2749D01*
X2182Y2751D01*
X2184Y2751D01*
X2184Y2773D01*
X2182Y2773D01*
X2182Y2775D01*
X2180Y2775D01*
X2180Y2777D01*
X2178Y2777D01*
X2178Y2779D01*
X2176Y2779D01*
X2176Y2781D01*
X2174Y2781D01*
X2174Y2783D01*
X2172Y2783D01*
X2172Y2787D01*
X2170Y2787D01*
X2170Y2791D01*
X2168Y2791D01*
X2168Y2793D01*
X2166Y2793D01*
X2166Y2801D01*
X2164Y2801D01*
X2164Y2825D01*
X2166Y2825D01*
X2166Y2831D01*
X2168Y2831D01*
X2168Y2835D01*
X2170Y2835D01*
X2170Y2839D01*
X2172Y2839D01*
X2172Y2841D01*
X2174Y2841D01*
X2174Y2843D01*
X2176Y2843D01*
X2176Y2847D01*
X2178Y2847D01*
X2178Y2849D01*
X2182Y2849D01*
X2182Y2851D01*
X2184Y2851D01*
X2184Y2853D01*
X2186Y2853D01*
X2186Y2855D01*
X2190Y2855D01*
X2190Y2857D01*
X2194Y2857D01*
X2194Y2859D01*
X2202Y2859D01*
X2202Y2861D01*
X1924Y2861D01*
G37*
D02*
G36*
X2224Y2861D02*
X2224Y2859D01*
X2230Y2859D01*
X2230Y2857D01*
X2234Y2857D01*
X2234Y2855D01*
X2238Y2855D01*
X2238Y2853D01*
X2240Y2853D01*
X2240Y2851D01*
X2244Y2851D01*
X2244Y2849D01*
X2246Y2849D01*
X2246Y2847D01*
X2248Y2847D01*
X2248Y2845D01*
X2250Y2845D01*
X2250Y2843D01*
X2252Y2843D01*
X2252Y2839D01*
X2272Y2839D01*
X2272Y2841D01*
X2274Y2841D01*
X2274Y2843D01*
X2276Y2843D01*
X2276Y2847D01*
X2278Y2847D01*
X2278Y2849D01*
X2282Y2849D01*
X2282Y2851D01*
X2284Y2851D01*
X2284Y2853D01*
X2286Y2853D01*
X2286Y2855D01*
X2290Y2855D01*
X2290Y2857D01*
X2294Y2857D01*
X2294Y2859D01*
X2302Y2859D01*
X2302Y2861D01*
X2224Y2861D01*
G37*
D02*
G36*
X2252Y2685D02*
X2252Y2683D01*
X2250Y2683D01*
X2250Y2681D01*
X2248Y2681D01*
X2248Y2679D01*
X2246Y2679D01*
X2246Y2677D01*
X2244Y2677D01*
X2244Y2675D01*
X2242Y2675D01*
X2242Y2673D01*
X2240Y2673D01*
X2240Y2671D01*
X2236Y2671D01*
X2236Y2669D01*
X2232Y2669D01*
X2232Y2667D01*
X2226Y2667D01*
X2226Y2665D01*
X2218Y2665D01*
X2218Y2663D01*
X2306Y2663D01*
X2306Y2665D01*
X2298Y2665D01*
X2298Y2667D01*
X2292Y2667D01*
X2292Y2669D01*
X2288Y2669D01*
X2288Y2671D01*
X2284Y2671D01*
X2284Y2673D01*
X2282Y2673D01*
X2282Y2675D01*
X2280Y2675D01*
X2280Y2677D01*
X2278Y2677D01*
X2278Y2679D01*
X2276Y2679D01*
X2276Y2681D01*
X2274Y2681D01*
X2274Y2683D01*
X2272Y2683D01*
X2272Y2685D01*
X2252Y2685D01*
G37*
D02*
G36*
X2212Y2663D02*
X2212Y2661D01*
X3442Y2661D01*
X3442Y2663D01*
X2212Y2663D01*
G37*
D02*
G36*
X2212Y2663D02*
X2212Y2661D01*
X3442Y2661D01*
X3442Y2663D01*
X2212Y2663D01*
G37*
D02*
G36*
X2210Y2661D02*
X2210Y2657D01*
X2208Y2657D01*
X2208Y2653D01*
X2206Y2653D01*
X2206Y2649D01*
X2204Y2649D01*
X2204Y2645D01*
X2202Y2645D01*
X2202Y2639D01*
X2200Y2639D01*
X2200Y2635D01*
X2198Y2635D01*
X2198Y2631D01*
X2196Y2631D01*
X2196Y2627D01*
X2194Y2627D01*
X2194Y2623D01*
X2192Y2623D01*
X2192Y2619D01*
X2190Y2619D01*
X2190Y2615D01*
X2188Y2615D01*
X2188Y2611D01*
X2186Y2611D01*
X2186Y2607D01*
X2184Y2607D01*
X2184Y2603D01*
X2182Y2603D01*
X2182Y2599D01*
X2180Y2599D01*
X2180Y2595D01*
X2178Y2595D01*
X2178Y2591D01*
X2176Y2591D01*
X2176Y2587D01*
X2174Y2587D01*
X2174Y2583D01*
X2172Y2583D01*
X2172Y2579D01*
X2170Y2579D01*
X2170Y2575D01*
X2168Y2575D01*
X2168Y2571D01*
X2166Y2571D01*
X2166Y2567D01*
X2164Y2567D01*
X2164Y2563D01*
X2162Y2563D01*
X2162Y2559D01*
X2160Y2559D01*
X2160Y2555D01*
X2158Y2555D01*
X2158Y2551D01*
X2156Y2551D01*
X2156Y2547D01*
X2154Y2547D01*
X2154Y2543D01*
X2152Y2543D01*
X2152Y2539D01*
X2150Y2539D01*
X2150Y2535D01*
X2148Y2535D01*
X2148Y2531D01*
X2146Y2531D01*
X2146Y2527D01*
X2144Y2527D01*
X2144Y2523D01*
X2142Y2523D01*
X2142Y2519D01*
X2140Y2519D01*
X2140Y2515D01*
X2138Y2515D01*
X2138Y2511D01*
X2136Y2511D01*
X2136Y2507D01*
X2134Y2507D01*
X2134Y2503D01*
X2132Y2503D01*
X2132Y2499D01*
X2130Y2499D01*
X2130Y2495D01*
X2128Y2495D01*
X2128Y2491D01*
X2126Y2491D01*
X2126Y2487D01*
X2124Y2487D01*
X2124Y2483D01*
X2122Y2483D01*
X2122Y2479D01*
X2120Y2479D01*
X2120Y2475D01*
X2118Y2475D01*
X2118Y2471D01*
X2116Y2471D01*
X2116Y2467D01*
X2114Y2467D01*
X2114Y2463D01*
X2112Y2463D01*
X2112Y2457D01*
X2110Y2457D01*
X2110Y2453D01*
X2108Y2453D01*
X2108Y2449D01*
X2106Y2449D01*
X2106Y2445D01*
X2104Y2445D01*
X2104Y2441D01*
X2102Y2441D01*
X2102Y2437D01*
X2100Y2437D01*
X2100Y2433D01*
X2098Y2433D01*
X2098Y2429D01*
X2096Y2429D01*
X2096Y2425D01*
X2094Y2425D01*
X2094Y2421D01*
X2092Y2421D01*
X2092Y2417D01*
X2090Y2417D01*
X2090Y2413D01*
X2088Y2413D01*
X2088Y2409D01*
X2086Y2409D01*
X2086Y2405D01*
X2084Y2405D01*
X2084Y2401D01*
X2082Y2401D01*
X2082Y2397D01*
X2080Y2397D01*
X2080Y2393D01*
X2078Y2393D01*
X2078Y2389D01*
X2076Y2389D01*
X2076Y2385D01*
X2074Y2385D01*
X2074Y2381D01*
X2072Y2381D01*
X2072Y2377D01*
X2070Y2377D01*
X2070Y2373D01*
X2068Y2373D01*
X2068Y2369D01*
X2066Y2369D01*
X2066Y2365D01*
X2064Y2365D01*
X2064Y2361D01*
X2062Y2361D01*
X2062Y2357D01*
X2060Y2357D01*
X2060Y2353D01*
X2058Y2353D01*
X2058Y2349D01*
X2056Y2349D01*
X2056Y2345D01*
X2054Y2345D01*
X2054Y2341D01*
X2052Y2341D01*
X2052Y2339D01*
X3226Y2339D01*
X3226Y2337D01*
X3230Y2337D01*
X3230Y2335D01*
X3232Y2335D01*
X3232Y2333D01*
X3234Y2333D01*
X3234Y2331D01*
X3236Y2331D01*
X3236Y2327D01*
X3238Y2327D01*
X3238Y1981D01*
X3236Y1981D01*
X3236Y1635D01*
X3234Y1635D01*
X3234Y1561D01*
X3324Y1561D01*
X3324Y1559D01*
X3330Y1559D01*
X3330Y1557D01*
X3334Y1557D01*
X3334Y1555D01*
X3338Y1555D01*
X3338Y1553D01*
X3340Y1553D01*
X3340Y1551D01*
X3344Y1551D01*
X3344Y1549D01*
X3346Y1549D01*
X3346Y1547D01*
X3348Y1547D01*
X3348Y1545D01*
X3350Y1545D01*
X3350Y1543D01*
X3352Y1543D01*
X3352Y1539D01*
X3354Y1539D01*
X3354Y1535D01*
X3356Y1535D01*
X3356Y1533D01*
X3358Y1533D01*
X3358Y1527D01*
X3360Y1527D01*
X3360Y1517D01*
X3362Y1517D01*
X3362Y1507D01*
X3360Y1507D01*
X3360Y1499D01*
X3358Y1499D01*
X3358Y1493D01*
X3356Y1493D01*
X3356Y1489D01*
X3354Y1489D01*
X3354Y1485D01*
X3352Y1485D01*
X3352Y1483D01*
X3350Y1483D01*
X3350Y1481D01*
X3348Y1481D01*
X3348Y1479D01*
X3346Y1479D01*
X3346Y1477D01*
X3344Y1477D01*
X3344Y1475D01*
X3342Y1475D01*
X3342Y1473D01*
X3340Y1473D01*
X3340Y1471D01*
X3336Y1471D01*
X3336Y1469D01*
X3332Y1469D01*
X3332Y1467D01*
X3326Y1467D01*
X3326Y1465D01*
X3318Y1465D01*
X3318Y1463D01*
X3442Y1463D01*
X3442Y2661D01*
X2210Y2661D01*
G37*
D02*
G36*
X40Y2393D02*
X40Y2391D01*
X2030Y2391D01*
X2030Y2393D01*
X40Y2393D01*
G37*
D02*
G36*
X40Y2393D02*
X40Y2391D01*
X2030Y2391D01*
X2030Y2393D01*
X40Y2393D01*
G37*
D02*
G36*
X40Y2391D02*
X40Y2355D01*
X1958Y2355D01*
X1958Y2353D01*
X1960Y2353D01*
X1960Y2271D01*
X1922Y2271D01*
X1922Y2263D01*
X1920Y2263D01*
X1920Y2257D01*
X1918Y2257D01*
X1918Y2249D01*
X1916Y2249D01*
X1916Y2243D01*
X1914Y2243D01*
X1914Y2235D01*
X1912Y2235D01*
X1912Y2229D01*
X1910Y2229D01*
X1910Y2221D01*
X1908Y2221D01*
X1908Y2215D01*
X1906Y2215D01*
X1906Y2207D01*
X1904Y2207D01*
X1904Y2201D01*
X1902Y2201D01*
X1902Y2193D01*
X1900Y2193D01*
X1900Y2187D01*
X1898Y2187D01*
X1898Y2179D01*
X1896Y2179D01*
X1896Y2173D01*
X1894Y2173D01*
X1894Y2165D01*
X1892Y2165D01*
X1892Y2159D01*
X1890Y2159D01*
X1890Y2155D01*
X1964Y2155D01*
X1964Y2153D01*
X1970Y2153D01*
X1970Y2151D01*
X1992Y2151D01*
X1992Y2317D01*
X1994Y2317D01*
X1994Y2323D01*
X1996Y2323D01*
X1996Y2327D01*
X1998Y2327D01*
X1998Y2331D01*
X2000Y2331D01*
X2000Y2335D01*
X2002Y2335D01*
X2002Y2339D01*
X2004Y2339D01*
X2004Y2343D01*
X2006Y2343D01*
X2006Y2347D01*
X2008Y2347D01*
X2008Y2351D01*
X2010Y2351D01*
X2010Y2355D01*
X2012Y2355D01*
X2012Y2359D01*
X2014Y2359D01*
X2014Y2363D01*
X2016Y2363D01*
X2016Y2367D01*
X2018Y2367D01*
X2018Y2371D01*
X2020Y2371D01*
X2020Y2375D01*
X2022Y2375D01*
X2022Y2379D01*
X2024Y2379D01*
X2024Y2383D01*
X2026Y2383D01*
X2026Y2387D01*
X2028Y2387D01*
X2028Y2391D01*
X40Y2391D01*
G37*
D02*
G36*
X40Y2355D02*
X40Y2155D01*
X1364Y2155D01*
X1364Y2153D01*
X1370Y2153D01*
X1370Y2151D01*
X1374Y2151D01*
X1374Y2149D01*
X1378Y2149D01*
X1378Y2147D01*
X1380Y2147D01*
X1380Y2145D01*
X1384Y2145D01*
X1384Y2143D01*
X1386Y2143D01*
X1386Y2141D01*
X1388Y2141D01*
X1388Y2137D01*
X1390Y2137D01*
X1390Y2135D01*
X1392Y2135D01*
X1392Y2131D01*
X1394Y2131D01*
X1394Y2125D01*
X1414Y2125D01*
X1414Y2127D01*
X1416Y2127D01*
X1416Y2131D01*
X1418Y2131D01*
X1418Y2135D01*
X1420Y2135D01*
X1420Y2139D01*
X1422Y2139D01*
X1422Y2141D01*
X1424Y2141D01*
X1424Y2143D01*
X1426Y2143D01*
X1426Y2145D01*
X1428Y2145D01*
X1428Y2147D01*
X1432Y2147D01*
X1432Y2149D01*
X1434Y2149D01*
X1434Y2151D01*
X1438Y2151D01*
X1438Y2153D01*
X1446Y2153D01*
X1446Y2155D01*
X1462Y2155D01*
X1462Y2159D01*
X1464Y2159D01*
X1464Y2161D01*
X1466Y2161D01*
X1466Y2163D01*
X1468Y2163D01*
X1468Y2167D01*
X1470Y2167D01*
X1470Y2169D01*
X1472Y2169D01*
X1472Y2171D01*
X1474Y2171D01*
X1474Y2173D01*
X1476Y2173D01*
X1476Y2177D01*
X1478Y2177D01*
X1478Y2179D01*
X1480Y2179D01*
X1480Y2181D01*
X1482Y2181D01*
X1482Y2183D01*
X1484Y2183D01*
X1484Y2187D01*
X1486Y2187D01*
X1486Y2189D01*
X1488Y2189D01*
X1488Y2191D01*
X1490Y2191D01*
X1490Y2195D01*
X1492Y2195D01*
X1492Y2197D01*
X1494Y2197D01*
X1494Y2199D01*
X1496Y2199D01*
X1496Y2201D01*
X1498Y2201D01*
X1498Y2205D01*
X1500Y2205D01*
X1500Y2207D01*
X1502Y2207D01*
X1502Y2209D01*
X1504Y2209D01*
X1504Y2211D01*
X1506Y2211D01*
X1506Y2215D01*
X1508Y2215D01*
X1508Y2217D01*
X1510Y2217D01*
X1510Y2219D01*
X1512Y2219D01*
X1512Y2223D01*
X1514Y2223D01*
X1514Y2225D01*
X1516Y2225D01*
X1516Y2227D01*
X1518Y2227D01*
X1518Y2229D01*
X1520Y2229D01*
X1520Y2233D01*
X1522Y2233D01*
X1522Y2235D01*
X1524Y2235D01*
X1524Y2237D01*
X1526Y2237D01*
X1526Y2239D01*
X1528Y2239D01*
X1528Y2243D01*
X1530Y2243D01*
X1530Y2245D01*
X1532Y2245D01*
X1532Y2247D01*
X1534Y2247D01*
X1534Y2249D01*
X1536Y2249D01*
X1536Y2253D01*
X1538Y2253D01*
X1538Y2255D01*
X1540Y2255D01*
X1540Y2257D01*
X1542Y2257D01*
X1542Y2261D01*
X1544Y2261D01*
X1544Y2263D01*
X1546Y2263D01*
X1546Y2265D01*
X1548Y2265D01*
X1548Y2267D01*
X1550Y2267D01*
X1550Y2271D01*
X1552Y2271D01*
X1552Y2273D01*
X1554Y2273D01*
X1554Y2275D01*
X1556Y2275D01*
X1556Y2277D01*
X1558Y2277D01*
X1558Y2281D01*
X1560Y2281D01*
X1560Y2283D01*
X1562Y2283D01*
X1562Y2285D01*
X1564Y2285D01*
X1564Y2353D01*
X1566Y2353D01*
X1566Y2355D01*
X40Y2355D01*
G37*
D02*
G36*
X2052Y2339D02*
X2052Y2337D01*
X2050Y2337D01*
X2050Y2333D01*
X2048Y2333D01*
X2048Y2329D01*
X2046Y2329D01*
X2046Y2325D01*
X2044Y2325D01*
X2044Y2321D01*
X2042Y2321D01*
X2042Y2317D01*
X2040Y2317D01*
X2040Y2313D01*
X2038Y2313D01*
X2038Y2309D01*
X2036Y2309D01*
X2036Y2155D01*
X2224Y2155D01*
X2224Y2153D01*
X2230Y2153D01*
X2230Y2151D01*
X2234Y2151D01*
X2234Y2149D01*
X2238Y2149D01*
X2238Y2147D01*
X2240Y2147D01*
X2240Y2145D01*
X2244Y2145D01*
X2244Y2143D01*
X2246Y2143D01*
X2246Y2141D01*
X2248Y2141D01*
X2248Y2137D01*
X2250Y2137D01*
X2250Y2135D01*
X2252Y2135D01*
X2252Y2131D01*
X2254Y2131D01*
X2254Y2125D01*
X2274Y2125D01*
X2274Y2127D01*
X2276Y2127D01*
X2276Y2131D01*
X2278Y2131D01*
X2278Y2135D01*
X2280Y2135D01*
X2280Y2139D01*
X2282Y2139D01*
X2282Y2141D01*
X2284Y2141D01*
X2284Y2143D01*
X2286Y2143D01*
X2286Y2145D01*
X2288Y2145D01*
X2288Y2147D01*
X2292Y2147D01*
X2292Y2149D01*
X2294Y2149D01*
X2294Y2151D01*
X2298Y2151D01*
X2298Y2153D01*
X2306Y2153D01*
X2306Y2155D01*
X2312Y2155D01*
X2312Y2159D01*
X2314Y2159D01*
X2314Y2163D01*
X2316Y2163D01*
X2316Y2167D01*
X2318Y2167D01*
X2318Y2171D01*
X2320Y2171D01*
X2320Y2175D01*
X2322Y2175D01*
X2322Y2179D01*
X2324Y2179D01*
X2324Y2183D01*
X2326Y2183D01*
X2326Y2187D01*
X2328Y2187D01*
X2328Y2191D01*
X2330Y2191D01*
X2330Y2195D01*
X2332Y2195D01*
X2332Y2199D01*
X2334Y2199D01*
X2334Y2203D01*
X2336Y2203D01*
X2336Y2207D01*
X2338Y2207D01*
X2338Y2211D01*
X2340Y2211D01*
X2340Y2215D01*
X2342Y2215D01*
X2342Y2219D01*
X2344Y2219D01*
X2344Y2223D01*
X2346Y2223D01*
X2346Y2227D01*
X2348Y2227D01*
X2348Y2231D01*
X2350Y2231D01*
X2350Y2235D01*
X2352Y2235D01*
X2352Y2239D01*
X2354Y2239D01*
X2354Y2243D01*
X2356Y2243D01*
X2356Y2247D01*
X2358Y2247D01*
X2358Y2251D01*
X2360Y2251D01*
X2360Y2257D01*
X2362Y2257D01*
X2362Y2261D01*
X2364Y2261D01*
X2364Y2265D01*
X2366Y2265D01*
X2366Y2269D01*
X2368Y2269D01*
X2368Y2273D01*
X2370Y2273D01*
X2370Y2277D01*
X2372Y2277D01*
X2372Y2281D01*
X2374Y2281D01*
X2374Y2285D01*
X2376Y2285D01*
X2376Y2289D01*
X2378Y2289D01*
X2378Y2293D01*
X2380Y2293D01*
X2380Y2297D01*
X2382Y2297D01*
X2382Y2301D01*
X2384Y2301D01*
X2384Y2305D01*
X2386Y2305D01*
X2386Y2309D01*
X2388Y2309D01*
X2388Y2313D01*
X2390Y2313D01*
X2390Y2317D01*
X2392Y2317D01*
X2392Y2321D01*
X2394Y2321D01*
X2394Y2325D01*
X2396Y2325D01*
X2396Y2327D01*
X2398Y2327D01*
X2398Y2329D01*
X2400Y2329D01*
X2400Y2331D01*
X2402Y2331D01*
X2402Y2333D01*
X2408Y2333D01*
X2408Y2335D01*
X2574Y2335D01*
X2574Y2337D01*
X2922Y2337D01*
X2922Y2339D01*
X2052Y2339D01*
G37*
D02*
G36*
X2924Y2295D02*
X2924Y2293D01*
X2576Y2293D01*
X2576Y2291D01*
X2426Y2291D01*
X2426Y2287D01*
X2424Y2287D01*
X2424Y2283D01*
X2422Y2283D01*
X2422Y2279D01*
X2420Y2279D01*
X2420Y2275D01*
X2418Y2275D01*
X2418Y2271D01*
X2416Y2271D01*
X2416Y2267D01*
X2414Y2267D01*
X2414Y2261D01*
X2412Y2261D01*
X2412Y2257D01*
X2410Y2257D01*
X2410Y2253D01*
X2408Y2253D01*
X2408Y2249D01*
X2406Y2249D01*
X2406Y2245D01*
X2404Y2245D01*
X2404Y2241D01*
X2402Y2241D01*
X2402Y2237D01*
X2400Y2237D01*
X2400Y2233D01*
X2398Y2233D01*
X2398Y2229D01*
X2396Y2229D01*
X2396Y2225D01*
X2394Y2225D01*
X2394Y2221D01*
X2392Y2221D01*
X2392Y2217D01*
X2390Y2217D01*
X2390Y2213D01*
X2388Y2213D01*
X2388Y2209D01*
X2386Y2209D01*
X2386Y2205D01*
X2384Y2205D01*
X2384Y2201D01*
X2382Y2201D01*
X2382Y2197D01*
X2380Y2197D01*
X2380Y2193D01*
X2378Y2193D01*
X2378Y2189D01*
X2376Y2189D01*
X2376Y2185D01*
X2374Y2185D01*
X2374Y2181D01*
X2372Y2181D01*
X2372Y2177D01*
X2370Y2177D01*
X2370Y2173D01*
X2368Y2173D01*
X2368Y2169D01*
X2366Y2169D01*
X2366Y2165D01*
X2364Y2165D01*
X2364Y2161D01*
X2362Y2161D01*
X2362Y2157D01*
X2360Y2157D01*
X2360Y2155D01*
X2824Y2155D01*
X2824Y2153D01*
X2830Y2153D01*
X2830Y2151D01*
X2834Y2151D01*
X2834Y2149D01*
X2838Y2149D01*
X2838Y2147D01*
X2840Y2147D01*
X2840Y2145D01*
X2844Y2145D01*
X2844Y2143D01*
X2846Y2143D01*
X2846Y2141D01*
X2848Y2141D01*
X2848Y2137D01*
X2850Y2137D01*
X2850Y2135D01*
X2852Y2135D01*
X2852Y2131D01*
X2854Y2131D01*
X2854Y2125D01*
X2856Y2125D01*
X2856Y2117D01*
X2858Y2117D01*
X2858Y2107D01*
X2856Y2107D01*
X2856Y2099D01*
X2854Y2099D01*
X2854Y2095D01*
X2852Y2095D01*
X2852Y2091D01*
X2850Y2091D01*
X2850Y2087D01*
X2848Y2087D01*
X2848Y2085D01*
X2846Y2085D01*
X2846Y2083D01*
X2844Y2083D01*
X2844Y2081D01*
X2842Y2081D01*
X2842Y2079D01*
X2840Y2079D01*
X2840Y2077D01*
X2836Y2077D01*
X2836Y2075D01*
X2832Y2075D01*
X2832Y2073D01*
X2828Y2073D01*
X2828Y2071D01*
X2816Y2071D01*
X2816Y2069D01*
X3194Y2069D01*
X3194Y2295D01*
X2924Y2295D01*
G37*
D02*
G36*
X40Y2155D02*
X40Y2011D01*
X1058Y2011D01*
X1058Y2009D01*
X1062Y2009D01*
X1062Y2007D01*
X1066Y2007D01*
X1066Y2005D01*
X1070Y2005D01*
X1070Y2003D01*
X1072Y2003D01*
X1072Y2001D01*
X1074Y2001D01*
X1074Y1999D01*
X1076Y1999D01*
X1076Y1997D01*
X1078Y1997D01*
X1078Y1995D01*
X1080Y1995D01*
X1080Y1991D01*
X1082Y1991D01*
X1082Y1989D01*
X1084Y1989D01*
X1084Y1983D01*
X1086Y1983D01*
X1086Y1975D01*
X1106Y1975D01*
X1106Y1977D01*
X1108Y1977D01*
X1108Y1985D01*
X1110Y1985D01*
X1110Y1989D01*
X1112Y1989D01*
X1112Y1993D01*
X1114Y1993D01*
X1114Y1995D01*
X1116Y1995D01*
X1116Y1997D01*
X1118Y1997D01*
X1118Y1999D01*
X1120Y1999D01*
X1120Y2001D01*
X1122Y2001D01*
X1122Y2003D01*
X1124Y2003D01*
X1124Y2005D01*
X1128Y2005D01*
X1128Y2007D01*
X1132Y2007D01*
X1132Y2009D01*
X1136Y2009D01*
X1136Y2029D01*
X1134Y2029D01*
X1134Y2031D01*
X1130Y2031D01*
X1130Y2033D01*
X1126Y2033D01*
X1126Y2035D01*
X1122Y2035D01*
X1122Y2037D01*
X1120Y2037D01*
X1120Y2039D01*
X1116Y2039D01*
X1116Y2041D01*
X1112Y2041D01*
X1112Y2043D01*
X1108Y2043D01*
X1108Y2045D01*
X1104Y2045D01*
X1104Y2047D01*
X1100Y2047D01*
X1100Y2049D01*
X1096Y2049D01*
X1096Y2051D01*
X1094Y2051D01*
X1094Y2053D01*
X1090Y2053D01*
X1090Y2055D01*
X1086Y2055D01*
X1086Y2057D01*
X1082Y2057D01*
X1082Y2059D01*
X1078Y2059D01*
X1078Y2061D01*
X1074Y2061D01*
X1074Y2063D01*
X1072Y2063D01*
X1072Y2065D01*
X1068Y2065D01*
X1068Y2067D01*
X1066Y2067D01*
X1066Y2069D01*
X1052Y2069D01*
X1052Y2071D01*
X1042Y2071D01*
X1042Y2073D01*
X1036Y2073D01*
X1036Y2075D01*
X1034Y2075D01*
X1034Y2077D01*
X1030Y2077D01*
X1030Y2079D01*
X1028Y2079D01*
X1028Y2081D01*
X1026Y2081D01*
X1026Y2083D01*
X1024Y2083D01*
X1024Y2085D01*
X1022Y2085D01*
X1022Y2087D01*
X1020Y2087D01*
X1020Y2089D01*
X1018Y2089D01*
X1018Y2093D01*
X1016Y2093D01*
X1016Y2097D01*
X1014Y2097D01*
X1014Y2105D01*
X1012Y2105D01*
X1012Y2121D01*
X1014Y2121D01*
X1014Y2127D01*
X1016Y2127D01*
X1016Y2131D01*
X1018Y2131D01*
X1018Y2135D01*
X1020Y2135D01*
X1020Y2139D01*
X1022Y2139D01*
X1022Y2141D01*
X1024Y2141D01*
X1024Y2143D01*
X1026Y2143D01*
X1026Y2145D01*
X1028Y2145D01*
X1028Y2147D01*
X1032Y2147D01*
X1032Y2149D01*
X1034Y2149D01*
X1034Y2151D01*
X1038Y2151D01*
X1038Y2153D01*
X1046Y2153D01*
X1046Y2155D01*
X40Y2155D01*
G37*
D02*
G36*
X1064Y2155D02*
X1064Y2153D01*
X1070Y2153D01*
X1070Y2151D01*
X1074Y2151D01*
X1074Y2149D01*
X1078Y2149D01*
X1078Y2147D01*
X1080Y2147D01*
X1080Y2145D01*
X1084Y2145D01*
X1084Y2143D01*
X1086Y2143D01*
X1086Y2141D01*
X1088Y2141D01*
X1088Y2137D01*
X1090Y2137D01*
X1090Y2135D01*
X1092Y2135D01*
X1092Y2131D01*
X1094Y2131D01*
X1094Y2125D01*
X1114Y2125D01*
X1114Y2127D01*
X1116Y2127D01*
X1116Y2131D01*
X1118Y2131D01*
X1118Y2135D01*
X1120Y2135D01*
X1120Y2139D01*
X1122Y2139D01*
X1122Y2141D01*
X1124Y2141D01*
X1124Y2143D01*
X1126Y2143D01*
X1126Y2145D01*
X1128Y2145D01*
X1128Y2147D01*
X1132Y2147D01*
X1132Y2149D01*
X1134Y2149D01*
X1134Y2151D01*
X1138Y2151D01*
X1138Y2153D01*
X1146Y2153D01*
X1146Y2155D01*
X1064Y2155D01*
G37*
D02*
G36*
X1164Y2155D02*
X1164Y2153D01*
X1170Y2153D01*
X1170Y2151D01*
X1174Y2151D01*
X1174Y2149D01*
X1178Y2149D01*
X1178Y2147D01*
X1180Y2147D01*
X1180Y2145D01*
X1184Y2145D01*
X1184Y2143D01*
X1186Y2143D01*
X1186Y2141D01*
X1188Y2141D01*
X1188Y2137D01*
X1190Y2137D01*
X1190Y2135D01*
X1192Y2135D01*
X1192Y2131D01*
X1194Y2131D01*
X1194Y2125D01*
X1214Y2125D01*
X1214Y2127D01*
X1216Y2127D01*
X1216Y2131D01*
X1218Y2131D01*
X1218Y2135D01*
X1220Y2135D01*
X1220Y2139D01*
X1222Y2139D01*
X1222Y2141D01*
X1224Y2141D01*
X1224Y2143D01*
X1226Y2143D01*
X1226Y2145D01*
X1228Y2145D01*
X1228Y2147D01*
X1232Y2147D01*
X1232Y2149D01*
X1234Y2149D01*
X1234Y2151D01*
X1238Y2151D01*
X1238Y2153D01*
X1246Y2153D01*
X1246Y2155D01*
X1164Y2155D01*
G37*
D02*
G36*
X1264Y2155D02*
X1264Y2153D01*
X1270Y2153D01*
X1270Y2151D01*
X1274Y2151D01*
X1274Y2149D01*
X1278Y2149D01*
X1278Y2147D01*
X1280Y2147D01*
X1280Y2145D01*
X1284Y2145D01*
X1284Y2143D01*
X1286Y2143D01*
X1286Y2141D01*
X1288Y2141D01*
X1288Y2137D01*
X1290Y2137D01*
X1290Y2135D01*
X1292Y2135D01*
X1292Y2131D01*
X1294Y2131D01*
X1294Y2125D01*
X1314Y2125D01*
X1314Y2127D01*
X1316Y2127D01*
X1316Y2131D01*
X1318Y2131D01*
X1318Y2135D01*
X1320Y2135D01*
X1320Y2139D01*
X1322Y2139D01*
X1322Y2141D01*
X1324Y2141D01*
X1324Y2143D01*
X1326Y2143D01*
X1326Y2145D01*
X1328Y2145D01*
X1328Y2147D01*
X1332Y2147D01*
X1332Y2149D01*
X1334Y2149D01*
X1334Y2151D01*
X1338Y2151D01*
X1338Y2153D01*
X1346Y2153D01*
X1346Y2155D01*
X1264Y2155D01*
G37*
D02*
G36*
X1890Y2155D02*
X1890Y2135D01*
X1892Y2135D01*
X1892Y2131D01*
X1894Y2131D01*
X1894Y2125D01*
X1914Y2125D01*
X1914Y2127D01*
X1916Y2127D01*
X1916Y2131D01*
X1918Y2131D01*
X1918Y2135D01*
X1920Y2135D01*
X1920Y2139D01*
X1922Y2139D01*
X1922Y2141D01*
X1924Y2141D01*
X1924Y2143D01*
X1926Y2143D01*
X1926Y2145D01*
X1928Y2145D01*
X1928Y2147D01*
X1932Y2147D01*
X1932Y2149D01*
X1934Y2149D01*
X1934Y2151D01*
X1938Y2151D01*
X1938Y2153D01*
X1946Y2153D01*
X1946Y2155D01*
X1890Y2155D01*
G37*
D02*
G36*
X2036Y2155D02*
X2036Y2069D01*
X2112Y2069D01*
X2112Y2071D01*
X2102Y2071D01*
X2102Y2073D01*
X2096Y2073D01*
X2096Y2075D01*
X2094Y2075D01*
X2094Y2077D01*
X2090Y2077D01*
X2090Y2079D01*
X2088Y2079D01*
X2088Y2081D01*
X2086Y2081D01*
X2086Y2083D01*
X2084Y2083D01*
X2084Y2085D01*
X2082Y2085D01*
X2082Y2087D01*
X2080Y2087D01*
X2080Y2089D01*
X2078Y2089D01*
X2078Y2093D01*
X2076Y2093D01*
X2076Y2097D01*
X2074Y2097D01*
X2074Y2105D01*
X2072Y2105D01*
X2072Y2121D01*
X2074Y2121D01*
X2074Y2127D01*
X2076Y2127D01*
X2076Y2131D01*
X2078Y2131D01*
X2078Y2135D01*
X2080Y2135D01*
X2080Y2139D01*
X2082Y2139D01*
X2082Y2141D01*
X2084Y2141D01*
X2084Y2143D01*
X2086Y2143D01*
X2086Y2145D01*
X2088Y2145D01*
X2088Y2147D01*
X2092Y2147D01*
X2092Y2149D01*
X2094Y2149D01*
X2094Y2151D01*
X2098Y2151D01*
X2098Y2153D01*
X2106Y2153D01*
X2106Y2155D01*
X2036Y2155D01*
G37*
D02*
G36*
X2124Y2155D02*
X2124Y2153D01*
X2130Y2153D01*
X2130Y2151D01*
X2134Y2151D01*
X2134Y2149D01*
X2138Y2149D01*
X2138Y2147D01*
X2140Y2147D01*
X2140Y2145D01*
X2144Y2145D01*
X2144Y2143D01*
X2146Y2143D01*
X2146Y2141D01*
X2148Y2141D01*
X2148Y2137D01*
X2150Y2137D01*
X2150Y2135D01*
X2152Y2135D01*
X2152Y2131D01*
X2154Y2131D01*
X2154Y2125D01*
X2174Y2125D01*
X2174Y2127D01*
X2176Y2127D01*
X2176Y2131D01*
X2178Y2131D01*
X2178Y2135D01*
X2180Y2135D01*
X2180Y2139D01*
X2182Y2139D01*
X2182Y2141D01*
X2184Y2141D01*
X2184Y2143D01*
X2186Y2143D01*
X2186Y2145D01*
X2188Y2145D01*
X2188Y2147D01*
X2192Y2147D01*
X2192Y2149D01*
X2194Y2149D01*
X2194Y2151D01*
X2198Y2151D01*
X2198Y2153D01*
X2206Y2153D01*
X2206Y2155D01*
X2124Y2155D01*
G37*
D02*
G36*
X2360Y2155D02*
X2360Y2153D01*
X2358Y2153D01*
X2358Y2149D01*
X2356Y2149D01*
X2356Y2145D01*
X2354Y2145D01*
X2354Y2125D01*
X2374Y2125D01*
X2374Y2127D01*
X2376Y2127D01*
X2376Y2131D01*
X2378Y2131D01*
X2378Y2135D01*
X2380Y2135D01*
X2380Y2139D01*
X2382Y2139D01*
X2382Y2141D01*
X2384Y2141D01*
X2384Y2143D01*
X2386Y2143D01*
X2386Y2145D01*
X2388Y2145D01*
X2388Y2147D01*
X2392Y2147D01*
X2392Y2149D01*
X2394Y2149D01*
X2394Y2151D01*
X2398Y2151D01*
X2398Y2153D01*
X2406Y2153D01*
X2406Y2155D01*
X2360Y2155D01*
G37*
D02*
G36*
X2424Y2155D02*
X2424Y2153D01*
X2430Y2153D01*
X2430Y2151D01*
X2434Y2151D01*
X2434Y2149D01*
X2438Y2149D01*
X2438Y2147D01*
X2440Y2147D01*
X2440Y2145D01*
X2444Y2145D01*
X2444Y2143D01*
X2446Y2143D01*
X2446Y2141D01*
X2448Y2141D01*
X2448Y2137D01*
X2450Y2137D01*
X2450Y2135D01*
X2452Y2135D01*
X2452Y2131D01*
X2454Y2131D01*
X2454Y2125D01*
X2474Y2125D01*
X2474Y2127D01*
X2476Y2127D01*
X2476Y2131D01*
X2478Y2131D01*
X2478Y2135D01*
X2480Y2135D01*
X2480Y2139D01*
X2482Y2139D01*
X2482Y2141D01*
X2484Y2141D01*
X2484Y2143D01*
X2486Y2143D01*
X2486Y2145D01*
X2488Y2145D01*
X2488Y2147D01*
X2492Y2147D01*
X2492Y2149D01*
X2494Y2149D01*
X2494Y2151D01*
X2498Y2151D01*
X2498Y2153D01*
X2506Y2153D01*
X2506Y2155D01*
X2424Y2155D01*
G37*
D02*
G36*
X2524Y2155D02*
X2524Y2153D01*
X2530Y2153D01*
X2530Y2151D01*
X2534Y2151D01*
X2534Y2149D01*
X2538Y2149D01*
X2538Y2147D01*
X2540Y2147D01*
X2540Y2145D01*
X2544Y2145D01*
X2544Y2143D01*
X2546Y2143D01*
X2546Y2141D01*
X2548Y2141D01*
X2548Y2137D01*
X2550Y2137D01*
X2550Y2135D01*
X2552Y2135D01*
X2552Y2131D01*
X2554Y2131D01*
X2554Y2125D01*
X2574Y2125D01*
X2574Y2127D01*
X2576Y2127D01*
X2576Y2131D01*
X2578Y2131D01*
X2578Y2135D01*
X2580Y2135D01*
X2580Y2139D01*
X2582Y2139D01*
X2582Y2141D01*
X2584Y2141D01*
X2584Y2143D01*
X2586Y2143D01*
X2586Y2145D01*
X2588Y2145D01*
X2588Y2147D01*
X2592Y2147D01*
X2592Y2149D01*
X2594Y2149D01*
X2594Y2151D01*
X2598Y2151D01*
X2598Y2153D01*
X2606Y2153D01*
X2606Y2155D01*
X2524Y2155D01*
G37*
D02*
G36*
X2624Y2155D02*
X2624Y2153D01*
X2630Y2153D01*
X2630Y2151D01*
X2634Y2151D01*
X2634Y2149D01*
X2638Y2149D01*
X2638Y2147D01*
X2640Y2147D01*
X2640Y2145D01*
X2644Y2145D01*
X2644Y2143D01*
X2646Y2143D01*
X2646Y2141D01*
X2648Y2141D01*
X2648Y2137D01*
X2650Y2137D01*
X2650Y2135D01*
X2652Y2135D01*
X2652Y2131D01*
X2654Y2131D01*
X2654Y2125D01*
X2674Y2125D01*
X2674Y2127D01*
X2676Y2127D01*
X2676Y2131D01*
X2678Y2131D01*
X2678Y2135D01*
X2680Y2135D01*
X2680Y2139D01*
X2682Y2139D01*
X2682Y2141D01*
X2684Y2141D01*
X2684Y2143D01*
X2686Y2143D01*
X2686Y2145D01*
X2688Y2145D01*
X2688Y2147D01*
X2692Y2147D01*
X2692Y2149D01*
X2694Y2149D01*
X2694Y2151D01*
X2698Y2151D01*
X2698Y2153D01*
X2706Y2153D01*
X2706Y2155D01*
X2624Y2155D01*
G37*
D02*
G36*
X2724Y2155D02*
X2724Y2153D01*
X2730Y2153D01*
X2730Y2151D01*
X2734Y2151D01*
X2734Y2149D01*
X2738Y2149D01*
X2738Y2147D01*
X2740Y2147D01*
X2740Y2145D01*
X2744Y2145D01*
X2744Y2143D01*
X2746Y2143D01*
X2746Y2141D01*
X2748Y2141D01*
X2748Y2137D01*
X2750Y2137D01*
X2750Y2135D01*
X2752Y2135D01*
X2752Y2131D01*
X2754Y2131D01*
X2754Y2125D01*
X2774Y2125D01*
X2774Y2127D01*
X2776Y2127D01*
X2776Y2131D01*
X2778Y2131D01*
X2778Y2135D01*
X2780Y2135D01*
X2780Y2139D01*
X2782Y2139D01*
X2782Y2141D01*
X2784Y2141D01*
X2784Y2143D01*
X2786Y2143D01*
X2786Y2145D01*
X2788Y2145D01*
X2788Y2147D01*
X2792Y2147D01*
X2792Y2149D01*
X2794Y2149D01*
X2794Y2151D01*
X2798Y2151D01*
X2798Y2153D01*
X2806Y2153D01*
X2806Y2155D01*
X2724Y2155D01*
G37*
D02*
G36*
X2154Y2099D02*
X2154Y2095D01*
X2152Y2095D01*
X2152Y2091D01*
X2150Y2091D01*
X2150Y2087D01*
X2148Y2087D01*
X2148Y2085D01*
X2146Y2085D01*
X2146Y2083D01*
X2144Y2083D01*
X2144Y2081D01*
X2142Y2081D01*
X2142Y2079D01*
X2140Y2079D01*
X2140Y2077D01*
X2136Y2077D01*
X2136Y2075D01*
X2132Y2075D01*
X2132Y2073D01*
X2128Y2073D01*
X2128Y2071D01*
X2116Y2071D01*
X2116Y2069D01*
X2212Y2069D01*
X2212Y2071D01*
X2202Y2071D01*
X2202Y2073D01*
X2196Y2073D01*
X2196Y2075D01*
X2194Y2075D01*
X2194Y2077D01*
X2190Y2077D01*
X2190Y2079D01*
X2188Y2079D01*
X2188Y2081D01*
X2186Y2081D01*
X2186Y2083D01*
X2184Y2083D01*
X2184Y2085D01*
X2182Y2085D01*
X2182Y2087D01*
X2180Y2087D01*
X2180Y2089D01*
X2178Y2089D01*
X2178Y2093D01*
X2176Y2093D01*
X2176Y2097D01*
X2174Y2097D01*
X2174Y2099D01*
X2154Y2099D01*
G37*
D02*
G36*
X2254Y2099D02*
X2254Y2095D01*
X2252Y2095D01*
X2252Y2091D01*
X2250Y2091D01*
X2250Y2087D01*
X2248Y2087D01*
X2248Y2085D01*
X2246Y2085D01*
X2246Y2083D01*
X2244Y2083D01*
X2244Y2081D01*
X2242Y2081D01*
X2242Y2079D01*
X2240Y2079D01*
X2240Y2077D01*
X2236Y2077D01*
X2236Y2075D01*
X2232Y2075D01*
X2232Y2073D01*
X2228Y2073D01*
X2228Y2071D01*
X2216Y2071D01*
X2216Y2069D01*
X2312Y2069D01*
X2312Y2071D01*
X2302Y2071D01*
X2302Y2073D01*
X2296Y2073D01*
X2296Y2075D01*
X2294Y2075D01*
X2294Y2077D01*
X2290Y2077D01*
X2290Y2079D01*
X2288Y2079D01*
X2288Y2081D01*
X2286Y2081D01*
X2286Y2083D01*
X2284Y2083D01*
X2284Y2085D01*
X2282Y2085D01*
X2282Y2087D01*
X2280Y2087D01*
X2280Y2089D01*
X2278Y2089D01*
X2278Y2093D01*
X2276Y2093D01*
X2276Y2097D01*
X2274Y2097D01*
X2274Y2099D01*
X2254Y2099D01*
G37*
D02*
G36*
X2354Y2099D02*
X2354Y2095D01*
X2352Y2095D01*
X2352Y2091D01*
X2350Y2091D01*
X2350Y2087D01*
X2348Y2087D01*
X2348Y2085D01*
X2346Y2085D01*
X2346Y2083D01*
X2344Y2083D01*
X2344Y2081D01*
X2342Y2081D01*
X2342Y2079D01*
X2340Y2079D01*
X2340Y2077D01*
X2336Y2077D01*
X2336Y2075D01*
X2332Y2075D01*
X2332Y2073D01*
X2328Y2073D01*
X2328Y2071D01*
X2316Y2071D01*
X2316Y2069D01*
X2412Y2069D01*
X2412Y2071D01*
X2402Y2071D01*
X2402Y2073D01*
X2396Y2073D01*
X2396Y2075D01*
X2394Y2075D01*
X2394Y2077D01*
X2390Y2077D01*
X2390Y2079D01*
X2388Y2079D01*
X2388Y2081D01*
X2386Y2081D01*
X2386Y2083D01*
X2384Y2083D01*
X2384Y2085D01*
X2382Y2085D01*
X2382Y2087D01*
X2380Y2087D01*
X2380Y2089D01*
X2378Y2089D01*
X2378Y2093D01*
X2376Y2093D01*
X2376Y2097D01*
X2374Y2097D01*
X2374Y2099D01*
X2354Y2099D01*
G37*
D02*
G36*
X2454Y2099D02*
X2454Y2095D01*
X2452Y2095D01*
X2452Y2091D01*
X2450Y2091D01*
X2450Y2087D01*
X2448Y2087D01*
X2448Y2085D01*
X2446Y2085D01*
X2446Y2083D01*
X2444Y2083D01*
X2444Y2081D01*
X2442Y2081D01*
X2442Y2079D01*
X2440Y2079D01*
X2440Y2077D01*
X2436Y2077D01*
X2436Y2075D01*
X2432Y2075D01*
X2432Y2073D01*
X2428Y2073D01*
X2428Y2071D01*
X2416Y2071D01*
X2416Y2069D01*
X2492Y2069D01*
X2492Y2077D01*
X2490Y2077D01*
X2490Y2079D01*
X2488Y2079D01*
X2488Y2081D01*
X2486Y2081D01*
X2486Y2083D01*
X2484Y2083D01*
X2484Y2085D01*
X2482Y2085D01*
X2482Y2087D01*
X2480Y2087D01*
X2480Y2089D01*
X2478Y2089D01*
X2478Y2093D01*
X2476Y2093D01*
X2476Y2097D01*
X2474Y2097D01*
X2474Y2099D01*
X2454Y2099D01*
G37*
D02*
G36*
X2554Y2099D02*
X2554Y2095D01*
X2552Y2095D01*
X2552Y2091D01*
X2550Y2091D01*
X2550Y2087D01*
X2548Y2087D01*
X2548Y2085D01*
X2546Y2085D01*
X2546Y2083D01*
X2544Y2083D01*
X2544Y2081D01*
X2542Y2081D01*
X2542Y2079D01*
X2540Y2079D01*
X2540Y2077D01*
X2536Y2077D01*
X2536Y2069D01*
X2612Y2069D01*
X2612Y2071D01*
X2602Y2071D01*
X2602Y2073D01*
X2596Y2073D01*
X2596Y2075D01*
X2594Y2075D01*
X2594Y2077D01*
X2590Y2077D01*
X2590Y2079D01*
X2588Y2079D01*
X2588Y2081D01*
X2586Y2081D01*
X2586Y2083D01*
X2584Y2083D01*
X2584Y2085D01*
X2582Y2085D01*
X2582Y2087D01*
X2580Y2087D01*
X2580Y2089D01*
X2578Y2089D01*
X2578Y2093D01*
X2576Y2093D01*
X2576Y2097D01*
X2574Y2097D01*
X2574Y2099D01*
X2554Y2099D01*
G37*
D02*
G36*
X2654Y2099D02*
X2654Y2093D01*
X2652Y2093D01*
X2652Y2091D01*
X2650Y2091D01*
X2650Y2087D01*
X2648Y2087D01*
X2648Y2085D01*
X2646Y2085D01*
X2646Y2083D01*
X2644Y2083D01*
X2644Y2081D01*
X2642Y2081D01*
X2642Y2079D01*
X2640Y2079D01*
X2640Y2077D01*
X2636Y2077D01*
X2636Y2075D01*
X2632Y2075D01*
X2632Y2073D01*
X2628Y2073D01*
X2628Y2071D01*
X2616Y2071D01*
X2616Y2069D01*
X2712Y2069D01*
X2712Y2071D01*
X2702Y2071D01*
X2702Y2073D01*
X2696Y2073D01*
X2696Y2075D01*
X2694Y2075D01*
X2694Y2077D01*
X2690Y2077D01*
X2690Y2079D01*
X2688Y2079D01*
X2688Y2081D01*
X2686Y2081D01*
X2686Y2083D01*
X2684Y2083D01*
X2684Y2085D01*
X2682Y2085D01*
X2682Y2087D01*
X2680Y2087D01*
X2680Y2089D01*
X2678Y2089D01*
X2678Y2093D01*
X2676Y2093D01*
X2676Y2097D01*
X2674Y2097D01*
X2674Y2099D01*
X2654Y2099D01*
G37*
D02*
G36*
X2754Y2099D02*
X2754Y2095D01*
X2752Y2095D01*
X2752Y2091D01*
X2750Y2091D01*
X2750Y2087D01*
X2748Y2087D01*
X2748Y2085D01*
X2746Y2085D01*
X2746Y2083D01*
X2744Y2083D01*
X2744Y2081D01*
X2742Y2081D01*
X2742Y2079D01*
X2740Y2079D01*
X2740Y2077D01*
X2736Y2077D01*
X2736Y2075D01*
X2732Y2075D01*
X2732Y2073D01*
X2728Y2073D01*
X2728Y2071D01*
X2716Y2071D01*
X2716Y2069D01*
X2812Y2069D01*
X2812Y2071D01*
X2802Y2071D01*
X2802Y2073D01*
X2796Y2073D01*
X2796Y2075D01*
X2794Y2075D01*
X2794Y2077D01*
X2790Y2077D01*
X2790Y2079D01*
X2788Y2079D01*
X2788Y2081D01*
X2786Y2081D01*
X2786Y2083D01*
X2784Y2083D01*
X2784Y2085D01*
X2782Y2085D01*
X2782Y2087D01*
X2780Y2087D01*
X2780Y2089D01*
X2778Y2089D01*
X2778Y2093D01*
X2776Y2093D01*
X2776Y2097D01*
X2774Y2097D01*
X2774Y2099D01*
X2754Y2099D01*
G37*
D02*
G36*
X2036Y2069D02*
X2036Y2067D01*
X2492Y2067D01*
X2492Y2069D01*
X2036Y2069D01*
G37*
D02*
G36*
X2036Y2069D02*
X2036Y2067D01*
X2492Y2067D01*
X2492Y2069D01*
X2036Y2069D01*
G37*
D02*
G36*
X2036Y2069D02*
X2036Y2067D01*
X2492Y2067D01*
X2492Y2069D01*
X2036Y2069D01*
G37*
D02*
G36*
X2036Y2069D02*
X2036Y2067D01*
X2492Y2067D01*
X2492Y2069D01*
X2036Y2069D01*
G37*
D02*
G36*
X2036Y2069D02*
X2036Y2067D01*
X2492Y2067D01*
X2492Y2069D01*
X2036Y2069D01*
G37*
D02*
G36*
X2536Y2069D02*
X2536Y2067D01*
X3194Y2067D01*
X3194Y2069D01*
X2536Y2069D01*
G37*
D02*
G36*
X2536Y2069D02*
X2536Y2067D01*
X3194Y2067D01*
X3194Y2069D01*
X2536Y2069D01*
G37*
D02*
G36*
X2536Y2069D02*
X2536Y2067D01*
X3194Y2067D01*
X3194Y2069D01*
X2536Y2069D01*
G37*
D02*
G36*
X2536Y2069D02*
X2536Y2067D01*
X3194Y2067D01*
X3194Y2069D01*
X2536Y2069D01*
G37*
D02*
G36*
X2036Y2067D02*
X2036Y1777D01*
X2034Y1777D01*
X2034Y1751D01*
X2036Y1751D01*
X2036Y1749D01*
X2040Y1749D01*
X2040Y1747D01*
X2042Y1747D01*
X2042Y1745D01*
X2044Y1745D01*
X2044Y1743D01*
X2046Y1743D01*
X2046Y1741D01*
X2048Y1741D01*
X2048Y1739D01*
X2050Y1739D01*
X2050Y1735D01*
X2052Y1735D01*
X2052Y1731D01*
X2054Y1731D01*
X2054Y1725D01*
X2056Y1725D01*
X2056Y1717D01*
X2058Y1717D01*
X2058Y1707D01*
X2056Y1707D01*
X2056Y1699D01*
X2054Y1699D01*
X2054Y1693D01*
X2052Y1693D01*
X2052Y1691D01*
X2050Y1691D01*
X2050Y1687D01*
X2048Y1687D01*
X2048Y1685D01*
X2046Y1685D01*
X2046Y1681D01*
X2044Y1681D01*
X2044Y1679D01*
X2040Y1679D01*
X2040Y1677D01*
X2038Y1677D01*
X2038Y1675D01*
X2036Y1675D01*
X2036Y1673D01*
X2032Y1673D01*
X2032Y1671D01*
X2026Y1671D01*
X2026Y1669D01*
X2018Y1669D01*
X2018Y1667D01*
X2492Y1667D01*
X2492Y2067D01*
X2036Y2067D01*
G37*
D02*
G36*
X2536Y2067D02*
X2536Y1463D01*
X3206Y1463D01*
X3206Y1465D01*
X3198Y1465D01*
X3198Y1467D01*
X3192Y1467D01*
X3192Y1469D01*
X3188Y1469D01*
X3188Y1471D01*
X3184Y1471D01*
X3184Y1473D01*
X3182Y1473D01*
X3182Y1475D01*
X3180Y1475D01*
X3180Y1477D01*
X3178Y1477D01*
X3178Y1479D01*
X3176Y1479D01*
X3176Y1481D01*
X3174Y1481D01*
X3174Y1483D01*
X3172Y1483D01*
X3172Y1487D01*
X3170Y1487D01*
X3170Y1491D01*
X3168Y1491D01*
X3168Y1493D01*
X3166Y1493D01*
X3166Y1501D01*
X3164Y1501D01*
X3164Y1525D01*
X3166Y1525D01*
X3166Y1531D01*
X3168Y1531D01*
X3168Y1535D01*
X3170Y1535D01*
X3170Y1539D01*
X3172Y1539D01*
X3172Y1541D01*
X3174Y1541D01*
X3174Y1543D01*
X3176Y1543D01*
X3176Y1547D01*
X3178Y1547D01*
X3178Y1549D01*
X3182Y1549D01*
X3182Y1551D01*
X3184Y1551D01*
X3184Y1553D01*
X3186Y1553D01*
X3186Y1555D01*
X3190Y1555D01*
X3190Y1637D01*
X3192Y1637D01*
X3192Y1983D01*
X3194Y1983D01*
X3194Y2067D01*
X2536Y2067D01*
G37*
D02*
G36*
X40Y2011D02*
X40Y1827D01*
X936Y1827D01*
X936Y1829D01*
X928Y1829D01*
X928Y1831D01*
X922Y1831D01*
X922Y1833D01*
X918Y1833D01*
X918Y1835D01*
X916Y1835D01*
X916Y1837D01*
X914Y1837D01*
X914Y1839D01*
X910Y1839D01*
X910Y1843D01*
X908Y1843D01*
X908Y1845D01*
X906Y1845D01*
X906Y1847D01*
X904Y1847D01*
X904Y1851D01*
X902Y1851D01*
X902Y1855D01*
X900Y1855D01*
X900Y1863D01*
X898Y1863D01*
X898Y1877D01*
X900Y1877D01*
X900Y1885D01*
X902Y1885D01*
X902Y1889D01*
X904Y1889D01*
X904Y1893D01*
X906Y1893D01*
X906Y1895D01*
X908Y1895D01*
X908Y1899D01*
X910Y1899D01*
X910Y1901D01*
X912Y1901D01*
X912Y1903D01*
X916Y1903D01*
X916Y1905D01*
X918Y1905D01*
X918Y1907D01*
X922Y1907D01*
X922Y1909D01*
X926Y1909D01*
X926Y1929D01*
X924Y1929D01*
X924Y1931D01*
X920Y1931D01*
X920Y1933D01*
X918Y1933D01*
X918Y1935D01*
X914Y1935D01*
X914Y1937D01*
X912Y1937D01*
X912Y1939D01*
X910Y1939D01*
X910Y1941D01*
X908Y1941D01*
X908Y1943D01*
X906Y1943D01*
X906Y1947D01*
X904Y1947D01*
X904Y1951D01*
X902Y1951D01*
X902Y1955D01*
X900Y1955D01*
X900Y1963D01*
X898Y1963D01*
X898Y1977D01*
X900Y1977D01*
X900Y1983D01*
X902Y1983D01*
X902Y1989D01*
X904Y1989D01*
X904Y1991D01*
X906Y1991D01*
X906Y1995D01*
X908Y1995D01*
X908Y1997D01*
X910Y1997D01*
X910Y1999D01*
X912Y1999D01*
X912Y2001D01*
X914Y2001D01*
X914Y2003D01*
X916Y2003D01*
X916Y2005D01*
X920Y2005D01*
X920Y2007D01*
X924Y2007D01*
X924Y2009D01*
X928Y2009D01*
X928Y2011D01*
X40Y2011D01*
G37*
D02*
G36*
X954Y2011D02*
X954Y2009D01*
X958Y2009D01*
X958Y2007D01*
X962Y2007D01*
X962Y2005D01*
X966Y2005D01*
X966Y2003D01*
X968Y2003D01*
X968Y2001D01*
X970Y2001D01*
X970Y1999D01*
X972Y1999D01*
X972Y1997D01*
X974Y1997D01*
X974Y1995D01*
X976Y1995D01*
X976Y1991D01*
X978Y1991D01*
X978Y1989D01*
X980Y1989D01*
X980Y1983D01*
X982Y1983D01*
X982Y1975D01*
X1002Y1975D01*
X1002Y1977D01*
X1004Y1977D01*
X1004Y1985D01*
X1006Y1985D01*
X1006Y1989D01*
X1008Y1989D01*
X1008Y1993D01*
X1010Y1993D01*
X1010Y1995D01*
X1012Y1995D01*
X1012Y1997D01*
X1014Y1997D01*
X1014Y1999D01*
X1016Y1999D01*
X1016Y2001D01*
X1018Y2001D01*
X1018Y2003D01*
X1020Y2003D01*
X1020Y2005D01*
X1024Y2005D01*
X1024Y2007D01*
X1028Y2007D01*
X1028Y2009D01*
X1032Y2009D01*
X1032Y2011D01*
X954Y2011D01*
G37*
D02*
G36*
X1190Y1989D02*
X1190Y1975D01*
X1192Y1975D01*
X1192Y1963D01*
X1190Y1963D01*
X1190Y1955D01*
X1188Y1955D01*
X1188Y1951D01*
X1186Y1951D01*
X1186Y1947D01*
X1184Y1947D01*
X1184Y1945D01*
X1182Y1945D01*
X1182Y1941D01*
X1180Y1941D01*
X1180Y1939D01*
X1178Y1939D01*
X1178Y1937D01*
X1176Y1937D01*
X1176Y1935D01*
X1172Y1935D01*
X1172Y1933D01*
X1168Y1933D01*
X1168Y1931D01*
X1166Y1931D01*
X1166Y1929D01*
X1164Y1929D01*
X1164Y1909D01*
X1168Y1909D01*
X1168Y1907D01*
X1172Y1907D01*
X1172Y1905D01*
X1174Y1905D01*
X1174Y1903D01*
X1176Y1903D01*
X1176Y1901D01*
X1180Y1901D01*
X1180Y1897D01*
X1182Y1897D01*
X1182Y1895D01*
X1184Y1895D01*
X1184Y1893D01*
X1186Y1893D01*
X1186Y1889D01*
X1188Y1889D01*
X1188Y1883D01*
X1190Y1883D01*
X1190Y1875D01*
X1192Y1875D01*
X1192Y1865D01*
X1190Y1865D01*
X1190Y1857D01*
X1188Y1857D01*
X1188Y1851D01*
X1186Y1851D01*
X1186Y1847D01*
X1184Y1847D01*
X1184Y1845D01*
X1182Y1845D01*
X1182Y1843D01*
X1180Y1843D01*
X1180Y1841D01*
X1178Y1841D01*
X1178Y1839D01*
X1176Y1839D01*
X1176Y1837D01*
X1174Y1837D01*
X1174Y1835D01*
X1172Y1835D01*
X1172Y1833D01*
X1168Y1833D01*
X1168Y1831D01*
X1162Y1831D01*
X1162Y1829D01*
X1154Y1829D01*
X1154Y1827D01*
X1130Y1827D01*
X1130Y1825D01*
X1128Y1825D01*
X1128Y1823D01*
X1124Y1823D01*
X1124Y1821D01*
X1122Y1821D01*
X1122Y1819D01*
X1120Y1819D01*
X1120Y1817D01*
X1118Y1817D01*
X1118Y1815D01*
X1116Y1815D01*
X1116Y1813D01*
X1112Y1813D01*
X1112Y1811D01*
X1110Y1811D01*
X1110Y1809D01*
X1108Y1809D01*
X1108Y1807D01*
X1106Y1807D01*
X1106Y1805D01*
X1102Y1805D01*
X1102Y1803D01*
X1100Y1803D01*
X1100Y1801D01*
X1098Y1801D01*
X1098Y1799D01*
X1096Y1799D01*
X1096Y1797D01*
X1094Y1797D01*
X1094Y1795D01*
X1090Y1795D01*
X1090Y1793D01*
X1088Y1793D01*
X1088Y1791D01*
X1086Y1791D01*
X1086Y1789D01*
X1084Y1789D01*
X1084Y1787D01*
X1080Y1787D01*
X1080Y1785D01*
X1078Y1785D01*
X1078Y1783D01*
X1076Y1783D01*
X1076Y1781D01*
X1074Y1781D01*
X1074Y1779D01*
X1072Y1779D01*
X1072Y1777D01*
X1068Y1777D01*
X1068Y1775D01*
X1066Y1775D01*
X1066Y1773D01*
X1064Y1773D01*
X1064Y1771D01*
X1062Y1771D01*
X1062Y1769D01*
X1058Y1769D01*
X1058Y1767D01*
X1056Y1767D01*
X1056Y1765D01*
X1054Y1765D01*
X1054Y1763D01*
X1052Y1763D01*
X1052Y1761D01*
X1050Y1761D01*
X1050Y1759D01*
X1046Y1759D01*
X1046Y1757D01*
X1524Y1757D01*
X1524Y1755D01*
X1530Y1755D01*
X1530Y1753D01*
X1534Y1753D01*
X1534Y1751D01*
X1536Y1751D01*
X1536Y1749D01*
X1540Y1749D01*
X1540Y1747D01*
X1542Y1747D01*
X1542Y1745D01*
X1544Y1745D01*
X1544Y1743D01*
X1546Y1743D01*
X1546Y1741D01*
X1548Y1741D01*
X1548Y1739D01*
X1550Y1739D01*
X1550Y1735D01*
X1552Y1735D01*
X1552Y1731D01*
X1572Y1731D01*
X1572Y1733D01*
X1574Y1733D01*
X1574Y1737D01*
X1576Y1737D01*
X1576Y1741D01*
X1578Y1741D01*
X1578Y1743D01*
X1580Y1743D01*
X1580Y1745D01*
X1582Y1745D01*
X1582Y1747D01*
X1584Y1747D01*
X1584Y1749D01*
X1588Y1749D01*
X1588Y1751D01*
X1592Y1751D01*
X1592Y1753D01*
X1594Y1753D01*
X1594Y1755D01*
X1602Y1755D01*
X1602Y1757D01*
X1606Y1757D01*
X1606Y1777D01*
X1602Y1777D01*
X1602Y1779D01*
X1598Y1779D01*
X1598Y1781D01*
X1594Y1781D01*
X1594Y1783D01*
X1590Y1783D01*
X1590Y1785D01*
X1588Y1785D01*
X1588Y1787D01*
X1584Y1787D01*
X1584Y1789D01*
X1580Y1789D01*
X1580Y1791D01*
X1576Y1791D01*
X1576Y1793D01*
X1572Y1793D01*
X1572Y1795D01*
X1568Y1795D01*
X1568Y1797D01*
X1564Y1797D01*
X1564Y1799D01*
X1562Y1799D01*
X1562Y1801D01*
X1558Y1801D01*
X1558Y1803D01*
X1554Y1803D01*
X1554Y1805D01*
X1550Y1805D01*
X1550Y1807D01*
X1546Y1807D01*
X1546Y1809D01*
X1542Y1809D01*
X1542Y1811D01*
X1538Y1811D01*
X1538Y1813D01*
X1536Y1813D01*
X1536Y1815D01*
X1532Y1815D01*
X1532Y1817D01*
X1528Y1817D01*
X1528Y1819D01*
X1524Y1819D01*
X1524Y1821D01*
X1520Y1821D01*
X1520Y1823D01*
X1516Y1823D01*
X1516Y1825D01*
X1512Y1825D01*
X1512Y1827D01*
X1510Y1827D01*
X1510Y1829D01*
X1506Y1829D01*
X1506Y1831D01*
X1502Y1831D01*
X1502Y1833D01*
X1498Y1833D01*
X1498Y1835D01*
X1494Y1835D01*
X1494Y1837D01*
X1490Y1837D01*
X1490Y1839D01*
X1486Y1839D01*
X1486Y1841D01*
X1484Y1841D01*
X1484Y1843D01*
X1480Y1843D01*
X1480Y1845D01*
X1476Y1845D01*
X1476Y1847D01*
X1472Y1847D01*
X1472Y1849D01*
X1468Y1849D01*
X1468Y1851D01*
X1464Y1851D01*
X1464Y1853D01*
X1460Y1853D01*
X1460Y1855D01*
X1458Y1855D01*
X1458Y1857D01*
X1454Y1857D01*
X1454Y1859D01*
X1450Y1859D01*
X1450Y1861D01*
X1446Y1861D01*
X1446Y1863D01*
X1442Y1863D01*
X1442Y1865D01*
X1438Y1865D01*
X1438Y1867D01*
X1434Y1867D01*
X1434Y1869D01*
X1432Y1869D01*
X1432Y1871D01*
X1428Y1871D01*
X1428Y1873D01*
X1424Y1873D01*
X1424Y1875D01*
X1420Y1875D01*
X1420Y1877D01*
X1416Y1877D01*
X1416Y1879D01*
X1412Y1879D01*
X1412Y1881D01*
X1408Y1881D01*
X1408Y1883D01*
X1406Y1883D01*
X1406Y1885D01*
X1402Y1885D01*
X1402Y1887D01*
X1398Y1887D01*
X1398Y1889D01*
X1394Y1889D01*
X1394Y1891D01*
X1390Y1891D01*
X1390Y1893D01*
X1386Y1893D01*
X1386Y1895D01*
X1382Y1895D01*
X1382Y1897D01*
X1380Y1897D01*
X1380Y1899D01*
X1376Y1899D01*
X1376Y1901D01*
X1372Y1901D01*
X1372Y1903D01*
X1368Y1903D01*
X1368Y1905D01*
X1364Y1905D01*
X1364Y1907D01*
X1360Y1907D01*
X1360Y1909D01*
X1356Y1909D01*
X1356Y1911D01*
X1354Y1911D01*
X1354Y1913D01*
X1350Y1913D01*
X1350Y1915D01*
X1346Y1915D01*
X1346Y1917D01*
X1342Y1917D01*
X1342Y1919D01*
X1338Y1919D01*
X1338Y1921D01*
X1334Y1921D01*
X1334Y1923D01*
X1330Y1923D01*
X1330Y1925D01*
X1328Y1925D01*
X1328Y1927D01*
X1324Y1927D01*
X1324Y1929D01*
X1320Y1929D01*
X1320Y1931D01*
X1316Y1931D01*
X1316Y1933D01*
X1312Y1933D01*
X1312Y1935D01*
X1308Y1935D01*
X1308Y1937D01*
X1304Y1937D01*
X1304Y1939D01*
X1302Y1939D01*
X1302Y1941D01*
X1298Y1941D01*
X1298Y1943D01*
X1294Y1943D01*
X1294Y1945D01*
X1290Y1945D01*
X1290Y1947D01*
X1286Y1947D01*
X1286Y1949D01*
X1282Y1949D01*
X1282Y1951D01*
X1278Y1951D01*
X1278Y1953D01*
X1276Y1953D01*
X1276Y1955D01*
X1272Y1955D01*
X1272Y1957D01*
X1268Y1957D01*
X1268Y1959D01*
X1264Y1959D01*
X1264Y1961D01*
X1260Y1961D01*
X1260Y1963D01*
X1256Y1963D01*
X1256Y1965D01*
X1252Y1965D01*
X1252Y1967D01*
X1250Y1967D01*
X1250Y1969D01*
X1246Y1969D01*
X1246Y1971D01*
X1242Y1971D01*
X1242Y1973D01*
X1238Y1973D01*
X1238Y1975D01*
X1234Y1975D01*
X1234Y1977D01*
X1230Y1977D01*
X1230Y1979D01*
X1226Y1979D01*
X1226Y1981D01*
X1224Y1981D01*
X1224Y1983D01*
X1220Y1983D01*
X1220Y1985D01*
X1216Y1985D01*
X1216Y1987D01*
X1212Y1987D01*
X1212Y1989D01*
X1190Y1989D01*
G37*
D02*
G36*
X982Y1863D02*
X982Y1857D01*
X980Y1857D01*
X980Y1851D01*
X978Y1851D01*
X978Y1847D01*
X976Y1847D01*
X976Y1845D01*
X974Y1845D01*
X974Y1843D01*
X972Y1843D01*
X972Y1841D01*
X970Y1841D01*
X970Y1839D01*
X968Y1839D01*
X968Y1837D01*
X966Y1837D01*
X966Y1835D01*
X964Y1835D01*
X964Y1833D01*
X960Y1833D01*
X960Y1831D01*
X954Y1831D01*
X954Y1829D01*
X946Y1829D01*
X946Y1827D01*
X1040Y1827D01*
X1040Y1829D01*
X1032Y1829D01*
X1032Y1831D01*
X1026Y1831D01*
X1026Y1833D01*
X1022Y1833D01*
X1022Y1835D01*
X1020Y1835D01*
X1020Y1837D01*
X1018Y1837D01*
X1018Y1839D01*
X1014Y1839D01*
X1014Y1843D01*
X1012Y1843D01*
X1012Y1845D01*
X1010Y1845D01*
X1010Y1847D01*
X1008Y1847D01*
X1008Y1851D01*
X1006Y1851D01*
X1006Y1855D01*
X1004Y1855D01*
X1004Y1863D01*
X982Y1863D01*
G37*
D02*
G36*
X40Y1827D02*
X40Y1825D01*
X1040Y1825D01*
X1040Y1827D01*
X40Y1827D01*
G37*
D02*
G36*
X40Y1827D02*
X40Y1825D01*
X1040Y1825D01*
X1040Y1827D01*
X40Y1827D01*
G37*
D02*
G36*
X40Y1825D02*
X40Y1561D01*
X624Y1561D01*
X624Y1559D01*
X632Y1559D01*
X632Y1557D01*
X636Y1557D01*
X636Y1555D01*
X638Y1555D01*
X638Y1553D01*
X642Y1553D01*
X642Y1551D01*
X644Y1551D01*
X644Y1549D01*
X646Y1549D01*
X646Y1547D01*
X648Y1547D01*
X648Y1545D01*
X650Y1545D01*
X650Y1543D01*
X652Y1543D01*
X652Y1541D01*
X672Y1541D01*
X672Y1543D01*
X674Y1543D01*
X674Y1545D01*
X676Y1545D01*
X676Y1547D01*
X678Y1547D01*
X678Y1549D01*
X680Y1549D01*
X680Y1551D01*
X682Y1551D01*
X682Y1553D01*
X686Y1553D01*
X686Y1555D01*
X690Y1555D01*
X690Y1557D01*
X694Y1557D01*
X694Y1559D01*
X700Y1559D01*
X700Y1561D01*
X738Y1561D01*
X738Y1563D01*
X740Y1563D01*
X740Y1565D01*
X742Y1565D01*
X742Y1567D01*
X746Y1567D01*
X746Y1569D01*
X748Y1569D01*
X748Y1571D01*
X750Y1571D01*
X750Y1573D01*
X752Y1573D01*
X752Y1575D01*
X756Y1575D01*
X756Y1577D01*
X758Y1577D01*
X758Y1579D01*
X760Y1579D01*
X760Y1581D01*
X762Y1581D01*
X762Y1583D01*
X764Y1583D01*
X764Y1585D01*
X768Y1585D01*
X768Y1587D01*
X770Y1587D01*
X770Y1589D01*
X772Y1589D01*
X772Y1591D01*
X774Y1591D01*
X774Y1593D01*
X778Y1593D01*
X778Y1595D01*
X780Y1595D01*
X780Y1597D01*
X782Y1597D01*
X782Y1599D01*
X784Y1599D01*
X784Y1601D01*
X786Y1601D01*
X786Y1603D01*
X790Y1603D01*
X790Y1605D01*
X792Y1605D01*
X792Y1607D01*
X794Y1607D01*
X794Y1609D01*
X796Y1609D01*
X796Y1611D01*
X800Y1611D01*
X800Y1613D01*
X802Y1613D01*
X802Y1615D01*
X804Y1615D01*
X804Y1617D01*
X806Y1617D01*
X806Y1619D01*
X808Y1619D01*
X808Y1621D01*
X812Y1621D01*
X812Y1623D01*
X814Y1623D01*
X814Y1625D01*
X816Y1625D01*
X816Y1627D01*
X818Y1627D01*
X818Y1629D01*
X820Y1629D01*
X820Y1631D01*
X824Y1631D01*
X824Y1633D01*
X826Y1633D01*
X826Y1635D01*
X828Y1635D01*
X828Y1637D01*
X830Y1637D01*
X830Y1639D01*
X834Y1639D01*
X834Y1641D01*
X836Y1641D01*
X836Y1643D01*
X838Y1643D01*
X838Y1645D01*
X840Y1645D01*
X840Y1647D01*
X842Y1647D01*
X842Y1649D01*
X846Y1649D01*
X846Y1651D01*
X848Y1651D01*
X848Y1653D01*
X850Y1653D01*
X850Y1655D01*
X852Y1655D01*
X852Y1657D01*
X856Y1657D01*
X856Y1659D01*
X858Y1659D01*
X858Y1661D01*
X860Y1661D01*
X860Y1663D01*
X862Y1663D01*
X862Y1665D01*
X864Y1665D01*
X864Y1667D01*
X868Y1667D01*
X868Y1669D01*
X870Y1669D01*
X870Y1671D01*
X872Y1671D01*
X872Y1673D01*
X874Y1673D01*
X874Y1675D01*
X878Y1675D01*
X878Y1677D01*
X880Y1677D01*
X880Y1679D01*
X882Y1679D01*
X882Y1681D01*
X884Y1681D01*
X884Y1683D01*
X886Y1683D01*
X886Y1685D01*
X890Y1685D01*
X890Y1687D01*
X892Y1687D01*
X892Y1689D01*
X894Y1689D01*
X894Y1691D01*
X896Y1691D01*
X896Y1693D01*
X900Y1693D01*
X900Y1695D01*
X902Y1695D01*
X902Y1697D01*
X904Y1697D01*
X904Y1699D01*
X906Y1699D01*
X906Y1701D01*
X908Y1701D01*
X908Y1703D01*
X912Y1703D01*
X912Y1705D01*
X914Y1705D01*
X914Y1707D01*
X916Y1707D01*
X916Y1709D01*
X918Y1709D01*
X918Y1711D01*
X922Y1711D01*
X922Y1713D01*
X924Y1713D01*
X924Y1715D01*
X926Y1715D01*
X926Y1717D01*
X928Y1717D01*
X928Y1719D01*
X930Y1719D01*
X930Y1721D01*
X934Y1721D01*
X934Y1723D01*
X936Y1723D01*
X936Y1725D01*
X938Y1725D01*
X938Y1727D01*
X940Y1727D01*
X940Y1729D01*
X944Y1729D01*
X944Y1731D01*
X946Y1731D01*
X946Y1733D01*
X948Y1733D01*
X948Y1735D01*
X950Y1735D01*
X950Y1737D01*
X952Y1737D01*
X952Y1739D01*
X956Y1739D01*
X956Y1741D01*
X958Y1741D01*
X958Y1743D01*
X960Y1743D01*
X960Y1745D01*
X962Y1745D01*
X962Y1747D01*
X966Y1747D01*
X966Y1749D01*
X968Y1749D01*
X968Y1751D01*
X970Y1751D01*
X970Y1753D01*
X972Y1753D01*
X972Y1755D01*
X974Y1755D01*
X974Y1757D01*
X978Y1757D01*
X978Y1759D01*
X980Y1759D01*
X980Y1761D01*
X982Y1761D01*
X982Y1763D01*
X984Y1763D01*
X984Y1765D01*
X986Y1765D01*
X986Y1767D01*
X990Y1767D01*
X990Y1769D01*
X992Y1769D01*
X992Y1771D01*
X994Y1771D01*
X994Y1773D01*
X996Y1773D01*
X996Y1775D01*
X1000Y1775D01*
X1000Y1777D01*
X1002Y1777D01*
X1002Y1779D01*
X1004Y1779D01*
X1004Y1781D01*
X1006Y1781D01*
X1006Y1783D01*
X1008Y1783D01*
X1008Y1785D01*
X1012Y1785D01*
X1012Y1787D01*
X1014Y1787D01*
X1014Y1789D01*
X1016Y1789D01*
X1016Y1791D01*
X1018Y1791D01*
X1018Y1793D01*
X1022Y1793D01*
X1022Y1795D01*
X1024Y1795D01*
X1024Y1797D01*
X1026Y1797D01*
X1026Y1799D01*
X1028Y1799D01*
X1028Y1801D01*
X1030Y1801D01*
X1030Y1803D01*
X1034Y1803D01*
X1034Y1805D01*
X1036Y1805D01*
X1036Y1807D01*
X1038Y1807D01*
X1038Y1809D01*
X1040Y1809D01*
X1040Y1825D01*
X40Y1825D01*
G37*
D02*
G36*
X1044Y1757D02*
X1044Y1755D01*
X1042Y1755D01*
X1042Y1753D01*
X1040Y1753D01*
X1040Y1751D01*
X1036Y1751D01*
X1036Y1749D01*
X1034Y1749D01*
X1034Y1747D01*
X1032Y1747D01*
X1032Y1745D01*
X1030Y1745D01*
X1030Y1743D01*
X1028Y1743D01*
X1028Y1741D01*
X1024Y1741D01*
X1024Y1739D01*
X1022Y1739D01*
X1022Y1737D01*
X1020Y1737D01*
X1020Y1735D01*
X1018Y1735D01*
X1018Y1733D01*
X1014Y1733D01*
X1014Y1731D01*
X1012Y1731D01*
X1012Y1729D01*
X1010Y1729D01*
X1010Y1727D01*
X1008Y1727D01*
X1008Y1725D01*
X1006Y1725D01*
X1006Y1723D01*
X1002Y1723D01*
X1002Y1721D01*
X1000Y1721D01*
X1000Y1719D01*
X998Y1719D01*
X998Y1717D01*
X996Y1717D01*
X996Y1715D01*
X992Y1715D01*
X992Y1713D01*
X990Y1713D01*
X990Y1711D01*
X988Y1711D01*
X988Y1709D01*
X986Y1709D01*
X986Y1707D01*
X984Y1707D01*
X984Y1705D01*
X980Y1705D01*
X980Y1703D01*
X978Y1703D01*
X978Y1701D01*
X976Y1701D01*
X976Y1699D01*
X974Y1699D01*
X974Y1697D01*
X970Y1697D01*
X970Y1695D01*
X968Y1695D01*
X968Y1693D01*
X966Y1693D01*
X966Y1691D01*
X964Y1691D01*
X964Y1689D01*
X962Y1689D01*
X962Y1687D01*
X958Y1687D01*
X958Y1685D01*
X956Y1685D01*
X956Y1683D01*
X954Y1683D01*
X954Y1681D01*
X952Y1681D01*
X952Y1679D01*
X950Y1679D01*
X950Y1677D01*
X946Y1677D01*
X946Y1675D01*
X944Y1675D01*
X944Y1673D01*
X942Y1673D01*
X942Y1671D01*
X940Y1671D01*
X940Y1669D01*
X936Y1669D01*
X936Y1667D01*
X1406Y1667D01*
X1406Y1669D01*
X1398Y1669D01*
X1398Y1671D01*
X1394Y1671D01*
X1394Y1673D01*
X1390Y1673D01*
X1390Y1675D01*
X1386Y1675D01*
X1386Y1677D01*
X1384Y1677D01*
X1384Y1679D01*
X1382Y1679D01*
X1382Y1681D01*
X1380Y1681D01*
X1380Y1683D01*
X1378Y1683D01*
X1378Y1685D01*
X1376Y1685D01*
X1376Y1687D01*
X1374Y1687D01*
X1374Y1691D01*
X1372Y1691D01*
X1372Y1695D01*
X1370Y1695D01*
X1370Y1701D01*
X1368Y1701D01*
X1368Y1723D01*
X1370Y1723D01*
X1370Y1731D01*
X1372Y1731D01*
X1372Y1733D01*
X1374Y1733D01*
X1374Y1737D01*
X1376Y1737D01*
X1376Y1741D01*
X1378Y1741D01*
X1378Y1743D01*
X1380Y1743D01*
X1380Y1745D01*
X1382Y1745D01*
X1382Y1747D01*
X1384Y1747D01*
X1384Y1749D01*
X1388Y1749D01*
X1388Y1751D01*
X1392Y1751D01*
X1392Y1753D01*
X1394Y1753D01*
X1394Y1755D01*
X1402Y1755D01*
X1402Y1757D01*
X1044Y1757D01*
G37*
D02*
G36*
X1424Y1757D02*
X1424Y1755D01*
X1430Y1755D01*
X1430Y1753D01*
X1434Y1753D01*
X1434Y1751D01*
X1436Y1751D01*
X1436Y1749D01*
X1440Y1749D01*
X1440Y1747D01*
X1442Y1747D01*
X1442Y1745D01*
X1444Y1745D01*
X1444Y1743D01*
X1446Y1743D01*
X1446Y1741D01*
X1448Y1741D01*
X1448Y1739D01*
X1450Y1739D01*
X1450Y1735D01*
X1452Y1735D01*
X1452Y1731D01*
X1472Y1731D01*
X1472Y1733D01*
X1474Y1733D01*
X1474Y1737D01*
X1476Y1737D01*
X1476Y1741D01*
X1478Y1741D01*
X1478Y1743D01*
X1480Y1743D01*
X1480Y1745D01*
X1482Y1745D01*
X1482Y1747D01*
X1484Y1747D01*
X1484Y1749D01*
X1488Y1749D01*
X1488Y1751D01*
X1492Y1751D01*
X1492Y1753D01*
X1494Y1753D01*
X1494Y1755D01*
X1502Y1755D01*
X1502Y1757D01*
X1424Y1757D01*
G37*
D02*
G36*
X1452Y1693D02*
X1452Y1691D01*
X1450Y1691D01*
X1450Y1687D01*
X1448Y1687D01*
X1448Y1685D01*
X1446Y1685D01*
X1446Y1681D01*
X1444Y1681D01*
X1444Y1679D01*
X1440Y1679D01*
X1440Y1677D01*
X1438Y1677D01*
X1438Y1675D01*
X1436Y1675D01*
X1436Y1673D01*
X1432Y1673D01*
X1432Y1671D01*
X1426Y1671D01*
X1426Y1669D01*
X1418Y1669D01*
X1418Y1667D01*
X1506Y1667D01*
X1506Y1669D01*
X1498Y1669D01*
X1498Y1671D01*
X1494Y1671D01*
X1494Y1673D01*
X1490Y1673D01*
X1490Y1675D01*
X1486Y1675D01*
X1486Y1677D01*
X1484Y1677D01*
X1484Y1679D01*
X1482Y1679D01*
X1482Y1681D01*
X1480Y1681D01*
X1480Y1683D01*
X1478Y1683D01*
X1478Y1685D01*
X1476Y1685D01*
X1476Y1687D01*
X1474Y1687D01*
X1474Y1691D01*
X1472Y1691D01*
X1472Y1693D01*
X1452Y1693D01*
G37*
D02*
G36*
X1552Y1693D02*
X1552Y1691D01*
X1550Y1691D01*
X1550Y1687D01*
X1548Y1687D01*
X1548Y1685D01*
X1546Y1685D01*
X1546Y1681D01*
X1544Y1681D01*
X1544Y1679D01*
X1540Y1679D01*
X1540Y1677D01*
X1538Y1677D01*
X1538Y1675D01*
X1536Y1675D01*
X1536Y1673D01*
X1532Y1673D01*
X1532Y1671D01*
X1526Y1671D01*
X1526Y1669D01*
X1518Y1669D01*
X1518Y1667D01*
X1606Y1667D01*
X1606Y1669D01*
X1598Y1669D01*
X1598Y1671D01*
X1594Y1671D01*
X1594Y1673D01*
X1590Y1673D01*
X1590Y1675D01*
X1586Y1675D01*
X1586Y1677D01*
X1584Y1677D01*
X1584Y1679D01*
X1582Y1679D01*
X1582Y1681D01*
X1580Y1681D01*
X1580Y1683D01*
X1578Y1683D01*
X1578Y1685D01*
X1576Y1685D01*
X1576Y1687D01*
X1574Y1687D01*
X1574Y1691D01*
X1572Y1691D01*
X1572Y1693D01*
X1552Y1693D01*
G37*
D02*
G36*
X1652Y1693D02*
X1652Y1691D01*
X1650Y1691D01*
X1650Y1687D01*
X1648Y1687D01*
X1648Y1685D01*
X1646Y1685D01*
X1646Y1681D01*
X1644Y1681D01*
X1644Y1679D01*
X1640Y1679D01*
X1640Y1677D01*
X1638Y1677D01*
X1638Y1675D01*
X1636Y1675D01*
X1636Y1673D01*
X1632Y1673D01*
X1632Y1671D01*
X1626Y1671D01*
X1626Y1669D01*
X1618Y1669D01*
X1618Y1667D01*
X1706Y1667D01*
X1706Y1669D01*
X1698Y1669D01*
X1698Y1671D01*
X1694Y1671D01*
X1694Y1673D01*
X1690Y1673D01*
X1690Y1675D01*
X1686Y1675D01*
X1686Y1677D01*
X1684Y1677D01*
X1684Y1679D01*
X1682Y1679D01*
X1682Y1681D01*
X1680Y1681D01*
X1680Y1683D01*
X1678Y1683D01*
X1678Y1685D01*
X1676Y1685D01*
X1676Y1687D01*
X1674Y1687D01*
X1674Y1691D01*
X1672Y1691D01*
X1672Y1693D01*
X1652Y1693D01*
G37*
D02*
G36*
X1752Y1693D02*
X1752Y1691D01*
X1750Y1691D01*
X1750Y1687D01*
X1748Y1687D01*
X1748Y1685D01*
X1746Y1685D01*
X1746Y1681D01*
X1744Y1681D01*
X1744Y1679D01*
X1740Y1679D01*
X1740Y1677D01*
X1738Y1677D01*
X1738Y1675D01*
X1736Y1675D01*
X1736Y1673D01*
X1732Y1673D01*
X1732Y1671D01*
X1726Y1671D01*
X1726Y1669D01*
X1718Y1669D01*
X1718Y1667D01*
X1806Y1667D01*
X1806Y1669D01*
X1798Y1669D01*
X1798Y1671D01*
X1794Y1671D01*
X1794Y1673D01*
X1790Y1673D01*
X1790Y1675D01*
X1786Y1675D01*
X1786Y1677D01*
X1784Y1677D01*
X1784Y1679D01*
X1782Y1679D01*
X1782Y1681D01*
X1780Y1681D01*
X1780Y1683D01*
X1778Y1683D01*
X1778Y1685D01*
X1776Y1685D01*
X1776Y1687D01*
X1774Y1687D01*
X1774Y1691D01*
X1772Y1691D01*
X1772Y1693D01*
X1752Y1693D01*
G37*
D02*
G36*
X1852Y1693D02*
X1852Y1691D01*
X1850Y1691D01*
X1850Y1687D01*
X1848Y1687D01*
X1848Y1685D01*
X1846Y1685D01*
X1846Y1681D01*
X1844Y1681D01*
X1844Y1679D01*
X1840Y1679D01*
X1840Y1677D01*
X1838Y1677D01*
X1838Y1675D01*
X1836Y1675D01*
X1836Y1673D01*
X1832Y1673D01*
X1832Y1671D01*
X1826Y1671D01*
X1826Y1669D01*
X1818Y1669D01*
X1818Y1667D01*
X1906Y1667D01*
X1906Y1669D01*
X1898Y1669D01*
X1898Y1671D01*
X1894Y1671D01*
X1894Y1673D01*
X1890Y1673D01*
X1890Y1675D01*
X1886Y1675D01*
X1886Y1677D01*
X1884Y1677D01*
X1884Y1679D01*
X1882Y1679D01*
X1882Y1681D01*
X1880Y1681D01*
X1880Y1683D01*
X1878Y1683D01*
X1878Y1685D01*
X1876Y1685D01*
X1876Y1687D01*
X1874Y1687D01*
X1874Y1691D01*
X1872Y1691D01*
X1872Y1693D01*
X1852Y1693D01*
G37*
D02*
G36*
X1952Y1693D02*
X1952Y1691D01*
X1950Y1691D01*
X1950Y1687D01*
X1948Y1687D01*
X1948Y1685D01*
X1946Y1685D01*
X1946Y1681D01*
X1944Y1681D01*
X1944Y1679D01*
X1940Y1679D01*
X1940Y1677D01*
X1938Y1677D01*
X1938Y1675D01*
X1936Y1675D01*
X1936Y1673D01*
X1932Y1673D01*
X1932Y1671D01*
X1926Y1671D01*
X1926Y1669D01*
X1918Y1669D01*
X1918Y1667D01*
X2006Y1667D01*
X2006Y1669D01*
X1998Y1669D01*
X1998Y1671D01*
X1994Y1671D01*
X1994Y1673D01*
X1990Y1673D01*
X1990Y1675D01*
X1986Y1675D01*
X1986Y1677D01*
X1984Y1677D01*
X1984Y1679D01*
X1982Y1679D01*
X1982Y1681D01*
X1980Y1681D01*
X1980Y1683D01*
X1978Y1683D01*
X1978Y1685D01*
X1976Y1685D01*
X1976Y1687D01*
X1974Y1687D01*
X1974Y1691D01*
X1972Y1691D01*
X1972Y1693D01*
X1952Y1693D01*
G37*
D02*
G36*
X934Y1667D02*
X934Y1665D01*
X2492Y1665D01*
X2492Y1667D01*
X934Y1667D01*
G37*
D02*
G36*
X934Y1667D02*
X934Y1665D01*
X2492Y1665D01*
X2492Y1667D01*
X934Y1667D01*
G37*
D02*
G36*
X934Y1667D02*
X934Y1665D01*
X2492Y1665D01*
X2492Y1667D01*
X934Y1667D01*
G37*
D02*
G36*
X934Y1667D02*
X934Y1665D01*
X2492Y1665D01*
X2492Y1667D01*
X934Y1667D01*
G37*
D02*
G36*
X934Y1667D02*
X934Y1665D01*
X2492Y1665D01*
X2492Y1667D01*
X934Y1667D01*
G37*
D02*
G36*
X934Y1667D02*
X934Y1665D01*
X2492Y1665D01*
X2492Y1667D01*
X934Y1667D01*
G37*
D02*
G36*
X934Y1667D02*
X934Y1665D01*
X2492Y1665D01*
X2492Y1667D01*
X934Y1667D01*
G37*
D02*
G36*
X934Y1667D02*
X934Y1665D01*
X2492Y1665D01*
X2492Y1667D01*
X934Y1667D01*
G37*
D02*
G36*
X932Y1665D02*
X932Y1663D01*
X930Y1663D01*
X930Y1661D01*
X928Y1661D01*
X928Y1659D01*
X924Y1659D01*
X924Y1657D01*
X922Y1657D01*
X922Y1655D01*
X920Y1655D01*
X920Y1653D01*
X918Y1653D01*
X918Y1651D01*
X914Y1651D01*
X914Y1649D01*
X912Y1649D01*
X912Y1647D01*
X910Y1647D01*
X910Y1645D01*
X908Y1645D01*
X908Y1643D01*
X906Y1643D01*
X906Y1641D01*
X902Y1641D01*
X902Y1639D01*
X900Y1639D01*
X900Y1637D01*
X898Y1637D01*
X898Y1635D01*
X896Y1635D01*
X896Y1633D01*
X892Y1633D01*
X892Y1631D01*
X890Y1631D01*
X890Y1629D01*
X888Y1629D01*
X888Y1627D01*
X886Y1627D01*
X886Y1625D01*
X884Y1625D01*
X884Y1623D01*
X880Y1623D01*
X880Y1621D01*
X878Y1621D01*
X878Y1619D01*
X876Y1619D01*
X876Y1617D01*
X874Y1617D01*
X874Y1615D01*
X870Y1615D01*
X870Y1613D01*
X868Y1613D01*
X868Y1611D01*
X866Y1611D01*
X866Y1609D01*
X864Y1609D01*
X864Y1607D01*
X862Y1607D01*
X862Y1605D01*
X858Y1605D01*
X858Y1603D01*
X856Y1603D01*
X856Y1601D01*
X854Y1601D01*
X854Y1599D01*
X852Y1599D01*
X852Y1597D01*
X848Y1597D01*
X848Y1595D01*
X846Y1595D01*
X846Y1593D01*
X844Y1593D01*
X844Y1591D01*
X842Y1591D01*
X842Y1589D01*
X840Y1589D01*
X840Y1587D01*
X836Y1587D01*
X836Y1585D01*
X834Y1585D01*
X834Y1583D01*
X832Y1583D01*
X832Y1581D01*
X830Y1581D01*
X830Y1579D01*
X826Y1579D01*
X826Y1559D01*
X832Y1559D01*
X832Y1557D01*
X836Y1557D01*
X836Y1555D01*
X838Y1555D01*
X838Y1553D01*
X842Y1553D01*
X842Y1551D01*
X844Y1551D01*
X844Y1549D01*
X846Y1549D01*
X846Y1547D01*
X848Y1547D01*
X848Y1545D01*
X850Y1545D01*
X850Y1543D01*
X2054Y1543D01*
X2054Y1381D01*
X2492Y1381D01*
X2492Y1665D01*
X932Y1665D01*
G37*
D02*
G36*
X40Y1561D02*
X40Y1463D01*
X504Y1463D01*
X504Y1465D01*
X496Y1465D01*
X496Y1467D01*
X492Y1467D01*
X492Y1469D01*
X488Y1469D01*
X488Y1471D01*
X484Y1471D01*
X484Y1473D01*
X482Y1473D01*
X482Y1475D01*
X480Y1475D01*
X480Y1477D01*
X478Y1477D01*
X478Y1479D01*
X476Y1479D01*
X476Y1481D01*
X474Y1481D01*
X474Y1483D01*
X472Y1483D01*
X472Y1485D01*
X470Y1485D01*
X470Y1489D01*
X468Y1489D01*
X468Y1493D01*
X466Y1493D01*
X466Y1499D01*
X464Y1499D01*
X464Y1511D01*
X462Y1511D01*
X462Y1515D01*
X464Y1515D01*
X464Y1525D01*
X466Y1525D01*
X466Y1533D01*
X468Y1533D01*
X468Y1535D01*
X470Y1535D01*
X470Y1539D01*
X472Y1539D01*
X472Y1543D01*
X474Y1543D01*
X474Y1545D01*
X476Y1545D01*
X476Y1547D01*
X478Y1547D01*
X478Y1549D01*
X480Y1549D01*
X480Y1551D01*
X482Y1551D01*
X482Y1553D01*
X486Y1553D01*
X486Y1555D01*
X490Y1555D01*
X490Y1557D01*
X494Y1557D01*
X494Y1559D01*
X500Y1559D01*
X500Y1561D01*
X40Y1561D01*
G37*
D02*
G36*
X526Y1561D02*
X526Y1559D01*
X532Y1559D01*
X532Y1557D01*
X536Y1557D01*
X536Y1555D01*
X538Y1555D01*
X538Y1553D01*
X542Y1553D01*
X542Y1551D01*
X544Y1551D01*
X544Y1549D01*
X546Y1549D01*
X546Y1547D01*
X548Y1547D01*
X548Y1545D01*
X550Y1545D01*
X550Y1543D01*
X552Y1543D01*
X552Y1541D01*
X572Y1541D01*
X572Y1543D01*
X574Y1543D01*
X574Y1545D01*
X576Y1545D01*
X576Y1547D01*
X578Y1547D01*
X578Y1549D01*
X580Y1549D01*
X580Y1551D01*
X582Y1551D01*
X582Y1553D01*
X586Y1553D01*
X586Y1555D01*
X590Y1555D01*
X590Y1557D01*
X594Y1557D01*
X594Y1559D01*
X600Y1559D01*
X600Y1561D01*
X526Y1561D01*
G37*
D02*
G36*
X3234Y1561D02*
X3234Y1555D01*
X3238Y1555D01*
X3238Y1553D01*
X3240Y1553D01*
X3240Y1551D01*
X3244Y1551D01*
X3244Y1549D01*
X3246Y1549D01*
X3246Y1547D01*
X3248Y1547D01*
X3248Y1545D01*
X3250Y1545D01*
X3250Y1543D01*
X3252Y1543D01*
X3252Y1539D01*
X3272Y1539D01*
X3272Y1541D01*
X3274Y1541D01*
X3274Y1543D01*
X3276Y1543D01*
X3276Y1547D01*
X3278Y1547D01*
X3278Y1549D01*
X3282Y1549D01*
X3282Y1551D01*
X3284Y1551D01*
X3284Y1553D01*
X3286Y1553D01*
X3286Y1555D01*
X3290Y1555D01*
X3290Y1557D01*
X3294Y1557D01*
X3294Y1559D01*
X3302Y1559D01*
X3302Y1561D01*
X3234Y1561D01*
G37*
D02*
G36*
X852Y1543D02*
X852Y1541D01*
X854Y1541D01*
X854Y1537D01*
X856Y1537D01*
X856Y1533D01*
X858Y1533D01*
X858Y1527D01*
X860Y1527D01*
X860Y1521D01*
X862Y1521D01*
X862Y1505D01*
X860Y1505D01*
X860Y1497D01*
X858Y1497D01*
X858Y1491D01*
X856Y1491D01*
X856Y1489D01*
X854Y1489D01*
X854Y1485D01*
X852Y1485D01*
X852Y1483D01*
X850Y1483D01*
X850Y1479D01*
X848Y1479D01*
X848Y1477D01*
X846Y1477D01*
X846Y1475D01*
X842Y1475D01*
X842Y1473D01*
X840Y1473D01*
X840Y1471D01*
X838Y1471D01*
X838Y1469D01*
X834Y1469D01*
X834Y1467D01*
X828Y1467D01*
X828Y1465D01*
X822Y1465D01*
X822Y1463D01*
X1370Y1463D01*
X1370Y1543D01*
X852Y1543D01*
G37*
D02*
G36*
X1452Y1543D02*
X1452Y1381D01*
X1974Y1381D01*
X1974Y1383D01*
X1972Y1383D01*
X1972Y1543D01*
X1452Y1543D01*
G37*
D02*
G36*
X552Y1485D02*
X552Y1483D01*
X550Y1483D01*
X550Y1479D01*
X548Y1479D01*
X548Y1477D01*
X546Y1477D01*
X546Y1475D01*
X542Y1475D01*
X542Y1473D01*
X540Y1473D01*
X540Y1471D01*
X538Y1471D01*
X538Y1469D01*
X534Y1469D01*
X534Y1467D01*
X528Y1467D01*
X528Y1465D01*
X522Y1465D01*
X522Y1463D01*
X604Y1463D01*
X604Y1465D01*
X596Y1465D01*
X596Y1467D01*
X592Y1467D01*
X592Y1469D01*
X588Y1469D01*
X588Y1471D01*
X584Y1471D01*
X584Y1473D01*
X582Y1473D01*
X582Y1475D01*
X580Y1475D01*
X580Y1477D01*
X578Y1477D01*
X578Y1479D01*
X576Y1479D01*
X576Y1481D01*
X574Y1481D01*
X574Y1483D01*
X572Y1483D01*
X572Y1485D01*
X552Y1485D01*
G37*
D02*
G36*
X652Y1485D02*
X652Y1483D01*
X650Y1483D01*
X650Y1479D01*
X648Y1479D01*
X648Y1477D01*
X646Y1477D01*
X646Y1475D01*
X642Y1475D01*
X642Y1473D01*
X640Y1473D01*
X640Y1471D01*
X638Y1471D01*
X638Y1469D01*
X634Y1469D01*
X634Y1467D01*
X628Y1467D01*
X628Y1465D01*
X622Y1465D01*
X622Y1463D01*
X704Y1463D01*
X704Y1465D01*
X696Y1465D01*
X696Y1467D01*
X692Y1467D01*
X692Y1469D01*
X688Y1469D01*
X688Y1471D01*
X684Y1471D01*
X684Y1473D01*
X682Y1473D01*
X682Y1475D01*
X680Y1475D01*
X680Y1477D01*
X678Y1477D01*
X678Y1479D01*
X676Y1479D01*
X676Y1481D01*
X674Y1481D01*
X674Y1483D01*
X672Y1483D01*
X672Y1485D01*
X652Y1485D01*
G37*
D02*
G36*
X752Y1485D02*
X752Y1483D01*
X750Y1483D01*
X750Y1479D01*
X748Y1479D01*
X748Y1477D01*
X746Y1477D01*
X746Y1475D01*
X742Y1475D01*
X742Y1473D01*
X740Y1473D01*
X740Y1471D01*
X738Y1471D01*
X738Y1469D01*
X734Y1469D01*
X734Y1467D01*
X728Y1467D01*
X728Y1465D01*
X722Y1465D01*
X722Y1463D01*
X804Y1463D01*
X804Y1465D01*
X796Y1465D01*
X796Y1467D01*
X792Y1467D01*
X792Y1469D01*
X788Y1469D01*
X788Y1471D01*
X784Y1471D01*
X784Y1473D01*
X782Y1473D01*
X782Y1475D01*
X780Y1475D01*
X780Y1477D01*
X778Y1477D01*
X778Y1479D01*
X776Y1479D01*
X776Y1481D01*
X774Y1481D01*
X774Y1483D01*
X772Y1483D01*
X772Y1485D01*
X752Y1485D01*
G37*
D02*
G36*
X3252Y1485D02*
X3252Y1483D01*
X3250Y1483D01*
X3250Y1481D01*
X3248Y1481D01*
X3248Y1479D01*
X3246Y1479D01*
X3246Y1477D01*
X3244Y1477D01*
X3244Y1475D01*
X3242Y1475D01*
X3242Y1473D01*
X3240Y1473D01*
X3240Y1471D01*
X3236Y1471D01*
X3236Y1469D01*
X3232Y1469D01*
X3232Y1467D01*
X3226Y1467D01*
X3226Y1465D01*
X3218Y1465D01*
X3218Y1463D01*
X3306Y1463D01*
X3306Y1465D01*
X3298Y1465D01*
X3298Y1467D01*
X3292Y1467D01*
X3292Y1469D01*
X3288Y1469D01*
X3288Y1471D01*
X3284Y1471D01*
X3284Y1473D01*
X3282Y1473D01*
X3282Y1475D01*
X3280Y1475D01*
X3280Y1477D01*
X3278Y1477D01*
X3278Y1479D01*
X3276Y1479D01*
X3276Y1481D01*
X3274Y1481D01*
X3274Y1483D01*
X3272Y1483D01*
X3272Y1485D01*
X3252Y1485D01*
G37*
D02*
G36*
X40Y1463D02*
X40Y1461D01*
X1370Y1461D01*
X1370Y1463D01*
X40Y1463D01*
G37*
D02*
G36*
X40Y1463D02*
X40Y1461D01*
X1370Y1461D01*
X1370Y1463D01*
X40Y1463D01*
G37*
D02*
G36*
X40Y1463D02*
X40Y1461D01*
X1370Y1461D01*
X1370Y1463D01*
X40Y1463D01*
G37*
D02*
G36*
X40Y1463D02*
X40Y1461D01*
X1370Y1461D01*
X1370Y1463D01*
X40Y1463D01*
G37*
D02*
G36*
X40Y1463D02*
X40Y1461D01*
X1370Y1461D01*
X1370Y1463D01*
X40Y1463D01*
G37*
D02*
G36*
X2536Y1463D02*
X2536Y1461D01*
X3442Y1461D01*
X3442Y1463D01*
X2536Y1463D01*
G37*
D02*
G36*
X2536Y1463D02*
X2536Y1461D01*
X3442Y1461D01*
X3442Y1463D01*
X2536Y1463D01*
G37*
D02*
G36*
X2536Y1463D02*
X2536Y1461D01*
X3442Y1461D01*
X3442Y1463D01*
X2536Y1463D01*
G37*
D02*
G36*
X40Y1461D02*
X40Y1381D01*
X1372Y1381D01*
X1372Y1383D01*
X1370Y1383D01*
X1370Y1461D01*
X40Y1461D01*
G37*
D02*
G36*
X2536Y1461D02*
X2536Y1361D01*
X3324Y1361D01*
X3324Y1359D01*
X3330Y1359D01*
X3330Y1357D01*
X3334Y1357D01*
X3334Y1355D01*
X3338Y1355D01*
X3338Y1353D01*
X3340Y1353D01*
X3340Y1351D01*
X3344Y1351D01*
X3344Y1349D01*
X3346Y1349D01*
X3346Y1347D01*
X3348Y1347D01*
X3348Y1345D01*
X3350Y1345D01*
X3350Y1343D01*
X3352Y1343D01*
X3352Y1339D01*
X3354Y1339D01*
X3354Y1335D01*
X3356Y1335D01*
X3356Y1333D01*
X3358Y1333D01*
X3358Y1327D01*
X3360Y1327D01*
X3360Y1317D01*
X3362Y1317D01*
X3362Y1307D01*
X3360Y1307D01*
X3360Y1299D01*
X3358Y1299D01*
X3358Y1293D01*
X3356Y1293D01*
X3356Y1289D01*
X3354Y1289D01*
X3354Y1285D01*
X3352Y1285D01*
X3352Y1283D01*
X3350Y1283D01*
X3350Y1281D01*
X3348Y1281D01*
X3348Y1279D01*
X3346Y1279D01*
X3346Y1277D01*
X3344Y1277D01*
X3344Y1275D01*
X3342Y1275D01*
X3342Y1273D01*
X3340Y1273D01*
X3340Y1271D01*
X3336Y1271D01*
X3336Y1269D01*
X3332Y1269D01*
X3332Y1267D01*
X3326Y1267D01*
X3326Y1265D01*
X3318Y1265D01*
X3318Y1263D01*
X3442Y1263D01*
X3442Y1461D01*
X2536Y1461D01*
G37*
D02*
G36*
X40Y1381D02*
X40Y1379D01*
X2492Y1379D01*
X2492Y1381D01*
X40Y1381D01*
G37*
D02*
G36*
X40Y1381D02*
X40Y1379D01*
X2492Y1379D01*
X2492Y1381D01*
X40Y1381D01*
G37*
D02*
G36*
X40Y1381D02*
X40Y1379D01*
X2492Y1379D01*
X2492Y1381D01*
X40Y1381D01*
G37*
D02*
G36*
X40Y1379D02*
X40Y1291D01*
X2128Y1291D01*
X2128Y1289D01*
X2136Y1289D01*
X2136Y1287D01*
X2142Y1287D01*
X2142Y1285D01*
X2146Y1285D01*
X2146Y1283D01*
X2150Y1283D01*
X2150Y1281D01*
X2154Y1281D01*
X2154Y1279D01*
X2156Y1279D01*
X2156Y1277D01*
X2160Y1277D01*
X2160Y1275D01*
X2162Y1275D01*
X2162Y1273D01*
X2164Y1273D01*
X2164Y1271D01*
X2166Y1271D01*
X2166Y1269D01*
X2168Y1269D01*
X2168Y1267D01*
X2170Y1267D01*
X2170Y1265D01*
X2172Y1265D01*
X2172Y1263D01*
X2174Y1263D01*
X2174Y1261D01*
X2176Y1261D01*
X2176Y1257D01*
X2178Y1257D01*
X2178Y1255D01*
X2180Y1255D01*
X2180Y1251D01*
X2182Y1251D01*
X2182Y1247D01*
X2184Y1247D01*
X2184Y1243D01*
X2186Y1243D01*
X2186Y1239D01*
X2188Y1239D01*
X2188Y1231D01*
X2190Y1231D01*
X2190Y1221D01*
X2192Y1221D01*
X2192Y1205D01*
X2190Y1205D01*
X2190Y1193D01*
X2188Y1193D01*
X2188Y1187D01*
X2186Y1187D01*
X2186Y1181D01*
X2184Y1181D01*
X2184Y1177D01*
X2182Y1177D01*
X2182Y1173D01*
X2180Y1173D01*
X2180Y1171D01*
X2178Y1171D01*
X2178Y1167D01*
X2176Y1167D01*
X2176Y1165D01*
X2174Y1165D01*
X2174Y1161D01*
X2172Y1161D01*
X2172Y1159D01*
X2170Y1159D01*
X2170Y1157D01*
X2168Y1157D01*
X2168Y1155D01*
X2166Y1155D01*
X2166Y1153D01*
X2164Y1153D01*
X2164Y1151D01*
X2160Y1151D01*
X2160Y1149D01*
X2158Y1149D01*
X2158Y1147D01*
X2156Y1147D01*
X2156Y1145D01*
X2152Y1145D01*
X2152Y1143D01*
X2148Y1143D01*
X2148Y1141D01*
X2144Y1141D01*
X2144Y1139D01*
X2138Y1139D01*
X2138Y1137D01*
X2132Y1137D01*
X2132Y1135D01*
X2122Y1135D01*
X2122Y1133D01*
X2492Y1133D01*
X2492Y1379D01*
X40Y1379D01*
G37*
D02*
G36*
X2536Y1361D02*
X2536Y1357D01*
X2924Y1357D01*
X2924Y1355D01*
X2930Y1355D01*
X2930Y1353D01*
X2934Y1353D01*
X2934Y1351D01*
X2938Y1351D01*
X2938Y1349D01*
X2940Y1349D01*
X2940Y1347D01*
X2942Y1347D01*
X2942Y1345D01*
X2944Y1345D01*
X2944Y1343D01*
X2946Y1343D01*
X2946Y1341D01*
X2948Y1341D01*
X2948Y1339D01*
X2950Y1339D01*
X2950Y1337D01*
X3048Y1337D01*
X3048Y1335D01*
X3170Y1335D01*
X3170Y1339D01*
X3172Y1339D01*
X3172Y1341D01*
X3174Y1341D01*
X3174Y1343D01*
X3176Y1343D01*
X3176Y1347D01*
X3178Y1347D01*
X3178Y1349D01*
X3182Y1349D01*
X3182Y1351D01*
X3184Y1351D01*
X3184Y1353D01*
X3186Y1353D01*
X3186Y1355D01*
X3190Y1355D01*
X3190Y1357D01*
X3194Y1357D01*
X3194Y1359D01*
X3202Y1359D01*
X3202Y1361D01*
X2536Y1361D01*
G37*
D02*
G36*
X3224Y1361D02*
X3224Y1359D01*
X3230Y1359D01*
X3230Y1357D01*
X3234Y1357D01*
X3234Y1355D01*
X3238Y1355D01*
X3238Y1353D01*
X3240Y1353D01*
X3240Y1351D01*
X3244Y1351D01*
X3244Y1349D01*
X3246Y1349D01*
X3246Y1347D01*
X3248Y1347D01*
X3248Y1345D01*
X3250Y1345D01*
X3250Y1343D01*
X3252Y1343D01*
X3252Y1339D01*
X3272Y1339D01*
X3272Y1341D01*
X3274Y1341D01*
X3274Y1343D01*
X3276Y1343D01*
X3276Y1347D01*
X3278Y1347D01*
X3278Y1349D01*
X3282Y1349D01*
X3282Y1351D01*
X3284Y1351D01*
X3284Y1353D01*
X3286Y1353D01*
X3286Y1355D01*
X3290Y1355D01*
X3290Y1357D01*
X3294Y1357D01*
X3294Y1359D01*
X3302Y1359D01*
X3302Y1361D01*
X3224Y1361D01*
G37*
D02*
G36*
X2536Y1357D02*
X2536Y1075D01*
X2802Y1075D01*
X2802Y1077D01*
X2796Y1077D01*
X2796Y1079D01*
X2792Y1079D01*
X2792Y1081D01*
X2788Y1081D01*
X2788Y1083D01*
X2786Y1083D01*
X2786Y1085D01*
X2784Y1085D01*
X2784Y1087D01*
X2782Y1087D01*
X2782Y1089D01*
X2780Y1089D01*
X2780Y1091D01*
X2778Y1091D01*
X2778Y1095D01*
X2776Y1095D01*
X2776Y1099D01*
X2774Y1099D01*
X2774Y1105D01*
X2772Y1105D01*
X2772Y1113D01*
X2770Y1113D01*
X2770Y1121D01*
X2772Y1121D01*
X2772Y1129D01*
X2774Y1129D01*
X2774Y1135D01*
X2776Y1135D01*
X2776Y1139D01*
X2778Y1139D01*
X2778Y1141D01*
X2780Y1141D01*
X2780Y1145D01*
X2782Y1145D01*
X2782Y1147D01*
X2784Y1147D01*
X2784Y1149D01*
X2788Y1149D01*
X2788Y1151D01*
X2790Y1151D01*
X2790Y1153D01*
X2794Y1153D01*
X2794Y1155D01*
X2796Y1155D01*
X2796Y1157D01*
X2800Y1157D01*
X2800Y1177D01*
X2794Y1177D01*
X2794Y1179D01*
X2790Y1179D01*
X2790Y1181D01*
X2788Y1181D01*
X2788Y1183D01*
X2786Y1183D01*
X2786Y1185D01*
X2784Y1185D01*
X2784Y1187D01*
X2782Y1187D01*
X2782Y1189D01*
X2780Y1189D01*
X2780Y1191D01*
X2778Y1191D01*
X2778Y1195D01*
X2776Y1195D01*
X2776Y1197D01*
X2774Y1197D01*
X2774Y1203D01*
X2772Y1203D01*
X2772Y1213D01*
X2770Y1213D01*
X2770Y1219D01*
X2772Y1219D01*
X2772Y1229D01*
X2774Y1229D01*
X2774Y1235D01*
X2776Y1235D01*
X2776Y1237D01*
X2778Y1237D01*
X2778Y1241D01*
X2780Y1241D01*
X2780Y1243D01*
X2782Y1243D01*
X2782Y1245D01*
X2784Y1245D01*
X2784Y1247D01*
X2786Y1247D01*
X2786Y1249D01*
X2788Y1249D01*
X2788Y1251D01*
X2792Y1251D01*
X2792Y1253D01*
X2794Y1253D01*
X2794Y1255D01*
X2800Y1255D01*
X2800Y1275D01*
X2796Y1275D01*
X2796Y1277D01*
X2794Y1277D01*
X2794Y1279D01*
X2790Y1279D01*
X2790Y1281D01*
X2788Y1281D01*
X2788Y1283D01*
X2784Y1283D01*
X2784Y1285D01*
X2782Y1285D01*
X2782Y1287D01*
X2780Y1287D01*
X2780Y1291D01*
X2778Y1291D01*
X2778Y1293D01*
X2776Y1293D01*
X2776Y1297D01*
X2774Y1297D01*
X2774Y1303D01*
X2772Y1303D01*
X2772Y1311D01*
X2770Y1311D01*
X2770Y1319D01*
X2772Y1319D01*
X2772Y1327D01*
X2774Y1327D01*
X2774Y1333D01*
X2776Y1333D01*
X2776Y1337D01*
X2778Y1337D01*
X2778Y1341D01*
X2780Y1341D01*
X2780Y1343D01*
X2782Y1343D01*
X2782Y1345D01*
X2784Y1345D01*
X2784Y1347D01*
X2786Y1347D01*
X2786Y1349D01*
X2790Y1349D01*
X2790Y1351D01*
X2792Y1351D01*
X2792Y1353D01*
X2796Y1353D01*
X2796Y1355D01*
X2802Y1355D01*
X2802Y1357D01*
X2536Y1357D01*
G37*
D02*
G36*
X2824Y1357D02*
X2824Y1355D01*
X2830Y1355D01*
X2830Y1353D01*
X2834Y1353D01*
X2834Y1351D01*
X2838Y1351D01*
X2838Y1349D01*
X2840Y1349D01*
X2840Y1347D01*
X2842Y1347D01*
X2842Y1345D01*
X2844Y1345D01*
X2844Y1343D01*
X2846Y1343D01*
X2846Y1341D01*
X2848Y1341D01*
X2848Y1339D01*
X2850Y1339D01*
X2850Y1335D01*
X2852Y1335D01*
X2852Y1331D01*
X2854Y1331D01*
X2854Y1327D01*
X2874Y1327D01*
X2874Y1333D01*
X2876Y1333D01*
X2876Y1337D01*
X2878Y1337D01*
X2878Y1339D01*
X2880Y1339D01*
X2880Y1343D01*
X2882Y1343D01*
X2882Y1345D01*
X2884Y1345D01*
X2884Y1347D01*
X2886Y1347D01*
X2886Y1349D01*
X2890Y1349D01*
X2890Y1351D01*
X2892Y1351D01*
X2892Y1353D01*
X2896Y1353D01*
X2896Y1355D01*
X2902Y1355D01*
X2902Y1357D01*
X2824Y1357D01*
G37*
D02*
G36*
X2950Y1293D02*
X2950Y1291D01*
X2948Y1291D01*
X2948Y1289D01*
X2946Y1289D01*
X2946Y1287D01*
X2944Y1287D01*
X2944Y1285D01*
X2942Y1285D01*
X2942Y1283D01*
X2940Y1283D01*
X2940Y1281D01*
X2938Y1281D01*
X2938Y1279D01*
X2934Y1279D01*
X2934Y1277D01*
X2930Y1277D01*
X2930Y1275D01*
X2928Y1275D01*
X2928Y1263D01*
X3206Y1263D01*
X3206Y1265D01*
X3198Y1265D01*
X3198Y1267D01*
X3192Y1267D01*
X3192Y1269D01*
X3188Y1269D01*
X3188Y1271D01*
X3184Y1271D01*
X3184Y1273D01*
X3182Y1273D01*
X3182Y1275D01*
X3180Y1275D01*
X3180Y1277D01*
X3178Y1277D01*
X3178Y1279D01*
X3176Y1279D01*
X3176Y1281D01*
X3174Y1281D01*
X3174Y1283D01*
X3172Y1283D01*
X3172Y1287D01*
X3170Y1287D01*
X3170Y1291D01*
X3046Y1291D01*
X3046Y1293D01*
X2950Y1293D01*
G37*
D02*
G36*
X40Y1291D02*
X40Y1133D01*
X1302Y1133D01*
X1302Y1135D01*
X1292Y1135D01*
X1292Y1137D01*
X1286Y1137D01*
X1286Y1139D01*
X1280Y1139D01*
X1280Y1141D01*
X1276Y1141D01*
X1276Y1143D01*
X1272Y1143D01*
X1272Y1145D01*
X1270Y1145D01*
X1270Y1147D01*
X1266Y1147D01*
X1266Y1149D01*
X1264Y1149D01*
X1264Y1151D01*
X1262Y1151D01*
X1262Y1153D01*
X1260Y1153D01*
X1260Y1155D01*
X1256Y1155D01*
X1256Y1157D01*
X1254Y1157D01*
X1254Y1161D01*
X1252Y1161D01*
X1252Y1163D01*
X1250Y1163D01*
X1250Y1165D01*
X1248Y1165D01*
X1248Y1167D01*
X1246Y1167D01*
X1246Y1171D01*
X1244Y1171D01*
X1244Y1175D01*
X1242Y1175D01*
X1242Y1179D01*
X1240Y1179D01*
X1240Y1183D01*
X1238Y1183D01*
X1238Y1189D01*
X1236Y1189D01*
X1236Y1195D01*
X1234Y1195D01*
X1234Y1229D01*
X1236Y1229D01*
X1236Y1237D01*
X1238Y1237D01*
X1238Y1243D01*
X1240Y1243D01*
X1240Y1247D01*
X1242Y1247D01*
X1242Y1251D01*
X1244Y1251D01*
X1244Y1253D01*
X1246Y1253D01*
X1246Y1257D01*
X1248Y1257D01*
X1248Y1259D01*
X1250Y1259D01*
X1250Y1263D01*
X1252Y1263D01*
X1252Y1265D01*
X1254Y1265D01*
X1254Y1267D01*
X1256Y1267D01*
X1256Y1269D01*
X1258Y1269D01*
X1258Y1271D01*
X1260Y1271D01*
X1260Y1273D01*
X1262Y1273D01*
X1262Y1275D01*
X1266Y1275D01*
X1266Y1277D01*
X1268Y1277D01*
X1268Y1279D01*
X1272Y1279D01*
X1272Y1281D01*
X1274Y1281D01*
X1274Y1283D01*
X1278Y1283D01*
X1278Y1285D01*
X1282Y1285D01*
X1282Y1287D01*
X1288Y1287D01*
X1288Y1289D01*
X1296Y1289D01*
X1296Y1291D01*
X40Y1291D01*
G37*
D02*
G36*
X1328Y1291D02*
X1328Y1289D01*
X1336Y1289D01*
X1336Y1287D01*
X1342Y1287D01*
X1342Y1285D01*
X1346Y1285D01*
X1346Y1283D01*
X1350Y1283D01*
X1350Y1281D01*
X1354Y1281D01*
X1354Y1279D01*
X1356Y1279D01*
X1356Y1277D01*
X1360Y1277D01*
X1360Y1275D01*
X1362Y1275D01*
X1362Y1273D01*
X1364Y1273D01*
X1364Y1271D01*
X1366Y1271D01*
X1366Y1269D01*
X1368Y1269D01*
X1368Y1267D01*
X1370Y1267D01*
X1370Y1265D01*
X1372Y1265D01*
X1372Y1263D01*
X1374Y1263D01*
X1374Y1261D01*
X1376Y1261D01*
X1376Y1257D01*
X1378Y1257D01*
X1378Y1255D01*
X1380Y1255D01*
X1380Y1251D01*
X1382Y1251D01*
X1382Y1247D01*
X1384Y1247D01*
X1384Y1243D01*
X1386Y1243D01*
X1386Y1239D01*
X1388Y1239D01*
X1388Y1231D01*
X1390Y1231D01*
X1390Y1221D01*
X1392Y1221D01*
X1392Y1205D01*
X1390Y1205D01*
X1390Y1193D01*
X1388Y1193D01*
X1388Y1187D01*
X1386Y1187D01*
X1386Y1181D01*
X1384Y1181D01*
X1384Y1177D01*
X1382Y1177D01*
X1382Y1173D01*
X1380Y1173D01*
X1380Y1171D01*
X1378Y1171D01*
X1378Y1167D01*
X1376Y1167D01*
X1376Y1165D01*
X1374Y1165D01*
X1374Y1161D01*
X1372Y1161D01*
X1372Y1159D01*
X1370Y1159D01*
X1370Y1157D01*
X1368Y1157D01*
X1368Y1155D01*
X1366Y1155D01*
X1366Y1153D01*
X1364Y1153D01*
X1364Y1151D01*
X1360Y1151D01*
X1360Y1149D01*
X1358Y1149D01*
X1358Y1147D01*
X1356Y1147D01*
X1356Y1145D01*
X1352Y1145D01*
X1352Y1143D01*
X1348Y1143D01*
X1348Y1141D01*
X1344Y1141D01*
X1344Y1139D01*
X1338Y1139D01*
X1338Y1137D01*
X1332Y1137D01*
X1332Y1135D01*
X1322Y1135D01*
X1322Y1133D01*
X2102Y1133D01*
X2102Y1135D01*
X2092Y1135D01*
X2092Y1137D01*
X2086Y1137D01*
X2086Y1139D01*
X2080Y1139D01*
X2080Y1141D01*
X2076Y1141D01*
X2076Y1143D01*
X2072Y1143D01*
X2072Y1145D01*
X2070Y1145D01*
X2070Y1147D01*
X2066Y1147D01*
X2066Y1149D01*
X2064Y1149D01*
X2064Y1151D01*
X2062Y1151D01*
X2062Y1153D01*
X2060Y1153D01*
X2060Y1155D01*
X2056Y1155D01*
X2056Y1157D01*
X2054Y1157D01*
X2054Y1161D01*
X2052Y1161D01*
X2052Y1163D01*
X2050Y1163D01*
X2050Y1165D01*
X2048Y1165D01*
X2048Y1167D01*
X2046Y1167D01*
X2046Y1171D01*
X2044Y1171D01*
X2044Y1175D01*
X2042Y1175D01*
X2042Y1179D01*
X2040Y1179D01*
X2040Y1183D01*
X2038Y1183D01*
X2038Y1189D01*
X2036Y1189D01*
X2036Y1195D01*
X2034Y1195D01*
X2034Y1229D01*
X2036Y1229D01*
X2036Y1237D01*
X2038Y1237D01*
X2038Y1243D01*
X2040Y1243D01*
X2040Y1247D01*
X2042Y1247D01*
X2042Y1251D01*
X2044Y1251D01*
X2044Y1253D01*
X2046Y1253D01*
X2046Y1257D01*
X2048Y1257D01*
X2048Y1259D01*
X2050Y1259D01*
X2050Y1263D01*
X2052Y1263D01*
X2052Y1265D01*
X2054Y1265D01*
X2054Y1267D01*
X2056Y1267D01*
X2056Y1269D01*
X2058Y1269D01*
X2058Y1271D01*
X2060Y1271D01*
X2060Y1273D01*
X2062Y1273D01*
X2062Y1275D01*
X2066Y1275D01*
X2066Y1277D01*
X2068Y1277D01*
X2068Y1279D01*
X2072Y1279D01*
X2072Y1281D01*
X2074Y1281D01*
X2074Y1283D01*
X2078Y1283D01*
X2078Y1285D01*
X2082Y1285D01*
X2082Y1287D01*
X2088Y1287D01*
X2088Y1289D01*
X2096Y1289D01*
X2096Y1291D01*
X1328Y1291D01*
G37*
D02*
G36*
X3252Y1285D02*
X3252Y1283D01*
X3250Y1283D01*
X3250Y1281D01*
X3248Y1281D01*
X3248Y1279D01*
X3246Y1279D01*
X3246Y1277D01*
X3244Y1277D01*
X3244Y1275D01*
X3242Y1275D01*
X3242Y1273D01*
X3240Y1273D01*
X3240Y1271D01*
X3236Y1271D01*
X3236Y1269D01*
X3232Y1269D01*
X3232Y1267D01*
X3226Y1267D01*
X3226Y1265D01*
X3218Y1265D01*
X3218Y1263D01*
X3306Y1263D01*
X3306Y1265D01*
X3298Y1265D01*
X3298Y1267D01*
X3292Y1267D01*
X3292Y1269D01*
X3288Y1269D01*
X3288Y1271D01*
X3284Y1271D01*
X3284Y1273D01*
X3282Y1273D01*
X3282Y1275D01*
X3280Y1275D01*
X3280Y1277D01*
X3278Y1277D01*
X3278Y1279D01*
X3276Y1279D01*
X3276Y1281D01*
X3274Y1281D01*
X3274Y1283D01*
X3272Y1283D01*
X3272Y1285D01*
X3252Y1285D01*
G37*
D02*
G36*
X2928Y1263D02*
X2928Y1261D01*
X3442Y1261D01*
X3442Y1263D01*
X2928Y1263D01*
G37*
D02*
G36*
X2928Y1263D02*
X2928Y1261D01*
X3442Y1261D01*
X3442Y1263D01*
X2928Y1263D01*
G37*
D02*
G36*
X2928Y1263D02*
X2928Y1261D01*
X3442Y1261D01*
X3442Y1263D01*
X2928Y1263D01*
G37*
D02*
G36*
X2928Y1261D02*
X2928Y1255D01*
X2932Y1255D01*
X2932Y1253D01*
X2936Y1253D01*
X2936Y1251D01*
X2938Y1251D01*
X2938Y1249D01*
X2942Y1249D01*
X2942Y1247D01*
X2944Y1247D01*
X2944Y1245D01*
X2946Y1245D01*
X2946Y1241D01*
X2948Y1241D01*
X2948Y1239D01*
X2950Y1239D01*
X2950Y1235D01*
X2952Y1235D01*
X2952Y1231D01*
X2954Y1231D01*
X2954Y1225D01*
X2956Y1225D01*
X2956Y1207D01*
X2954Y1207D01*
X2954Y1201D01*
X2952Y1201D01*
X2952Y1197D01*
X2950Y1197D01*
X2950Y1193D01*
X2948Y1193D01*
X2948Y1189D01*
X2946Y1189D01*
X2946Y1187D01*
X2944Y1187D01*
X2944Y1185D01*
X2942Y1185D01*
X2942Y1183D01*
X2938Y1183D01*
X2938Y1181D01*
X2936Y1181D01*
X2936Y1179D01*
X2932Y1179D01*
X2932Y1177D01*
X2928Y1177D01*
X2928Y1161D01*
X3324Y1161D01*
X3324Y1159D01*
X3330Y1159D01*
X3330Y1157D01*
X3334Y1157D01*
X3334Y1155D01*
X3338Y1155D01*
X3338Y1153D01*
X3340Y1153D01*
X3340Y1151D01*
X3344Y1151D01*
X3344Y1149D01*
X3346Y1149D01*
X3346Y1147D01*
X3348Y1147D01*
X3348Y1145D01*
X3350Y1145D01*
X3350Y1143D01*
X3352Y1143D01*
X3352Y1139D01*
X3354Y1139D01*
X3354Y1135D01*
X3356Y1135D01*
X3356Y1133D01*
X3358Y1133D01*
X3358Y1127D01*
X3360Y1127D01*
X3360Y1117D01*
X3362Y1117D01*
X3362Y1107D01*
X3360Y1107D01*
X3360Y1099D01*
X3358Y1099D01*
X3358Y1093D01*
X3356Y1093D01*
X3356Y1089D01*
X3354Y1089D01*
X3354Y1085D01*
X3352Y1085D01*
X3352Y1083D01*
X3350Y1083D01*
X3350Y1081D01*
X3348Y1081D01*
X3348Y1079D01*
X3346Y1079D01*
X3346Y1077D01*
X3344Y1077D01*
X3344Y1075D01*
X3342Y1075D01*
X3342Y1073D01*
X3340Y1073D01*
X3340Y1071D01*
X3336Y1071D01*
X3336Y1069D01*
X3332Y1069D01*
X3332Y1067D01*
X3326Y1067D01*
X3326Y1065D01*
X3318Y1065D01*
X3318Y1063D01*
X3442Y1063D01*
X3442Y1261D01*
X2928Y1261D01*
G37*
D02*
G36*
X2928Y1161D02*
X2928Y1157D01*
X2930Y1157D01*
X2930Y1155D01*
X2934Y1155D01*
X2934Y1153D01*
X2938Y1153D01*
X2938Y1151D01*
X2940Y1151D01*
X2940Y1149D01*
X2942Y1149D01*
X2942Y1147D01*
X2944Y1147D01*
X2944Y1145D01*
X2946Y1145D01*
X2946Y1143D01*
X2948Y1143D01*
X2948Y1141D01*
X2950Y1141D01*
X2950Y1139D01*
X2966Y1139D01*
X2966Y1137D01*
X3108Y1137D01*
X3108Y1135D01*
X3170Y1135D01*
X3170Y1139D01*
X3172Y1139D01*
X3172Y1141D01*
X3174Y1141D01*
X3174Y1143D01*
X3176Y1143D01*
X3176Y1147D01*
X3178Y1147D01*
X3178Y1149D01*
X3182Y1149D01*
X3182Y1151D01*
X3184Y1151D01*
X3184Y1153D01*
X3186Y1153D01*
X3186Y1155D01*
X3190Y1155D01*
X3190Y1157D01*
X3194Y1157D01*
X3194Y1159D01*
X3202Y1159D01*
X3202Y1161D01*
X2928Y1161D01*
G37*
D02*
G36*
X3224Y1161D02*
X3224Y1159D01*
X3230Y1159D01*
X3230Y1157D01*
X3234Y1157D01*
X3234Y1155D01*
X3238Y1155D01*
X3238Y1153D01*
X3240Y1153D01*
X3240Y1151D01*
X3244Y1151D01*
X3244Y1149D01*
X3246Y1149D01*
X3246Y1147D01*
X3248Y1147D01*
X3248Y1145D01*
X3250Y1145D01*
X3250Y1143D01*
X3252Y1143D01*
X3252Y1139D01*
X3272Y1139D01*
X3272Y1141D01*
X3274Y1141D01*
X3274Y1143D01*
X3276Y1143D01*
X3276Y1147D01*
X3278Y1147D01*
X3278Y1149D01*
X3282Y1149D01*
X3282Y1151D01*
X3284Y1151D01*
X3284Y1153D01*
X3286Y1153D01*
X3286Y1155D01*
X3290Y1155D01*
X3290Y1157D01*
X3294Y1157D01*
X3294Y1159D01*
X3302Y1159D01*
X3302Y1161D01*
X3224Y1161D01*
G37*
D02*
G36*
X40Y1133D02*
X40Y1131D01*
X2492Y1131D01*
X2492Y1133D01*
X40Y1133D01*
G37*
D02*
G36*
X40Y1133D02*
X40Y1131D01*
X2492Y1131D01*
X2492Y1133D01*
X40Y1133D01*
G37*
D02*
G36*
X40Y1133D02*
X40Y1131D01*
X2492Y1131D01*
X2492Y1133D01*
X40Y1133D01*
G37*
D02*
G36*
X40Y1131D02*
X40Y877D01*
X2458Y877D01*
X2458Y875D01*
X2460Y875D01*
X2460Y793D01*
X2490Y793D01*
X2490Y981D01*
X2492Y981D01*
X2492Y1131D01*
X40Y1131D01*
G37*
D02*
G36*
X2854Y1105D02*
X2854Y1101D01*
X2852Y1101D01*
X2852Y1097D01*
X2850Y1097D01*
X2850Y1093D01*
X2848Y1093D01*
X2848Y1091D01*
X2846Y1091D01*
X2846Y1089D01*
X2844Y1089D01*
X2844Y1087D01*
X2842Y1087D01*
X2842Y1085D01*
X2840Y1085D01*
X2840Y1083D01*
X2838Y1083D01*
X2838Y1081D01*
X2834Y1081D01*
X2834Y1079D01*
X2832Y1079D01*
X2832Y1077D01*
X2826Y1077D01*
X2826Y1075D01*
X2902Y1075D01*
X2902Y1077D01*
X2896Y1077D01*
X2896Y1079D01*
X2892Y1079D01*
X2892Y1081D01*
X2888Y1081D01*
X2888Y1083D01*
X2886Y1083D01*
X2886Y1085D01*
X2884Y1085D01*
X2884Y1087D01*
X2882Y1087D01*
X2882Y1089D01*
X2880Y1089D01*
X2880Y1091D01*
X2878Y1091D01*
X2878Y1095D01*
X2876Y1095D01*
X2876Y1099D01*
X2874Y1099D01*
X2874Y1105D01*
X2854Y1105D01*
G37*
D02*
G36*
X2948Y1093D02*
X2948Y1091D01*
X2946Y1091D01*
X2946Y1089D01*
X2944Y1089D01*
X2944Y1087D01*
X2942Y1087D01*
X2942Y1085D01*
X2940Y1085D01*
X2940Y1083D01*
X2938Y1083D01*
X2938Y1081D01*
X2934Y1081D01*
X2934Y1079D01*
X2932Y1079D01*
X2932Y1077D01*
X2926Y1077D01*
X2926Y1075D01*
X3180Y1075D01*
X3180Y1077D01*
X3178Y1077D01*
X3178Y1079D01*
X3176Y1079D01*
X3176Y1081D01*
X3174Y1081D01*
X3174Y1083D01*
X3172Y1083D01*
X3172Y1087D01*
X3170Y1087D01*
X3170Y1091D01*
X3106Y1091D01*
X3106Y1093D01*
X2948Y1093D01*
G37*
D02*
G36*
X3252Y1085D02*
X3252Y1083D01*
X3250Y1083D01*
X3250Y1081D01*
X3248Y1081D01*
X3248Y1079D01*
X3246Y1079D01*
X3246Y1077D01*
X3244Y1077D01*
X3244Y1075D01*
X3242Y1075D01*
X3242Y1073D01*
X3240Y1073D01*
X3240Y1071D01*
X3236Y1071D01*
X3236Y1069D01*
X3232Y1069D01*
X3232Y1067D01*
X3226Y1067D01*
X3226Y1065D01*
X3218Y1065D01*
X3218Y1063D01*
X3306Y1063D01*
X3306Y1065D01*
X3298Y1065D01*
X3298Y1067D01*
X3292Y1067D01*
X3292Y1069D01*
X3288Y1069D01*
X3288Y1071D01*
X3284Y1071D01*
X3284Y1073D01*
X3282Y1073D01*
X3282Y1075D01*
X3280Y1075D01*
X3280Y1077D01*
X3278Y1077D01*
X3278Y1079D01*
X3276Y1079D01*
X3276Y1081D01*
X3274Y1081D01*
X3274Y1083D01*
X3272Y1083D01*
X3272Y1085D01*
X3252Y1085D01*
G37*
D02*
G36*
X2536Y1075D02*
X2536Y1073D01*
X3182Y1073D01*
X3182Y1075D01*
X2536Y1075D01*
G37*
D02*
G36*
X2536Y1075D02*
X2536Y1073D01*
X3182Y1073D01*
X3182Y1075D01*
X2536Y1075D01*
G37*
D02*
G36*
X2536Y1075D02*
X2536Y1073D01*
X3182Y1073D01*
X3182Y1075D01*
X2536Y1075D01*
G37*
D02*
G36*
X2536Y1073D02*
X2536Y1063D01*
X3206Y1063D01*
X3206Y1065D01*
X3198Y1065D01*
X3198Y1067D01*
X3192Y1067D01*
X3192Y1069D01*
X3188Y1069D01*
X3188Y1071D01*
X3184Y1071D01*
X3184Y1073D01*
X2536Y1073D01*
G37*
D02*
G36*
X2536Y1063D02*
X2536Y1061D01*
X3442Y1061D01*
X3442Y1063D01*
X2536Y1063D01*
G37*
D02*
G36*
X2536Y1063D02*
X2536Y1061D01*
X3442Y1061D01*
X3442Y1063D01*
X2536Y1063D01*
G37*
D02*
G36*
X2536Y1063D02*
X2536Y1061D01*
X3442Y1061D01*
X3442Y1063D01*
X2536Y1063D01*
G37*
D02*
G36*
X2536Y1061D02*
X2536Y973D01*
X2534Y973D01*
X2534Y559D01*
X2554Y559D01*
X2554Y465D01*
X2472Y465D01*
X2472Y443D01*
X2470Y443D01*
X2470Y439D01*
X2468Y439D01*
X2468Y437D01*
X2466Y437D01*
X2466Y435D01*
X2464Y435D01*
X2464Y433D01*
X2462Y433D01*
X2462Y431D01*
X2458Y431D01*
X2458Y429D01*
X2198Y429D01*
X2198Y409D01*
X3442Y409D01*
X3442Y1061D01*
X2536Y1061D01*
G37*
D02*
G36*
X40Y877D02*
X40Y861D01*
X1958Y861D01*
X1958Y859D01*
X1960Y859D01*
X1960Y839D01*
X2024Y839D01*
X2024Y841D01*
X2072Y841D01*
X2072Y843D01*
X2118Y843D01*
X2118Y845D01*
X2164Y845D01*
X2164Y847D01*
X2212Y847D01*
X2212Y849D01*
X2258Y849D01*
X2258Y851D01*
X2304Y851D01*
X2304Y853D01*
X2352Y853D01*
X2352Y855D01*
X2364Y855D01*
X2364Y875D01*
X2366Y875D01*
X2366Y877D01*
X40Y877D01*
G37*
D02*
G36*
X40Y861D02*
X40Y777D01*
X1658Y777D01*
X1658Y775D01*
X1660Y775D01*
X1660Y751D01*
X1674Y751D01*
X1674Y749D01*
X1692Y749D01*
X1692Y747D01*
X1710Y747D01*
X1710Y745D01*
X1728Y745D01*
X1728Y743D01*
X1746Y743D01*
X1746Y741D01*
X1776Y741D01*
X1776Y743D01*
X1778Y743D01*
X1778Y745D01*
X1780Y745D01*
X1780Y747D01*
X1782Y747D01*
X1782Y749D01*
X1784Y749D01*
X1784Y751D01*
X1786Y751D01*
X1786Y753D01*
X1790Y753D01*
X1790Y773D01*
X1786Y773D01*
X1786Y775D01*
X1784Y775D01*
X1784Y777D01*
X1782Y777D01*
X1782Y779D01*
X1778Y779D01*
X1778Y783D01*
X1776Y783D01*
X1776Y785D01*
X1774Y785D01*
X1774Y787D01*
X1772Y787D01*
X1772Y791D01*
X1770Y791D01*
X1770Y795D01*
X1768Y795D01*
X1768Y801D01*
X1766Y801D01*
X1766Y825D01*
X1768Y825D01*
X1768Y831D01*
X1770Y831D01*
X1770Y835D01*
X1772Y835D01*
X1772Y839D01*
X1774Y839D01*
X1774Y841D01*
X1776Y841D01*
X1776Y845D01*
X1778Y845D01*
X1778Y847D01*
X1780Y847D01*
X1780Y849D01*
X1784Y849D01*
X1784Y851D01*
X1786Y851D01*
X1786Y853D01*
X1790Y853D01*
X1790Y855D01*
X1792Y855D01*
X1792Y857D01*
X1798Y857D01*
X1798Y859D01*
X1808Y859D01*
X1808Y861D01*
X40Y861D01*
G37*
D02*
G36*
X1818Y861D02*
X1818Y859D01*
X1826Y859D01*
X1826Y857D01*
X1832Y857D01*
X1832Y855D01*
X1836Y855D01*
X1836Y853D01*
X1838Y853D01*
X1838Y851D01*
X1842Y851D01*
X1842Y849D01*
X1844Y849D01*
X1844Y847D01*
X1846Y847D01*
X1846Y845D01*
X1866Y845D01*
X1866Y861D01*
X1818Y861D01*
G37*
D02*
G36*
X2306Y809D02*
X2306Y807D01*
X2260Y807D01*
X2260Y805D01*
X2212Y805D01*
X2212Y803D01*
X2166Y803D01*
X2166Y801D01*
X2120Y801D01*
X2120Y799D01*
X2072Y799D01*
X2072Y797D01*
X2026Y797D01*
X2026Y795D01*
X1980Y795D01*
X1980Y793D01*
X2364Y793D01*
X2364Y809D01*
X2306Y809D01*
G37*
D02*
G36*
X1960Y793D02*
X1960Y791D01*
X2490Y791D01*
X2490Y793D01*
X1960Y793D01*
G37*
D02*
G36*
X1960Y793D02*
X1960Y791D01*
X2490Y791D01*
X2490Y793D01*
X1960Y793D01*
G37*
D02*
G36*
X1960Y791D02*
X1960Y767D01*
X1958Y767D01*
X1958Y765D01*
X1946Y765D01*
X1946Y755D01*
X2458Y755D01*
X2458Y753D01*
X2460Y753D01*
X2460Y671D01*
X2452Y671D01*
X2452Y647D01*
X2454Y647D01*
X2454Y639D01*
X2456Y639D01*
X2456Y631D01*
X2458Y631D01*
X2458Y623D01*
X2460Y623D01*
X2460Y617D01*
X2462Y617D01*
X2462Y609D01*
X2464Y609D01*
X2464Y601D01*
X2466Y601D01*
X2466Y595D01*
X2468Y595D01*
X2468Y587D01*
X2470Y587D01*
X2470Y579D01*
X2490Y579D01*
X2490Y791D01*
X1960Y791D01*
G37*
D02*
G36*
X40Y777D02*
X40Y693D01*
X1564Y693D01*
X1564Y775D01*
X1566Y775D01*
X1566Y777D01*
X40Y777D01*
G37*
D02*
G36*
X1946Y755D02*
X1946Y745D01*
X1948Y745D01*
X1948Y741D01*
X1950Y741D01*
X1950Y739D01*
X1952Y739D01*
X1952Y735D01*
X1954Y735D01*
X1954Y733D01*
X1956Y733D01*
X1956Y727D01*
X1958Y727D01*
X1958Y719D01*
X1960Y719D01*
X1960Y707D01*
X1958Y707D01*
X1958Y699D01*
X1956Y699D01*
X1956Y693D01*
X1954Y693D01*
X1954Y689D01*
X1952Y689D01*
X1952Y685D01*
X1950Y685D01*
X1950Y683D01*
X1948Y683D01*
X1948Y681D01*
X1946Y681D01*
X1946Y679D01*
X1944Y679D01*
X1944Y677D01*
X1942Y677D01*
X1942Y675D01*
X1940Y675D01*
X1940Y673D01*
X1936Y673D01*
X1936Y651D01*
X1940Y651D01*
X1940Y649D01*
X1942Y649D01*
X1942Y647D01*
X1944Y647D01*
X1944Y645D01*
X1946Y645D01*
X1946Y643D01*
X1948Y643D01*
X1948Y641D01*
X1950Y641D01*
X1950Y639D01*
X1952Y639D01*
X1952Y635D01*
X1954Y635D01*
X1954Y631D01*
X1956Y631D01*
X1956Y627D01*
X1958Y627D01*
X1958Y619D01*
X1960Y619D01*
X1960Y615D01*
X2198Y615D01*
X2198Y593D01*
X2216Y593D01*
X2216Y591D01*
X2220Y591D01*
X2220Y589D01*
X2224Y589D01*
X2224Y587D01*
X2226Y587D01*
X2226Y585D01*
X2228Y585D01*
X2228Y583D01*
X2230Y583D01*
X2230Y579D01*
X2232Y579D01*
X2232Y575D01*
X2238Y575D01*
X2238Y573D01*
X2246Y573D01*
X2246Y571D01*
X2254Y571D01*
X2254Y569D01*
X2262Y569D01*
X2262Y567D01*
X2270Y567D01*
X2270Y565D01*
X2278Y565D01*
X2278Y563D01*
X2286Y563D01*
X2286Y561D01*
X2294Y561D01*
X2294Y559D01*
X2302Y559D01*
X2302Y557D01*
X2308Y557D01*
X2308Y555D01*
X2316Y555D01*
X2316Y553D01*
X2324Y553D01*
X2324Y551D01*
X2348Y551D01*
X2348Y559D01*
X2426Y559D01*
X2426Y581D01*
X2424Y581D01*
X2424Y589D01*
X2422Y589D01*
X2422Y595D01*
X2420Y595D01*
X2420Y603D01*
X2418Y603D01*
X2418Y611D01*
X2416Y611D01*
X2416Y617D01*
X2414Y617D01*
X2414Y625D01*
X2412Y625D01*
X2412Y633D01*
X2410Y633D01*
X2410Y641D01*
X2408Y641D01*
X2408Y647D01*
X2406Y647D01*
X2406Y655D01*
X2404Y655D01*
X2404Y663D01*
X2402Y663D01*
X2402Y669D01*
X2400Y669D01*
X2400Y671D01*
X2364Y671D01*
X2364Y753D01*
X2366Y753D01*
X2366Y755D01*
X1946Y755D01*
G37*
D02*
G36*
X1660Y705D02*
X1660Y693D01*
X1768Y693D01*
X1768Y695D01*
X1762Y695D01*
X1762Y697D01*
X1744Y697D01*
X1744Y699D01*
X1726Y699D01*
X1726Y701D01*
X1706Y701D01*
X1706Y703D01*
X1688Y703D01*
X1688Y705D01*
X1660Y705D01*
G37*
D02*
G36*
X40Y693D02*
X40Y691D01*
X1770Y691D01*
X1770Y693D01*
X40Y693D01*
G37*
D02*
G36*
X40Y693D02*
X40Y691D01*
X1770Y691D01*
X1770Y693D01*
X40Y693D01*
G37*
D02*
G36*
X40Y691D02*
X40Y655D01*
X1658Y655D01*
X1658Y653D01*
X1660Y653D01*
X1660Y613D01*
X1662Y613D01*
X1662Y611D01*
X1666Y611D01*
X1666Y609D01*
X1670Y609D01*
X1670Y607D01*
X1674Y607D01*
X1674Y605D01*
X1678Y605D01*
X1678Y603D01*
X1682Y603D01*
X1682Y601D01*
X1686Y601D01*
X1686Y599D01*
X1690Y599D01*
X1690Y597D01*
X1694Y597D01*
X1694Y595D01*
X1698Y595D01*
X1698Y593D01*
X1702Y593D01*
X1702Y591D01*
X1706Y591D01*
X1706Y589D01*
X1710Y589D01*
X1710Y587D01*
X1714Y587D01*
X1714Y585D01*
X1718Y585D01*
X1718Y583D01*
X1722Y583D01*
X1722Y581D01*
X1726Y581D01*
X1726Y579D01*
X1730Y579D01*
X1730Y577D01*
X1734Y577D01*
X1734Y575D01*
X1738Y575D01*
X1738Y573D01*
X1742Y573D01*
X1742Y571D01*
X1744Y571D01*
X1744Y569D01*
X1748Y569D01*
X1748Y567D01*
X1752Y567D01*
X1752Y565D01*
X1756Y565D01*
X1756Y563D01*
X1760Y563D01*
X1760Y561D01*
X1764Y561D01*
X1764Y559D01*
X1768Y559D01*
X1768Y557D01*
X1788Y557D01*
X1788Y573D01*
X1784Y573D01*
X1784Y575D01*
X1782Y575D01*
X1782Y577D01*
X1780Y577D01*
X1780Y579D01*
X1778Y579D01*
X1778Y581D01*
X1776Y581D01*
X1776Y583D01*
X1774Y583D01*
X1774Y585D01*
X1772Y585D01*
X1772Y589D01*
X1770Y589D01*
X1770Y593D01*
X1768Y593D01*
X1768Y599D01*
X1766Y599D01*
X1766Y625D01*
X1768Y625D01*
X1768Y631D01*
X1770Y631D01*
X1770Y635D01*
X1772Y635D01*
X1772Y637D01*
X1774Y637D01*
X1774Y641D01*
X1776Y641D01*
X1776Y643D01*
X1778Y643D01*
X1778Y645D01*
X1780Y645D01*
X1780Y647D01*
X1782Y647D01*
X1782Y649D01*
X1784Y649D01*
X1784Y651D01*
X1788Y651D01*
X1788Y673D01*
X1786Y673D01*
X1786Y675D01*
X1782Y675D01*
X1782Y677D01*
X1780Y677D01*
X1780Y679D01*
X1778Y679D01*
X1778Y681D01*
X1776Y681D01*
X1776Y683D01*
X1774Y683D01*
X1774Y687D01*
X1772Y687D01*
X1772Y691D01*
X40Y691D01*
G37*
D02*
G36*
X40Y655D02*
X40Y255D01*
X1624Y255D01*
X1624Y253D01*
X1630Y253D01*
X1630Y251D01*
X1634Y251D01*
X1634Y249D01*
X1638Y249D01*
X1638Y247D01*
X1640Y247D01*
X1640Y245D01*
X1644Y245D01*
X1644Y243D01*
X1646Y243D01*
X1646Y241D01*
X1648Y241D01*
X1648Y237D01*
X1650Y237D01*
X1650Y235D01*
X1652Y235D01*
X1652Y231D01*
X1654Y231D01*
X1654Y225D01*
X1674Y225D01*
X1674Y227D01*
X1676Y227D01*
X1676Y231D01*
X1678Y231D01*
X1678Y235D01*
X1680Y235D01*
X1680Y239D01*
X1682Y239D01*
X1682Y241D01*
X1684Y241D01*
X1684Y243D01*
X1686Y243D01*
X1686Y245D01*
X1688Y245D01*
X1688Y247D01*
X1692Y247D01*
X1692Y249D01*
X1694Y249D01*
X1694Y251D01*
X1698Y251D01*
X1698Y253D01*
X1706Y253D01*
X1706Y259D01*
X1708Y259D01*
X1708Y265D01*
X1710Y265D01*
X1710Y271D01*
X1712Y271D01*
X1712Y277D01*
X1714Y277D01*
X1714Y285D01*
X1716Y285D01*
X1716Y291D01*
X1718Y291D01*
X1718Y297D01*
X1720Y297D01*
X1720Y303D01*
X1722Y303D01*
X1722Y309D01*
X1724Y309D01*
X1724Y315D01*
X1726Y315D01*
X1726Y321D01*
X1728Y321D01*
X1728Y327D01*
X1730Y327D01*
X1730Y333D01*
X1732Y333D01*
X1732Y339D01*
X1734Y339D01*
X1734Y345D01*
X1736Y345D01*
X1736Y351D01*
X1738Y351D01*
X1738Y357D01*
X1740Y357D01*
X1740Y363D01*
X1742Y363D01*
X1742Y369D01*
X1744Y369D01*
X1744Y377D01*
X1746Y377D01*
X1746Y383D01*
X1748Y383D01*
X1748Y389D01*
X1750Y389D01*
X1750Y395D01*
X1752Y395D01*
X1752Y401D01*
X1754Y401D01*
X1754Y407D01*
X1756Y407D01*
X1756Y413D01*
X1758Y413D01*
X1758Y419D01*
X1760Y419D01*
X1760Y425D01*
X1762Y425D01*
X1762Y431D01*
X1764Y431D01*
X1764Y437D01*
X1766Y437D01*
X1766Y443D01*
X1768Y443D01*
X1768Y449D01*
X1770Y449D01*
X1770Y455D01*
X1772Y455D01*
X1772Y461D01*
X1774Y461D01*
X1774Y485D01*
X1772Y485D01*
X1772Y489D01*
X1770Y489D01*
X1770Y493D01*
X1768Y493D01*
X1768Y499D01*
X1766Y499D01*
X1766Y511D01*
X1762Y511D01*
X1762Y513D01*
X1758Y513D01*
X1758Y515D01*
X1754Y515D01*
X1754Y517D01*
X1750Y517D01*
X1750Y519D01*
X1746Y519D01*
X1746Y521D01*
X1742Y521D01*
X1742Y523D01*
X1738Y523D01*
X1738Y525D01*
X1734Y525D01*
X1734Y527D01*
X1730Y527D01*
X1730Y529D01*
X1726Y529D01*
X1726Y531D01*
X1722Y531D01*
X1722Y533D01*
X1718Y533D01*
X1718Y535D01*
X1714Y535D01*
X1714Y537D01*
X1710Y537D01*
X1710Y539D01*
X1706Y539D01*
X1706Y541D01*
X1702Y541D01*
X1702Y543D01*
X1698Y543D01*
X1698Y545D01*
X1694Y545D01*
X1694Y547D01*
X1690Y547D01*
X1690Y549D01*
X1688Y549D01*
X1688Y551D01*
X1684Y551D01*
X1684Y553D01*
X1680Y553D01*
X1680Y555D01*
X1676Y555D01*
X1676Y557D01*
X1672Y557D01*
X1672Y559D01*
X1668Y559D01*
X1668Y561D01*
X1664Y561D01*
X1664Y563D01*
X1660Y563D01*
X1660Y565D01*
X1656Y565D01*
X1656Y567D01*
X1652Y567D01*
X1652Y569D01*
X1648Y569D01*
X1648Y571D01*
X1564Y571D01*
X1564Y653D01*
X1566Y653D01*
X1566Y655D01*
X40Y655D01*
G37*
D02*
G36*
X1960Y615D02*
X1960Y605D01*
X1958Y605D01*
X1958Y597D01*
X1956Y597D01*
X1956Y593D01*
X1954Y593D01*
X1954Y589D01*
X1952Y589D01*
X1952Y585D01*
X1950Y585D01*
X1950Y583D01*
X1948Y583D01*
X1948Y581D01*
X1946Y581D01*
X1946Y565D01*
X1966Y565D01*
X1966Y567D01*
X1968Y567D01*
X1968Y569D01*
X1972Y569D01*
X1972Y571D01*
X1976Y571D01*
X1976Y573D01*
X1980Y573D01*
X1980Y575D01*
X1982Y575D01*
X1982Y577D01*
X1986Y577D01*
X1986Y579D01*
X1990Y579D01*
X1990Y581D01*
X1994Y581D01*
X1994Y583D01*
X1998Y583D01*
X1998Y585D01*
X2000Y585D01*
X2000Y587D01*
X2004Y587D01*
X2004Y589D01*
X2008Y589D01*
X2008Y591D01*
X2014Y591D01*
X2014Y593D01*
X2104Y593D01*
X2104Y615D01*
X1960Y615D01*
G37*
D02*
G36*
X2022Y549D02*
X2022Y547D01*
X2020Y547D01*
X2020Y545D01*
X2016Y545D01*
X2016Y543D01*
X2012Y543D01*
X2012Y541D01*
X2008Y541D01*
X2008Y539D01*
X2006Y539D01*
X2006Y537D01*
X2002Y537D01*
X2002Y535D01*
X1998Y535D01*
X1998Y533D01*
X2104Y533D01*
X2104Y549D01*
X2022Y549D01*
G37*
D02*
G36*
X2198Y535D02*
X2198Y533D01*
X2218Y533D01*
X2218Y535D01*
X2198Y535D01*
G37*
D02*
G36*
X1994Y533D02*
X1994Y531D01*
X2224Y531D01*
X2224Y533D01*
X1994Y533D01*
G37*
D02*
G36*
X1994Y533D02*
X1994Y531D01*
X2224Y531D01*
X2224Y533D01*
X1994Y533D01*
G37*
D02*
G36*
X1990Y531D02*
X1990Y529D01*
X1988Y529D01*
X1988Y527D01*
X1984Y527D01*
X1984Y525D01*
X1980Y525D01*
X1980Y523D01*
X1976Y523D01*
X1976Y521D01*
X1972Y521D01*
X1972Y519D01*
X1970Y519D01*
X1970Y517D01*
X1966Y517D01*
X1966Y515D01*
X1962Y515D01*
X1962Y513D01*
X1960Y513D01*
X1960Y493D01*
X2198Y493D01*
X2198Y473D01*
X2348Y473D01*
X2348Y501D01*
X2342Y501D01*
X2342Y503D01*
X2334Y503D01*
X2334Y505D01*
X2326Y505D01*
X2326Y507D01*
X2318Y507D01*
X2318Y509D01*
X2312Y509D01*
X2312Y511D01*
X2304Y511D01*
X2304Y513D01*
X2296Y513D01*
X2296Y515D01*
X2288Y515D01*
X2288Y517D01*
X2280Y517D01*
X2280Y519D01*
X2272Y519D01*
X2272Y521D01*
X2264Y521D01*
X2264Y523D01*
X2256Y523D01*
X2256Y525D01*
X2248Y525D01*
X2248Y527D01*
X2240Y527D01*
X2240Y529D01*
X2232Y529D01*
X2232Y531D01*
X1990Y531D01*
G37*
D02*
G36*
X1960Y493D02*
X1960Y465D01*
X1958Y465D01*
X1958Y463D01*
X2098Y463D01*
X2098Y467D01*
X2102Y467D01*
X2102Y469D01*
X2104Y469D01*
X2104Y493D01*
X1960Y493D01*
G37*
D02*
G36*
X1846Y479D02*
X1846Y477D01*
X1844Y477D01*
X1844Y475D01*
X1840Y475D01*
X1840Y473D01*
X1838Y473D01*
X1838Y471D01*
X1834Y471D01*
X1834Y469D01*
X1832Y469D01*
X1832Y467D01*
X1824Y467D01*
X1824Y465D01*
X1820Y465D01*
X1820Y463D01*
X1866Y463D01*
X1866Y479D01*
X1846Y479D01*
G37*
D02*
G36*
X1820Y463D02*
X1820Y461D01*
X2096Y461D01*
X2096Y463D01*
X1820Y463D01*
G37*
D02*
G36*
X1820Y463D02*
X1820Y461D01*
X2096Y461D01*
X2096Y463D01*
X1820Y463D01*
G37*
D02*
G36*
X1818Y461D02*
X1818Y455D01*
X1816Y455D01*
X1816Y449D01*
X1814Y449D01*
X1814Y443D01*
X1812Y443D01*
X1812Y437D01*
X1810Y437D01*
X1810Y431D01*
X1808Y431D01*
X1808Y425D01*
X1806Y425D01*
X1806Y419D01*
X1804Y419D01*
X1804Y411D01*
X1802Y411D01*
X1802Y409D01*
X2104Y409D01*
X2104Y433D01*
X2100Y433D01*
X2100Y435D01*
X2098Y435D01*
X2098Y437D01*
X2096Y437D01*
X2096Y441D01*
X2094Y441D01*
X2094Y447D01*
X2092Y447D01*
X2092Y455D01*
X2094Y455D01*
X2094Y461D01*
X1818Y461D01*
G37*
D02*
G36*
X1802Y409D02*
X1802Y407D01*
X3442Y407D01*
X3442Y409D01*
X1802Y409D01*
G37*
D02*
G36*
X1802Y409D02*
X1802Y407D01*
X3442Y407D01*
X3442Y409D01*
X1802Y409D01*
G37*
D02*
G36*
X1802Y407D02*
X1802Y405D01*
X1800Y405D01*
X1800Y399D01*
X1798Y399D01*
X1798Y393D01*
X1796Y393D01*
X1796Y387D01*
X1794Y387D01*
X1794Y381D01*
X1792Y381D01*
X1792Y375D01*
X1790Y375D01*
X1790Y369D01*
X1788Y369D01*
X1788Y363D01*
X1786Y363D01*
X1786Y357D01*
X1784Y357D01*
X1784Y351D01*
X1782Y351D01*
X1782Y345D01*
X1780Y345D01*
X1780Y339D01*
X1778Y339D01*
X1778Y333D01*
X1776Y333D01*
X1776Y327D01*
X1774Y327D01*
X1774Y321D01*
X1772Y321D01*
X1772Y313D01*
X1770Y313D01*
X1770Y307D01*
X1768Y307D01*
X1768Y301D01*
X1766Y301D01*
X1766Y295D01*
X1764Y295D01*
X1764Y289D01*
X1762Y289D01*
X1762Y283D01*
X1760Y283D01*
X1760Y277D01*
X1758Y277D01*
X1758Y271D01*
X1756Y271D01*
X1756Y265D01*
X1754Y265D01*
X1754Y259D01*
X1752Y259D01*
X1752Y255D01*
X2824Y255D01*
X2824Y253D01*
X2830Y253D01*
X2830Y251D01*
X2834Y251D01*
X2834Y249D01*
X2838Y249D01*
X2838Y247D01*
X2840Y247D01*
X2840Y245D01*
X2844Y245D01*
X2844Y243D01*
X2846Y243D01*
X2846Y241D01*
X2848Y241D01*
X2848Y237D01*
X2850Y237D01*
X2850Y235D01*
X2852Y235D01*
X2852Y231D01*
X2854Y231D01*
X2854Y225D01*
X2856Y225D01*
X2856Y217D01*
X2858Y217D01*
X2858Y207D01*
X2856Y207D01*
X2856Y199D01*
X2854Y199D01*
X2854Y195D01*
X2852Y195D01*
X2852Y191D01*
X2850Y191D01*
X2850Y187D01*
X2848Y187D01*
X2848Y185D01*
X2846Y185D01*
X2846Y183D01*
X2844Y183D01*
X2844Y181D01*
X2842Y181D01*
X2842Y179D01*
X2840Y179D01*
X2840Y177D01*
X2836Y177D01*
X2836Y175D01*
X2832Y175D01*
X2832Y173D01*
X2828Y173D01*
X2828Y171D01*
X2816Y171D01*
X2816Y169D01*
X3442Y169D01*
X3442Y407D01*
X1802Y407D01*
G37*
D02*
G36*
X40Y255D02*
X40Y173D01*
X930Y173D01*
X930Y171D01*
X942Y171D01*
X942Y169D01*
X1412Y169D01*
X1412Y171D01*
X1402Y171D01*
X1402Y173D01*
X1396Y173D01*
X1396Y175D01*
X1394Y175D01*
X1394Y177D01*
X1390Y177D01*
X1390Y179D01*
X1388Y179D01*
X1388Y181D01*
X1386Y181D01*
X1386Y183D01*
X1384Y183D01*
X1384Y185D01*
X1382Y185D01*
X1382Y187D01*
X1380Y187D01*
X1380Y189D01*
X1378Y189D01*
X1378Y193D01*
X1376Y193D01*
X1376Y197D01*
X1374Y197D01*
X1374Y205D01*
X1372Y205D01*
X1372Y221D01*
X1374Y221D01*
X1374Y227D01*
X1376Y227D01*
X1376Y231D01*
X1378Y231D01*
X1378Y235D01*
X1380Y235D01*
X1380Y239D01*
X1382Y239D01*
X1382Y241D01*
X1384Y241D01*
X1384Y243D01*
X1386Y243D01*
X1386Y245D01*
X1388Y245D01*
X1388Y247D01*
X1392Y247D01*
X1392Y249D01*
X1394Y249D01*
X1394Y251D01*
X1398Y251D01*
X1398Y253D01*
X1406Y253D01*
X1406Y255D01*
X40Y255D01*
G37*
D02*
G36*
X1424Y255D02*
X1424Y253D01*
X1430Y253D01*
X1430Y251D01*
X1434Y251D01*
X1434Y249D01*
X1438Y249D01*
X1438Y247D01*
X1440Y247D01*
X1440Y245D01*
X1444Y245D01*
X1444Y243D01*
X1446Y243D01*
X1446Y241D01*
X1448Y241D01*
X1448Y237D01*
X1450Y237D01*
X1450Y235D01*
X1452Y235D01*
X1452Y231D01*
X1454Y231D01*
X1454Y225D01*
X1474Y225D01*
X1474Y227D01*
X1476Y227D01*
X1476Y231D01*
X1478Y231D01*
X1478Y235D01*
X1480Y235D01*
X1480Y239D01*
X1482Y239D01*
X1482Y241D01*
X1484Y241D01*
X1484Y243D01*
X1486Y243D01*
X1486Y245D01*
X1488Y245D01*
X1488Y247D01*
X1492Y247D01*
X1492Y249D01*
X1494Y249D01*
X1494Y251D01*
X1498Y251D01*
X1498Y253D01*
X1506Y253D01*
X1506Y255D01*
X1424Y255D01*
G37*
D02*
G36*
X1524Y255D02*
X1524Y253D01*
X1530Y253D01*
X1530Y251D01*
X1534Y251D01*
X1534Y249D01*
X1538Y249D01*
X1538Y247D01*
X1540Y247D01*
X1540Y245D01*
X1544Y245D01*
X1544Y243D01*
X1546Y243D01*
X1546Y241D01*
X1548Y241D01*
X1548Y237D01*
X1550Y237D01*
X1550Y235D01*
X1552Y235D01*
X1552Y231D01*
X1554Y231D01*
X1554Y225D01*
X1574Y225D01*
X1574Y227D01*
X1576Y227D01*
X1576Y231D01*
X1578Y231D01*
X1578Y235D01*
X1580Y235D01*
X1580Y239D01*
X1582Y239D01*
X1582Y241D01*
X1584Y241D01*
X1584Y243D01*
X1586Y243D01*
X1586Y245D01*
X1588Y245D01*
X1588Y247D01*
X1592Y247D01*
X1592Y249D01*
X1594Y249D01*
X1594Y251D01*
X1598Y251D01*
X1598Y253D01*
X1606Y253D01*
X1606Y255D01*
X1524Y255D01*
G37*
D02*
G36*
X1752Y255D02*
X1752Y231D01*
X1754Y231D01*
X1754Y225D01*
X1774Y225D01*
X1774Y227D01*
X1776Y227D01*
X1776Y231D01*
X1778Y231D01*
X1778Y235D01*
X1780Y235D01*
X1780Y239D01*
X1782Y239D01*
X1782Y241D01*
X1784Y241D01*
X1784Y243D01*
X1786Y243D01*
X1786Y245D01*
X1788Y245D01*
X1788Y247D01*
X1792Y247D01*
X1792Y249D01*
X1794Y249D01*
X1794Y251D01*
X1798Y251D01*
X1798Y253D01*
X1806Y253D01*
X1806Y255D01*
X1752Y255D01*
G37*
D02*
G36*
X1824Y255D02*
X1824Y253D01*
X1830Y253D01*
X1830Y251D01*
X1834Y251D01*
X1834Y249D01*
X1838Y249D01*
X1838Y247D01*
X1840Y247D01*
X1840Y245D01*
X1844Y245D01*
X1844Y243D01*
X1846Y243D01*
X1846Y241D01*
X1848Y241D01*
X1848Y237D01*
X1850Y237D01*
X1850Y235D01*
X1852Y235D01*
X1852Y231D01*
X1854Y231D01*
X1854Y225D01*
X1874Y225D01*
X1874Y227D01*
X1876Y227D01*
X1876Y231D01*
X1878Y231D01*
X1878Y235D01*
X1880Y235D01*
X1880Y239D01*
X1882Y239D01*
X1882Y241D01*
X1884Y241D01*
X1884Y243D01*
X1886Y243D01*
X1886Y245D01*
X1888Y245D01*
X1888Y247D01*
X1892Y247D01*
X1892Y249D01*
X1894Y249D01*
X1894Y251D01*
X1898Y251D01*
X1898Y253D01*
X1906Y253D01*
X1906Y255D01*
X1824Y255D01*
G37*
D02*
G36*
X1924Y255D02*
X1924Y253D01*
X1930Y253D01*
X1930Y251D01*
X1934Y251D01*
X1934Y249D01*
X1938Y249D01*
X1938Y247D01*
X1940Y247D01*
X1940Y245D01*
X1944Y245D01*
X1944Y243D01*
X1946Y243D01*
X1946Y241D01*
X1948Y241D01*
X1948Y237D01*
X1950Y237D01*
X1950Y235D01*
X1952Y235D01*
X1952Y231D01*
X1954Y231D01*
X1954Y225D01*
X1974Y225D01*
X1974Y227D01*
X1976Y227D01*
X1976Y231D01*
X1978Y231D01*
X1978Y235D01*
X1980Y235D01*
X1980Y239D01*
X1982Y239D01*
X1982Y241D01*
X1984Y241D01*
X1984Y243D01*
X1986Y243D01*
X1986Y245D01*
X1988Y245D01*
X1988Y247D01*
X1992Y247D01*
X1992Y249D01*
X1994Y249D01*
X1994Y251D01*
X1998Y251D01*
X1998Y253D01*
X2006Y253D01*
X2006Y255D01*
X1924Y255D01*
G37*
D02*
G36*
X2024Y255D02*
X2024Y253D01*
X2030Y253D01*
X2030Y251D01*
X2034Y251D01*
X2034Y249D01*
X2038Y249D01*
X2038Y247D01*
X2040Y247D01*
X2040Y245D01*
X2044Y245D01*
X2044Y243D01*
X2046Y243D01*
X2046Y241D01*
X2048Y241D01*
X2048Y237D01*
X2050Y237D01*
X2050Y235D01*
X2052Y235D01*
X2052Y231D01*
X2054Y231D01*
X2054Y225D01*
X2074Y225D01*
X2074Y227D01*
X2076Y227D01*
X2076Y231D01*
X2078Y231D01*
X2078Y235D01*
X2080Y235D01*
X2080Y239D01*
X2082Y239D01*
X2082Y241D01*
X2084Y241D01*
X2084Y243D01*
X2086Y243D01*
X2086Y245D01*
X2088Y245D01*
X2088Y247D01*
X2092Y247D01*
X2092Y249D01*
X2094Y249D01*
X2094Y251D01*
X2098Y251D01*
X2098Y253D01*
X2106Y253D01*
X2106Y255D01*
X2024Y255D01*
G37*
D02*
G36*
X2124Y255D02*
X2124Y253D01*
X2130Y253D01*
X2130Y251D01*
X2134Y251D01*
X2134Y249D01*
X2138Y249D01*
X2138Y247D01*
X2140Y247D01*
X2140Y245D01*
X2144Y245D01*
X2144Y243D01*
X2146Y243D01*
X2146Y241D01*
X2148Y241D01*
X2148Y237D01*
X2150Y237D01*
X2150Y235D01*
X2152Y235D01*
X2152Y231D01*
X2154Y231D01*
X2154Y225D01*
X2156Y225D01*
X2156Y217D01*
X2158Y217D01*
X2158Y207D01*
X2156Y207D01*
X2156Y199D01*
X2154Y199D01*
X2154Y195D01*
X2152Y195D01*
X2152Y191D01*
X2150Y191D01*
X2150Y187D01*
X2148Y187D01*
X2148Y185D01*
X2146Y185D01*
X2146Y183D01*
X2144Y183D01*
X2144Y181D01*
X2142Y181D01*
X2142Y179D01*
X2140Y179D01*
X2140Y177D01*
X2136Y177D01*
X2136Y175D01*
X2132Y175D01*
X2132Y173D01*
X2128Y173D01*
X2128Y171D01*
X2116Y171D01*
X2116Y169D01*
X2312Y169D01*
X2312Y171D01*
X2302Y171D01*
X2302Y173D01*
X2296Y173D01*
X2296Y175D01*
X2294Y175D01*
X2294Y177D01*
X2290Y177D01*
X2290Y179D01*
X2288Y179D01*
X2288Y181D01*
X2286Y181D01*
X2286Y183D01*
X2284Y183D01*
X2284Y185D01*
X2282Y185D01*
X2282Y187D01*
X2280Y187D01*
X2280Y189D01*
X2278Y189D01*
X2278Y193D01*
X2276Y193D01*
X2276Y197D01*
X2274Y197D01*
X2274Y205D01*
X2272Y205D01*
X2272Y221D01*
X2274Y221D01*
X2274Y227D01*
X2276Y227D01*
X2276Y231D01*
X2278Y231D01*
X2278Y235D01*
X2280Y235D01*
X2280Y239D01*
X2282Y239D01*
X2282Y241D01*
X2284Y241D01*
X2284Y243D01*
X2286Y243D01*
X2286Y245D01*
X2288Y245D01*
X2288Y247D01*
X2292Y247D01*
X2292Y249D01*
X2294Y249D01*
X2294Y251D01*
X2298Y251D01*
X2298Y253D01*
X2306Y253D01*
X2306Y255D01*
X2124Y255D01*
G37*
D02*
G36*
X2324Y255D02*
X2324Y253D01*
X2330Y253D01*
X2330Y251D01*
X2334Y251D01*
X2334Y249D01*
X2338Y249D01*
X2338Y247D01*
X2340Y247D01*
X2340Y245D01*
X2344Y245D01*
X2344Y243D01*
X2346Y243D01*
X2346Y241D01*
X2348Y241D01*
X2348Y237D01*
X2350Y237D01*
X2350Y235D01*
X2352Y235D01*
X2352Y231D01*
X2354Y231D01*
X2354Y225D01*
X2374Y225D01*
X2374Y227D01*
X2376Y227D01*
X2376Y231D01*
X2378Y231D01*
X2378Y235D01*
X2380Y235D01*
X2380Y239D01*
X2382Y239D01*
X2382Y241D01*
X2384Y241D01*
X2384Y243D01*
X2386Y243D01*
X2386Y245D01*
X2388Y245D01*
X2388Y247D01*
X2392Y247D01*
X2392Y249D01*
X2394Y249D01*
X2394Y251D01*
X2398Y251D01*
X2398Y253D01*
X2406Y253D01*
X2406Y255D01*
X2324Y255D01*
G37*
D02*
G36*
X2424Y255D02*
X2424Y253D01*
X2430Y253D01*
X2430Y251D01*
X2434Y251D01*
X2434Y249D01*
X2438Y249D01*
X2438Y247D01*
X2440Y247D01*
X2440Y245D01*
X2444Y245D01*
X2444Y243D01*
X2446Y243D01*
X2446Y241D01*
X2448Y241D01*
X2448Y237D01*
X2450Y237D01*
X2450Y235D01*
X2452Y235D01*
X2452Y231D01*
X2454Y231D01*
X2454Y225D01*
X2474Y225D01*
X2474Y227D01*
X2476Y227D01*
X2476Y231D01*
X2478Y231D01*
X2478Y235D01*
X2480Y235D01*
X2480Y239D01*
X2482Y239D01*
X2482Y241D01*
X2484Y241D01*
X2484Y243D01*
X2486Y243D01*
X2486Y245D01*
X2488Y245D01*
X2488Y247D01*
X2492Y247D01*
X2492Y249D01*
X2494Y249D01*
X2494Y251D01*
X2498Y251D01*
X2498Y253D01*
X2506Y253D01*
X2506Y255D01*
X2424Y255D01*
G37*
D02*
G36*
X2524Y255D02*
X2524Y253D01*
X2530Y253D01*
X2530Y251D01*
X2534Y251D01*
X2534Y249D01*
X2538Y249D01*
X2538Y247D01*
X2540Y247D01*
X2540Y245D01*
X2544Y245D01*
X2544Y243D01*
X2546Y243D01*
X2546Y241D01*
X2548Y241D01*
X2548Y237D01*
X2550Y237D01*
X2550Y235D01*
X2552Y235D01*
X2552Y231D01*
X2554Y231D01*
X2554Y225D01*
X2574Y225D01*
X2574Y227D01*
X2576Y227D01*
X2576Y231D01*
X2578Y231D01*
X2578Y235D01*
X2580Y235D01*
X2580Y239D01*
X2582Y239D01*
X2582Y241D01*
X2584Y241D01*
X2584Y243D01*
X2586Y243D01*
X2586Y245D01*
X2588Y245D01*
X2588Y247D01*
X2592Y247D01*
X2592Y249D01*
X2594Y249D01*
X2594Y251D01*
X2598Y251D01*
X2598Y253D01*
X2606Y253D01*
X2606Y255D01*
X2524Y255D01*
G37*
D02*
G36*
X2624Y255D02*
X2624Y253D01*
X2630Y253D01*
X2630Y251D01*
X2634Y251D01*
X2634Y249D01*
X2638Y249D01*
X2638Y247D01*
X2640Y247D01*
X2640Y245D01*
X2644Y245D01*
X2644Y243D01*
X2646Y243D01*
X2646Y241D01*
X2648Y241D01*
X2648Y237D01*
X2650Y237D01*
X2650Y235D01*
X2652Y235D01*
X2652Y231D01*
X2654Y231D01*
X2654Y225D01*
X2674Y225D01*
X2674Y227D01*
X2676Y227D01*
X2676Y231D01*
X2678Y231D01*
X2678Y235D01*
X2680Y235D01*
X2680Y239D01*
X2682Y239D01*
X2682Y241D01*
X2684Y241D01*
X2684Y243D01*
X2686Y243D01*
X2686Y245D01*
X2688Y245D01*
X2688Y247D01*
X2692Y247D01*
X2692Y249D01*
X2694Y249D01*
X2694Y251D01*
X2698Y251D01*
X2698Y253D01*
X2706Y253D01*
X2706Y255D01*
X2624Y255D01*
G37*
D02*
G36*
X2724Y255D02*
X2724Y253D01*
X2730Y253D01*
X2730Y251D01*
X2734Y251D01*
X2734Y249D01*
X2738Y249D01*
X2738Y247D01*
X2740Y247D01*
X2740Y245D01*
X2744Y245D01*
X2744Y243D01*
X2746Y243D01*
X2746Y241D01*
X2748Y241D01*
X2748Y237D01*
X2750Y237D01*
X2750Y235D01*
X2752Y235D01*
X2752Y231D01*
X2754Y231D01*
X2754Y225D01*
X2774Y225D01*
X2774Y227D01*
X2776Y227D01*
X2776Y231D01*
X2778Y231D01*
X2778Y235D01*
X2780Y235D01*
X2780Y239D01*
X2782Y239D01*
X2782Y241D01*
X2784Y241D01*
X2784Y243D01*
X2786Y243D01*
X2786Y245D01*
X2788Y245D01*
X2788Y247D01*
X2792Y247D01*
X2792Y249D01*
X2794Y249D01*
X2794Y251D01*
X2798Y251D01*
X2798Y253D01*
X2806Y253D01*
X2806Y255D01*
X2724Y255D01*
G37*
D02*
G36*
X1454Y199D02*
X1454Y195D01*
X1452Y195D01*
X1452Y191D01*
X1450Y191D01*
X1450Y187D01*
X1448Y187D01*
X1448Y185D01*
X1446Y185D01*
X1446Y183D01*
X1444Y183D01*
X1444Y181D01*
X1442Y181D01*
X1442Y179D01*
X1440Y179D01*
X1440Y177D01*
X1436Y177D01*
X1436Y175D01*
X1432Y175D01*
X1432Y173D01*
X1428Y173D01*
X1428Y171D01*
X1416Y171D01*
X1416Y169D01*
X1512Y169D01*
X1512Y171D01*
X1502Y171D01*
X1502Y173D01*
X1496Y173D01*
X1496Y175D01*
X1494Y175D01*
X1494Y177D01*
X1490Y177D01*
X1490Y179D01*
X1488Y179D01*
X1488Y181D01*
X1486Y181D01*
X1486Y183D01*
X1484Y183D01*
X1484Y185D01*
X1482Y185D01*
X1482Y187D01*
X1480Y187D01*
X1480Y189D01*
X1478Y189D01*
X1478Y193D01*
X1476Y193D01*
X1476Y197D01*
X1474Y197D01*
X1474Y199D01*
X1454Y199D01*
G37*
D02*
G36*
X1554Y199D02*
X1554Y195D01*
X1552Y195D01*
X1552Y191D01*
X1550Y191D01*
X1550Y187D01*
X1548Y187D01*
X1548Y185D01*
X1546Y185D01*
X1546Y183D01*
X1544Y183D01*
X1544Y181D01*
X1542Y181D01*
X1542Y179D01*
X1540Y179D01*
X1540Y177D01*
X1536Y177D01*
X1536Y175D01*
X1532Y175D01*
X1532Y173D01*
X1528Y173D01*
X1528Y171D01*
X1516Y171D01*
X1516Y169D01*
X1612Y169D01*
X1612Y171D01*
X1602Y171D01*
X1602Y173D01*
X1596Y173D01*
X1596Y175D01*
X1594Y175D01*
X1594Y177D01*
X1590Y177D01*
X1590Y179D01*
X1588Y179D01*
X1588Y181D01*
X1586Y181D01*
X1586Y183D01*
X1584Y183D01*
X1584Y185D01*
X1582Y185D01*
X1582Y187D01*
X1580Y187D01*
X1580Y189D01*
X1578Y189D01*
X1578Y193D01*
X1576Y193D01*
X1576Y197D01*
X1574Y197D01*
X1574Y199D01*
X1554Y199D01*
G37*
D02*
G36*
X1654Y199D02*
X1654Y195D01*
X1652Y195D01*
X1652Y191D01*
X1650Y191D01*
X1650Y187D01*
X1648Y187D01*
X1648Y185D01*
X1646Y185D01*
X1646Y183D01*
X1644Y183D01*
X1644Y181D01*
X1642Y181D01*
X1642Y179D01*
X1640Y179D01*
X1640Y177D01*
X1636Y177D01*
X1636Y175D01*
X1632Y175D01*
X1632Y173D01*
X1628Y173D01*
X1628Y171D01*
X1616Y171D01*
X1616Y169D01*
X1712Y169D01*
X1712Y171D01*
X1702Y171D01*
X1702Y173D01*
X1696Y173D01*
X1696Y175D01*
X1694Y175D01*
X1694Y177D01*
X1690Y177D01*
X1690Y179D01*
X1688Y179D01*
X1688Y181D01*
X1686Y181D01*
X1686Y183D01*
X1684Y183D01*
X1684Y185D01*
X1682Y185D01*
X1682Y187D01*
X1680Y187D01*
X1680Y189D01*
X1678Y189D01*
X1678Y193D01*
X1676Y193D01*
X1676Y197D01*
X1674Y197D01*
X1674Y199D01*
X1654Y199D01*
G37*
D02*
G36*
X1754Y199D02*
X1754Y195D01*
X1752Y195D01*
X1752Y191D01*
X1750Y191D01*
X1750Y187D01*
X1748Y187D01*
X1748Y185D01*
X1746Y185D01*
X1746Y183D01*
X1744Y183D01*
X1744Y181D01*
X1742Y181D01*
X1742Y179D01*
X1740Y179D01*
X1740Y177D01*
X1736Y177D01*
X1736Y175D01*
X1732Y175D01*
X1732Y173D01*
X1728Y173D01*
X1728Y171D01*
X1716Y171D01*
X1716Y169D01*
X1812Y169D01*
X1812Y171D01*
X1802Y171D01*
X1802Y173D01*
X1796Y173D01*
X1796Y175D01*
X1794Y175D01*
X1794Y177D01*
X1790Y177D01*
X1790Y179D01*
X1788Y179D01*
X1788Y181D01*
X1786Y181D01*
X1786Y183D01*
X1784Y183D01*
X1784Y185D01*
X1782Y185D01*
X1782Y187D01*
X1780Y187D01*
X1780Y189D01*
X1778Y189D01*
X1778Y193D01*
X1776Y193D01*
X1776Y197D01*
X1774Y197D01*
X1774Y199D01*
X1754Y199D01*
G37*
D02*
G36*
X1854Y199D02*
X1854Y195D01*
X1852Y195D01*
X1852Y191D01*
X1850Y191D01*
X1850Y187D01*
X1848Y187D01*
X1848Y185D01*
X1846Y185D01*
X1846Y183D01*
X1844Y183D01*
X1844Y181D01*
X1842Y181D01*
X1842Y179D01*
X1840Y179D01*
X1840Y177D01*
X1836Y177D01*
X1836Y175D01*
X1832Y175D01*
X1832Y173D01*
X1828Y173D01*
X1828Y171D01*
X1816Y171D01*
X1816Y169D01*
X1912Y169D01*
X1912Y171D01*
X1902Y171D01*
X1902Y173D01*
X1896Y173D01*
X1896Y175D01*
X1894Y175D01*
X1894Y177D01*
X1890Y177D01*
X1890Y179D01*
X1888Y179D01*
X1888Y181D01*
X1886Y181D01*
X1886Y183D01*
X1884Y183D01*
X1884Y185D01*
X1882Y185D01*
X1882Y187D01*
X1880Y187D01*
X1880Y189D01*
X1878Y189D01*
X1878Y193D01*
X1876Y193D01*
X1876Y197D01*
X1874Y197D01*
X1874Y199D01*
X1854Y199D01*
G37*
D02*
G36*
X1954Y199D02*
X1954Y195D01*
X1952Y195D01*
X1952Y191D01*
X1950Y191D01*
X1950Y187D01*
X1948Y187D01*
X1948Y185D01*
X1946Y185D01*
X1946Y183D01*
X1944Y183D01*
X1944Y181D01*
X1942Y181D01*
X1942Y179D01*
X1940Y179D01*
X1940Y177D01*
X1936Y177D01*
X1936Y175D01*
X1932Y175D01*
X1932Y173D01*
X1928Y173D01*
X1928Y171D01*
X1916Y171D01*
X1916Y169D01*
X2012Y169D01*
X2012Y171D01*
X2002Y171D01*
X2002Y173D01*
X1996Y173D01*
X1996Y175D01*
X1994Y175D01*
X1994Y177D01*
X1990Y177D01*
X1990Y179D01*
X1988Y179D01*
X1988Y181D01*
X1986Y181D01*
X1986Y183D01*
X1984Y183D01*
X1984Y185D01*
X1982Y185D01*
X1982Y187D01*
X1980Y187D01*
X1980Y189D01*
X1978Y189D01*
X1978Y193D01*
X1976Y193D01*
X1976Y197D01*
X1974Y197D01*
X1974Y199D01*
X1954Y199D01*
G37*
D02*
G36*
X2054Y199D02*
X2054Y195D01*
X2052Y195D01*
X2052Y191D01*
X2050Y191D01*
X2050Y187D01*
X2048Y187D01*
X2048Y185D01*
X2046Y185D01*
X2046Y183D01*
X2044Y183D01*
X2044Y181D01*
X2042Y181D01*
X2042Y179D01*
X2040Y179D01*
X2040Y177D01*
X2036Y177D01*
X2036Y175D01*
X2032Y175D01*
X2032Y173D01*
X2028Y173D01*
X2028Y171D01*
X2016Y171D01*
X2016Y169D01*
X2112Y169D01*
X2112Y171D01*
X2102Y171D01*
X2102Y173D01*
X2096Y173D01*
X2096Y175D01*
X2094Y175D01*
X2094Y177D01*
X2090Y177D01*
X2090Y179D01*
X2088Y179D01*
X2088Y181D01*
X2086Y181D01*
X2086Y183D01*
X2084Y183D01*
X2084Y185D01*
X2082Y185D01*
X2082Y187D01*
X2080Y187D01*
X2080Y189D01*
X2078Y189D01*
X2078Y193D01*
X2076Y193D01*
X2076Y197D01*
X2074Y197D01*
X2074Y199D01*
X2054Y199D01*
G37*
D02*
G36*
X2354Y199D02*
X2354Y195D01*
X2352Y195D01*
X2352Y191D01*
X2350Y191D01*
X2350Y187D01*
X2348Y187D01*
X2348Y185D01*
X2346Y185D01*
X2346Y183D01*
X2344Y183D01*
X2344Y181D01*
X2342Y181D01*
X2342Y179D01*
X2340Y179D01*
X2340Y177D01*
X2336Y177D01*
X2336Y175D01*
X2332Y175D01*
X2332Y173D01*
X2328Y173D01*
X2328Y171D01*
X2316Y171D01*
X2316Y169D01*
X2412Y169D01*
X2412Y171D01*
X2402Y171D01*
X2402Y173D01*
X2396Y173D01*
X2396Y175D01*
X2394Y175D01*
X2394Y177D01*
X2390Y177D01*
X2390Y179D01*
X2388Y179D01*
X2388Y181D01*
X2386Y181D01*
X2386Y183D01*
X2384Y183D01*
X2384Y185D01*
X2382Y185D01*
X2382Y187D01*
X2380Y187D01*
X2380Y189D01*
X2378Y189D01*
X2378Y193D01*
X2376Y193D01*
X2376Y197D01*
X2374Y197D01*
X2374Y199D01*
X2354Y199D01*
G37*
D02*
G36*
X2454Y199D02*
X2454Y195D01*
X2452Y195D01*
X2452Y191D01*
X2450Y191D01*
X2450Y187D01*
X2448Y187D01*
X2448Y185D01*
X2446Y185D01*
X2446Y183D01*
X2444Y183D01*
X2444Y181D01*
X2442Y181D01*
X2442Y179D01*
X2440Y179D01*
X2440Y177D01*
X2436Y177D01*
X2436Y175D01*
X2432Y175D01*
X2432Y173D01*
X2428Y173D01*
X2428Y171D01*
X2416Y171D01*
X2416Y169D01*
X2512Y169D01*
X2512Y171D01*
X2502Y171D01*
X2502Y173D01*
X2496Y173D01*
X2496Y175D01*
X2494Y175D01*
X2494Y177D01*
X2490Y177D01*
X2490Y179D01*
X2488Y179D01*
X2488Y181D01*
X2486Y181D01*
X2486Y183D01*
X2484Y183D01*
X2484Y185D01*
X2482Y185D01*
X2482Y187D01*
X2480Y187D01*
X2480Y189D01*
X2478Y189D01*
X2478Y193D01*
X2476Y193D01*
X2476Y197D01*
X2474Y197D01*
X2474Y199D01*
X2454Y199D01*
G37*
D02*
G36*
X2554Y199D02*
X2554Y195D01*
X2552Y195D01*
X2552Y191D01*
X2550Y191D01*
X2550Y187D01*
X2548Y187D01*
X2548Y185D01*
X2546Y185D01*
X2546Y183D01*
X2544Y183D01*
X2544Y181D01*
X2542Y181D01*
X2542Y179D01*
X2540Y179D01*
X2540Y177D01*
X2536Y177D01*
X2536Y175D01*
X2532Y175D01*
X2532Y173D01*
X2528Y173D01*
X2528Y171D01*
X2516Y171D01*
X2516Y169D01*
X2612Y169D01*
X2612Y171D01*
X2602Y171D01*
X2602Y173D01*
X2596Y173D01*
X2596Y175D01*
X2594Y175D01*
X2594Y177D01*
X2590Y177D01*
X2590Y179D01*
X2588Y179D01*
X2588Y181D01*
X2586Y181D01*
X2586Y183D01*
X2584Y183D01*
X2584Y185D01*
X2582Y185D01*
X2582Y187D01*
X2580Y187D01*
X2580Y189D01*
X2578Y189D01*
X2578Y193D01*
X2576Y193D01*
X2576Y197D01*
X2574Y197D01*
X2574Y199D01*
X2554Y199D01*
G37*
D02*
G36*
X2654Y199D02*
X2654Y193D01*
X2652Y193D01*
X2652Y191D01*
X2650Y191D01*
X2650Y187D01*
X2648Y187D01*
X2648Y185D01*
X2646Y185D01*
X2646Y183D01*
X2644Y183D01*
X2644Y181D01*
X2642Y181D01*
X2642Y179D01*
X2640Y179D01*
X2640Y177D01*
X2636Y177D01*
X2636Y175D01*
X2632Y175D01*
X2632Y173D01*
X2628Y173D01*
X2628Y171D01*
X2616Y171D01*
X2616Y169D01*
X2712Y169D01*
X2712Y171D01*
X2702Y171D01*
X2702Y173D01*
X2696Y173D01*
X2696Y175D01*
X2694Y175D01*
X2694Y177D01*
X2690Y177D01*
X2690Y179D01*
X2688Y179D01*
X2688Y181D01*
X2686Y181D01*
X2686Y183D01*
X2684Y183D01*
X2684Y185D01*
X2682Y185D01*
X2682Y187D01*
X2680Y187D01*
X2680Y189D01*
X2678Y189D01*
X2678Y193D01*
X2676Y193D01*
X2676Y197D01*
X2674Y197D01*
X2674Y199D01*
X2654Y199D01*
G37*
D02*
G36*
X2754Y199D02*
X2754Y195D01*
X2752Y195D01*
X2752Y191D01*
X2750Y191D01*
X2750Y187D01*
X2748Y187D01*
X2748Y185D01*
X2746Y185D01*
X2746Y183D01*
X2744Y183D01*
X2744Y181D01*
X2742Y181D01*
X2742Y179D01*
X2740Y179D01*
X2740Y177D01*
X2736Y177D01*
X2736Y175D01*
X2732Y175D01*
X2732Y173D01*
X2728Y173D01*
X2728Y171D01*
X2716Y171D01*
X2716Y169D01*
X2812Y169D01*
X2812Y171D01*
X2802Y171D01*
X2802Y173D01*
X2796Y173D01*
X2796Y175D01*
X2794Y175D01*
X2794Y177D01*
X2790Y177D01*
X2790Y179D01*
X2788Y179D01*
X2788Y181D01*
X2786Y181D01*
X2786Y183D01*
X2784Y183D01*
X2784Y185D01*
X2782Y185D01*
X2782Y187D01*
X2780Y187D01*
X2780Y189D01*
X2778Y189D01*
X2778Y193D01*
X2776Y193D01*
X2776Y197D01*
X2774Y197D01*
X2774Y199D01*
X2754Y199D01*
G37*
D02*
G36*
X40Y173D02*
X40Y73D01*
X420Y73D01*
X420Y75D01*
X412Y75D01*
X412Y77D01*
X408Y77D01*
X408Y79D01*
X404Y79D01*
X404Y81D01*
X400Y81D01*
X400Y83D01*
X398Y83D01*
X398Y85D01*
X396Y85D01*
X396Y87D01*
X392Y87D01*
X392Y91D01*
X390Y91D01*
X390Y93D01*
X388Y93D01*
X388Y95D01*
X386Y95D01*
X386Y99D01*
X384Y99D01*
X384Y103D01*
X382Y103D01*
X382Y109D01*
X380Y109D01*
X380Y117D01*
X378Y117D01*
X378Y127D01*
X380Y127D01*
X380Y137D01*
X382Y137D01*
X382Y143D01*
X384Y143D01*
X384Y147D01*
X386Y147D01*
X386Y149D01*
X388Y149D01*
X388Y153D01*
X390Y153D01*
X390Y155D01*
X392Y155D01*
X392Y157D01*
X394Y157D01*
X394Y159D01*
X396Y159D01*
X396Y161D01*
X398Y161D01*
X398Y163D01*
X402Y163D01*
X402Y165D01*
X404Y165D01*
X404Y167D01*
X408Y167D01*
X408Y169D01*
X414Y169D01*
X414Y171D01*
X426Y171D01*
X426Y173D01*
X40Y173D01*
G37*
D02*
G36*
X430Y173D02*
X430Y171D01*
X442Y171D01*
X442Y169D01*
X448Y169D01*
X448Y167D01*
X452Y167D01*
X452Y165D01*
X454Y165D01*
X454Y163D01*
X458Y163D01*
X458Y161D01*
X460Y161D01*
X460Y159D01*
X462Y159D01*
X462Y157D01*
X464Y157D01*
X464Y155D01*
X466Y155D01*
X466Y153D01*
X468Y153D01*
X468Y151D01*
X488Y151D01*
X488Y153D01*
X490Y153D01*
X490Y155D01*
X492Y155D01*
X492Y157D01*
X494Y157D01*
X494Y159D01*
X496Y159D01*
X496Y161D01*
X498Y161D01*
X498Y163D01*
X502Y163D01*
X502Y165D01*
X504Y165D01*
X504Y167D01*
X508Y167D01*
X508Y169D01*
X514Y169D01*
X514Y171D01*
X526Y171D01*
X526Y173D01*
X430Y173D01*
G37*
D02*
G36*
X530Y173D02*
X530Y171D01*
X542Y171D01*
X542Y169D01*
X548Y169D01*
X548Y167D01*
X552Y167D01*
X552Y165D01*
X554Y165D01*
X554Y163D01*
X558Y163D01*
X558Y161D01*
X560Y161D01*
X560Y159D01*
X562Y159D01*
X562Y157D01*
X564Y157D01*
X564Y155D01*
X566Y155D01*
X566Y153D01*
X568Y153D01*
X568Y151D01*
X588Y151D01*
X588Y153D01*
X590Y153D01*
X590Y155D01*
X592Y155D01*
X592Y157D01*
X594Y157D01*
X594Y159D01*
X596Y159D01*
X596Y161D01*
X598Y161D01*
X598Y163D01*
X602Y163D01*
X602Y165D01*
X604Y165D01*
X604Y167D01*
X608Y167D01*
X608Y169D01*
X614Y169D01*
X614Y171D01*
X626Y171D01*
X626Y173D01*
X530Y173D01*
G37*
D02*
G36*
X630Y173D02*
X630Y171D01*
X642Y171D01*
X642Y169D01*
X648Y169D01*
X648Y167D01*
X652Y167D01*
X652Y165D01*
X654Y165D01*
X654Y163D01*
X658Y163D01*
X658Y161D01*
X660Y161D01*
X660Y159D01*
X662Y159D01*
X662Y157D01*
X664Y157D01*
X664Y155D01*
X666Y155D01*
X666Y153D01*
X668Y153D01*
X668Y151D01*
X688Y151D01*
X688Y153D01*
X690Y153D01*
X690Y155D01*
X692Y155D01*
X692Y157D01*
X694Y157D01*
X694Y159D01*
X696Y159D01*
X696Y161D01*
X698Y161D01*
X698Y163D01*
X702Y163D01*
X702Y165D01*
X704Y165D01*
X704Y167D01*
X708Y167D01*
X708Y169D01*
X714Y169D01*
X714Y171D01*
X726Y171D01*
X726Y173D01*
X630Y173D01*
G37*
D02*
G36*
X730Y173D02*
X730Y171D01*
X742Y171D01*
X742Y169D01*
X748Y169D01*
X748Y167D01*
X752Y167D01*
X752Y165D01*
X754Y165D01*
X754Y163D01*
X758Y163D01*
X758Y161D01*
X760Y161D01*
X760Y159D01*
X762Y159D01*
X762Y157D01*
X764Y157D01*
X764Y155D01*
X766Y155D01*
X766Y153D01*
X768Y153D01*
X768Y151D01*
X788Y151D01*
X788Y153D01*
X790Y153D01*
X790Y155D01*
X792Y155D01*
X792Y157D01*
X794Y157D01*
X794Y159D01*
X796Y159D01*
X796Y161D01*
X798Y161D01*
X798Y163D01*
X802Y163D01*
X802Y165D01*
X804Y165D01*
X804Y167D01*
X808Y167D01*
X808Y169D01*
X814Y169D01*
X814Y171D01*
X826Y171D01*
X826Y173D01*
X730Y173D01*
G37*
D02*
G36*
X830Y173D02*
X830Y171D01*
X842Y171D01*
X842Y169D01*
X848Y169D01*
X848Y167D01*
X852Y167D01*
X852Y165D01*
X854Y165D01*
X854Y163D01*
X858Y163D01*
X858Y161D01*
X860Y161D01*
X860Y159D01*
X862Y159D01*
X862Y157D01*
X864Y157D01*
X864Y155D01*
X866Y155D01*
X866Y153D01*
X868Y153D01*
X868Y151D01*
X888Y151D01*
X888Y153D01*
X890Y153D01*
X890Y155D01*
X892Y155D01*
X892Y157D01*
X894Y157D01*
X894Y159D01*
X896Y159D01*
X896Y161D01*
X898Y161D01*
X898Y163D01*
X902Y163D01*
X902Y165D01*
X904Y165D01*
X904Y167D01*
X908Y167D01*
X908Y169D01*
X914Y169D01*
X914Y171D01*
X926Y171D01*
X926Y173D01*
X830Y173D01*
G37*
D02*
G36*
X948Y169D02*
X948Y167D01*
X3442Y167D01*
X3442Y169D01*
X948Y169D01*
G37*
D02*
G36*
X948Y169D02*
X948Y167D01*
X3442Y167D01*
X3442Y169D01*
X948Y169D01*
G37*
D02*
G36*
X948Y169D02*
X948Y167D01*
X3442Y167D01*
X3442Y169D01*
X948Y169D01*
G37*
D02*
G36*
X948Y169D02*
X948Y167D01*
X3442Y167D01*
X3442Y169D01*
X948Y169D01*
G37*
D02*
G36*
X948Y169D02*
X948Y167D01*
X3442Y167D01*
X3442Y169D01*
X948Y169D01*
G37*
D02*
G36*
X948Y169D02*
X948Y167D01*
X3442Y167D01*
X3442Y169D01*
X948Y169D01*
G37*
D02*
G36*
X948Y169D02*
X948Y167D01*
X3442Y167D01*
X3442Y169D01*
X948Y169D01*
G37*
D02*
G36*
X948Y169D02*
X948Y167D01*
X3442Y167D01*
X3442Y169D01*
X948Y169D01*
G37*
D02*
G36*
X948Y169D02*
X948Y167D01*
X3442Y167D01*
X3442Y169D01*
X948Y169D01*
G37*
D02*
G36*
X948Y169D02*
X948Y167D01*
X3442Y167D01*
X3442Y169D01*
X948Y169D01*
G37*
D02*
G36*
X948Y169D02*
X948Y167D01*
X3442Y167D01*
X3442Y169D01*
X948Y169D01*
G37*
D02*
G36*
X948Y169D02*
X948Y167D01*
X3442Y167D01*
X3442Y169D01*
X948Y169D01*
G37*
D02*
G36*
X948Y169D02*
X948Y167D01*
X3442Y167D01*
X3442Y169D01*
X948Y169D01*
G37*
D02*
G36*
X948Y169D02*
X948Y167D01*
X3442Y167D01*
X3442Y169D01*
X948Y169D01*
G37*
D02*
G36*
X948Y169D02*
X948Y167D01*
X3442Y167D01*
X3442Y169D01*
X948Y169D01*
G37*
D02*
G36*
X952Y167D02*
X952Y165D01*
X954Y165D01*
X954Y163D01*
X958Y163D01*
X958Y161D01*
X960Y161D01*
X960Y159D01*
X962Y159D01*
X962Y157D01*
X964Y157D01*
X964Y155D01*
X966Y155D01*
X966Y153D01*
X968Y153D01*
X968Y151D01*
X970Y151D01*
X970Y147D01*
X972Y147D01*
X972Y143D01*
X974Y143D01*
X974Y137D01*
X976Y137D01*
X976Y129D01*
X978Y129D01*
X978Y117D01*
X976Y117D01*
X976Y109D01*
X974Y109D01*
X974Y103D01*
X972Y103D01*
X972Y99D01*
X970Y99D01*
X970Y95D01*
X968Y95D01*
X968Y93D01*
X966Y93D01*
X966Y91D01*
X964Y91D01*
X964Y87D01*
X960Y87D01*
X960Y85D01*
X958Y85D01*
X958Y83D01*
X956Y83D01*
X956Y81D01*
X952Y81D01*
X952Y79D01*
X948Y79D01*
X948Y77D01*
X944Y77D01*
X944Y75D01*
X936Y75D01*
X936Y73D01*
X3442Y73D01*
X3442Y167D01*
X952Y167D01*
G37*
D02*
G36*
X468Y95D02*
X468Y93D01*
X466Y93D01*
X466Y91D01*
X464Y91D01*
X464Y87D01*
X460Y87D01*
X460Y85D01*
X458Y85D01*
X458Y83D01*
X456Y83D01*
X456Y81D01*
X452Y81D01*
X452Y79D01*
X448Y79D01*
X448Y77D01*
X444Y77D01*
X444Y75D01*
X436Y75D01*
X436Y73D01*
X520Y73D01*
X520Y75D01*
X512Y75D01*
X512Y77D01*
X508Y77D01*
X508Y79D01*
X504Y79D01*
X504Y81D01*
X500Y81D01*
X500Y83D01*
X498Y83D01*
X498Y85D01*
X496Y85D01*
X496Y87D01*
X492Y87D01*
X492Y91D01*
X490Y91D01*
X490Y93D01*
X488Y93D01*
X488Y95D01*
X468Y95D01*
G37*
D02*
G36*
X568Y95D02*
X568Y93D01*
X566Y93D01*
X566Y91D01*
X564Y91D01*
X564Y87D01*
X560Y87D01*
X560Y85D01*
X558Y85D01*
X558Y83D01*
X556Y83D01*
X556Y81D01*
X552Y81D01*
X552Y79D01*
X548Y79D01*
X548Y77D01*
X544Y77D01*
X544Y75D01*
X536Y75D01*
X536Y73D01*
X620Y73D01*
X620Y75D01*
X612Y75D01*
X612Y77D01*
X608Y77D01*
X608Y79D01*
X604Y79D01*
X604Y81D01*
X600Y81D01*
X600Y83D01*
X598Y83D01*
X598Y85D01*
X596Y85D01*
X596Y87D01*
X592Y87D01*
X592Y91D01*
X590Y91D01*
X590Y93D01*
X588Y93D01*
X588Y95D01*
X568Y95D01*
G37*
D02*
G36*
X668Y95D02*
X668Y93D01*
X666Y93D01*
X666Y91D01*
X664Y91D01*
X664Y87D01*
X660Y87D01*
X660Y85D01*
X658Y85D01*
X658Y83D01*
X656Y83D01*
X656Y81D01*
X652Y81D01*
X652Y79D01*
X648Y79D01*
X648Y77D01*
X644Y77D01*
X644Y75D01*
X636Y75D01*
X636Y73D01*
X720Y73D01*
X720Y75D01*
X712Y75D01*
X712Y77D01*
X708Y77D01*
X708Y79D01*
X704Y79D01*
X704Y81D01*
X700Y81D01*
X700Y83D01*
X698Y83D01*
X698Y85D01*
X696Y85D01*
X696Y87D01*
X692Y87D01*
X692Y91D01*
X690Y91D01*
X690Y93D01*
X688Y93D01*
X688Y95D01*
X668Y95D01*
G37*
D02*
G36*
X768Y95D02*
X768Y93D01*
X766Y93D01*
X766Y91D01*
X764Y91D01*
X764Y87D01*
X760Y87D01*
X760Y85D01*
X758Y85D01*
X758Y83D01*
X756Y83D01*
X756Y81D01*
X752Y81D01*
X752Y79D01*
X748Y79D01*
X748Y77D01*
X744Y77D01*
X744Y75D01*
X736Y75D01*
X736Y73D01*
X820Y73D01*
X820Y75D01*
X812Y75D01*
X812Y77D01*
X808Y77D01*
X808Y79D01*
X804Y79D01*
X804Y81D01*
X800Y81D01*
X800Y83D01*
X798Y83D01*
X798Y85D01*
X796Y85D01*
X796Y87D01*
X792Y87D01*
X792Y91D01*
X790Y91D01*
X790Y93D01*
X788Y93D01*
X788Y95D01*
X768Y95D01*
G37*
D02*
G36*
X868Y95D02*
X868Y93D01*
X866Y93D01*
X866Y91D01*
X864Y91D01*
X864Y87D01*
X860Y87D01*
X860Y85D01*
X858Y85D01*
X858Y83D01*
X856Y83D01*
X856Y81D01*
X852Y81D01*
X852Y79D01*
X848Y79D01*
X848Y77D01*
X844Y77D01*
X844Y75D01*
X836Y75D01*
X836Y73D01*
X920Y73D01*
X920Y75D01*
X912Y75D01*
X912Y77D01*
X908Y77D01*
X908Y79D01*
X904Y79D01*
X904Y81D01*
X900Y81D01*
X900Y83D01*
X898Y83D01*
X898Y85D01*
X896Y85D01*
X896Y87D01*
X892Y87D01*
X892Y91D01*
X890Y91D01*
X890Y93D01*
X888Y93D01*
X888Y95D01*
X868Y95D01*
G37*
D02*
G36*
X40Y73D02*
X40Y71D01*
X3442Y71D01*
X3442Y73D01*
X40Y73D01*
G37*
D02*
G36*
X40Y73D02*
X40Y71D01*
X3442Y71D01*
X3442Y73D01*
X40Y73D01*
G37*
D02*
G36*
X40Y73D02*
X40Y71D01*
X3442Y71D01*
X3442Y73D01*
X40Y73D01*
G37*
D02*
G36*
X40Y73D02*
X40Y71D01*
X3442Y71D01*
X3442Y73D01*
X40Y73D01*
G37*
D02*
G36*
X40Y73D02*
X40Y71D01*
X3442Y71D01*
X3442Y73D01*
X40Y73D01*
G37*
D02*
G36*
X40Y73D02*
X40Y71D01*
X3442Y71D01*
X3442Y73D01*
X40Y73D01*
G37*
D02*
G36*
X40Y73D02*
X40Y71D01*
X3442Y71D01*
X3442Y73D01*
X40Y73D01*
G37*
D02*
G36*
X40Y71D02*
X40Y41D01*
X3442Y41D01*
X3442Y71D01*
X40Y71D01*
G37*
D02*
G04 End of Copper1*
M02*